<svg xmlns="http://www.w3.org/2000/svg" viewBox="0 0 400 300">
<rect width="400" height="300" fill="#0f0f1a"/>
<line x1="20" y1="225" x2="380" y2="225" stroke="#444" stroke-width="3" stroke-linecap="round"/>
<text x="200" y="38" fill="#888" font-size="13" font-family="sans-serif" text-anchor="middle">Chest Opener</text>
<text x="200" y="58" fill="#666" font-size="10" font-family="sans-serif" text-anchor="middle"><tspan x="200" dy="0">Stand with hands clasped behind back, straighten arms,</tspan><tspan x="200" dy="14">open chest, hold.</tspan></text>
<g stroke="#555" stroke-width="2" fill="none" stroke-linecap="round" stroke-linejoin="round" opacity="0.25">
  <circle cx="200" cy="73" r="10" fill="#444" stroke="none"/>
  <line x1="200" y1="73" x2="200" y2="81"/><line x1="200" y1="81" x2="200" y2="89"/><line x1="200" y1="89" x2="200" y2="113"/><line x1="200" y1="89" x2="172" y2="114"/><line x1="172" y1="114" x2="159" y2="136"/><line x1="200" y1="89" x2="228" y2="114"/><line x1="228" y1="114" x2="241" y2="136"/><line x1="200" y1="113" x2="195" y2="170"/><line x1="195" y1="170" x2="190" y2="222"/><line x1="200" y1="113" x2="205" y2="170"/><line x1="205" y1="170" x2="210" y2="222"/>
</g>
<g stroke="#FFF" stroke-width="4" fill="none" stroke-linecap="round" stroke-linejoin="round">
  <circle cx="200" cy="72.1" r="10" fill="#FFF" stroke="none"/>
  <line x1="200" y1="72.1" x2="200" y2="80.1"/><line x1="200" y1="80.1" x2="200" y2="88.1"/><line x1="200" y1="88.1" x2="200" y2="112.1"/><line x1="200" y1="88.1" x2="170.8" y2="110.7"/><line x1="170.8" y1="110.7" x2="157.1" y2="131.5"/><line x1="200" y1="88.1" x2="229.2" y2="110.7"/><line x1="229.2" y1="110.7" x2="242.9" y2="131.5"/><line x1="200" y1="112.1" x2="195" y2="169.1"/><line x1="195" y1="169.1" x2="190" y2="221.1"/><line x1="200" y1="112.1" x2="205" y2="169.1"/><line x1="205" y1="169.1" x2="210" y2="221.1"/>
  <line x1="200" y1="80.1" x2="200" y2="88.1" stroke="#FF9500" stroke-width="5" opacity="0.6"/><line x1="200" y1="88.1" x2="200" y2="112.1" stroke="#FF9500" stroke-width="5" opacity="0.6"/>
</g>
<text x="230" y="78.1" fill="#FF9500" font-size="10" font-family="sans-serif">Open chest</text>
</svg>