<svg xmlns="http://www.w3.org/2000/svg" viewBox="0 0 400 300">
<rect width="400" height="300" fill="#0f0f1a"/>
<line x1="20" y1="260" x2="380" y2="260" stroke="#444" stroke-width="3" stroke-linecap="round"/>
<text x="200" y="38" fill="#888" font-size="13" font-family="sans-serif" text-anchor="middle">Dead Bugs</text>
<text x="200" y="58" fill="#666" font-size="10" font-family="sans-serif" text-anchor="middle">Lie on back, arms up, legs in tabletop; slowly extend opposite arm and leg toward floor while keeping lower back pressed down, return and alternate.</text>
<g stroke="#555" stroke-width="2" fill="none" stroke-linecap="round" stroke-linejoin="round" opacity="0.25">
  <circle cx="160" cy="253" r="12" fill="#444" stroke="none"/>
  <line x1="160" y1="253" x2="172" y2="255"/><line x1="172" y1="255" x2="185" y2="257"/><line x1="185" y1="257" x2="230" y2="260"/><line x1="185" y1="257" x2="168" y2="215"/><line x1="168" y1="215" x2="158" y2="195"/><line x1="185" y1="257" x2="202" y2="215"/><line x1="202" y1="215" x2="212" y2="195"/><line x1="230" y1="260" x2="265" y2="210"/><line x1="265" y1="210" x2="280" y2="258"/><line x1="230" y1="260" x2="250" y2="210"/><line x1="250" y1="210" x2="265" y2="258"/>
</g>
<g stroke="#FFF" stroke-width="4" fill="none" stroke-linecap="round" stroke-linejoin="round">
  <circle cx="160" cy="253" r="12" fill="#FFF" stroke="none"/>
  <line x1="160" y1="253" x2="172" y2="255"/><line x1="172" y1="255" x2="185" y2="257"/><line x1="185" y1="257" x2="230" y2="259"/><line x1="185" y1="257" x2="168" y2="215"/><line x1="168" y1="215" x2="158" y2="195"/><line x1="185" y1="257" x2="186.4" y2="237.7"/><line x1="186.4" y1="237.7" x2="174.3" y2="244.7"/><line x1="230" y1="259" x2="275.7" y2="207.9"/><line x1="275.7" y1="207.9" x2="294.2" y2="255.9"/><line x1="230" y1="259" x2="250" y2="210"/><line x1="250" y1="210" x2="265" y2="258"/>
  <line x1="185" y1="257" x2="186.4" y2="237.7" stroke="#8B5CF6" stroke-width="5" opacity="0.6"/><line x1="186.4" y1="237.7" x2="174.3" y2="244.7" stroke="#8B5CF6" stroke-width="5" opacity="0.6"/><line x1="230" y1="259" x2="275.7" y2="207.9" stroke="#8B5CF6" stroke-width="5" opacity="0.6"/><line x1="275.7" y1="207.9" x2="294.2" y2="255.9" stroke="#8B5CF6" stroke-width="5" opacity="0.6"/>
</g>
<text x="144.3" y="236.7" fill="#8B5CF6" font-size="10" font-family="sans-serif">Extend arm</text><text x="296.2" y="247.9" fill="#8B5CF6" font-size="10" font-family="sans-serif">Extend leg</text>
</svg>