<svg xmlns="http://www.w3.org/2000/svg" viewBox="0 0 400 300">
<rect width="400" height="300" fill="#0f0f1a"/>
<line x1="20" y1="260" x2="380" y2="260" stroke="#444" stroke-width="3" stroke-linecap="round"/>
<text x="200" y="38" fill="#888" font-size="13" font-family="sans-serif" text-anchor="middle">Dead Bugs</text>
<text x="200" y="58" fill="#666" font-size="10" font-family="sans-serif" text-anchor="middle"><tspan x="200" dy="0">Lie on back, arms up, legs in tabletop; slowly extend</tspan><tspan x="200" dy="14">opposite arm and leg toward floor while keeping lower</tspan><tspan x="200" dy="14">back pressed down, return and alternate.</tspan></text>
<g stroke="#555" stroke-width="2" fill="none" stroke-linecap="round" stroke-linejoin="round" opacity="0.25">
  <circle cx="160" cy="253" r="12" fill="#444" stroke="none"/>
  <line x1="160" y1="253" x2="172" y2="255"/><line x1="172" y1="255" x2="185" y2="257"/><line x1="185" y1="257" x2="230" y2="260"/><line x1="185" y1="257" x2="168" y2="215"/><line x1="168" y1="215" x2="158" y2="195"/><line x1="185" y1="257" x2="202" y2="215"/><line x1="202" y1="215" x2="212" y2="195"/><line x1="230" y1="260" x2="265" y2="210"/><line x1="265" y1="210" x2="280" y2="258"/><line x1="230" y1="260" x2="250" y2="210"/><line x1="250" y1="210" x2="265" y2="258"/>
</g>
<g stroke="#FFF" stroke-width="4" fill="none" stroke-linecap="round" stroke-linejoin="round">
  <circle cx="160" cy="253" r="12" fill="#FFF" stroke="none"/>
  <line x1="160" y1="253" x2="172" y2="255"/><line x1="172" y1="255" x2="185" y2="257"/><line x1="185" y1="257" x2="230" y2="259"/><line x1="185" y1="257" x2="168" y2="215"/><line x1="168" y1="215" x2="158" y2="195"/><line x1="185" y1="257" x2="200.1" y2="217.7"/><line x1="200.1" y1="217.7" x2="207.5" y2="201"/><line x1="230" y1="259" x2="266.3" y2="209.7"/><line x1="266.3" y1="209.7" x2="281.7" y2="257.7"/><line x1="230" y1="259" x2="250" y2="210"/><line x1="250" y1="210" x2="265" y2="258"/>
  <line x1="185" y1="257" x2="200.1" y2="217.7" stroke="#8B5CF6" stroke-width="5" opacity="0.6"/><line x1="200.1" y1="217.7" x2="207.5" y2="201" stroke="#8B5CF6" stroke-width="5" opacity="0.6"/><line x1="230" y1="259" x2="266.3" y2="209.7" stroke="#8B5CF6" stroke-width="5" opacity="0.6"/><line x1="266.3" y1="209.7" x2="281.7" y2="257.7" stroke="#8B5CF6" stroke-width="5" opacity="0.6"/>
</g>
<text x="177.5" y="193" fill="#8B5CF6" font-size="10" font-family="sans-serif">Extend arm</text><text x="283.7" y="249.7" fill="#8B5CF6" font-size="10" font-family="sans-serif">Extend leg</text>
</svg>