<svg xmlns="http://www.w3.org/2000/svg" viewBox="0 0 400 300">
<rect width="400" height="300" fill="#0f0f1a"/>
<line x1="20" y1="260" x2="380" y2="260" stroke="#444" stroke-width="3" stroke-linecap="round"/>
<text x="200" y="23" fill="#888" font-size="12" font-family="sans-serif" text-anchor="middle">Dead Bugs</text>
<text x="200" y="38" fill="#666" font-size="10" font-family="sans-serif" text-anchor="middle">Lie on back, extend opposite arm &amp; leg toward floor</text>
<g stroke="#555" stroke-width="2" fill="none" stroke-linecap="round" stroke-linejoin="round" opacity="0.25">
  <circle cx="100" cy="253" r="12" fill="#444" stroke="none"/>
  <line x1="100" y1="253" x2="112" y2="255"/><line x1="112" y1="255" x2="125" y2="257"/><line x1="125" y1="257" x2="170" y2="260"/><line x1="125" y1="257" x2="108" y2="215"/><line x1="108" y1="215" x2="98" y2="195"/><line x1="125" y1="257" x2="142" y2="215"/><line x1="142" y1="215" x2="152" y2="195"/><line x1="170" y1="260" x2="205" y2="210"/><line x1="205" y1="210" x2="220" y2="258"/><line x1="170" y1="260" x2="190" y2="210"/><line x1="190" y1="210" x2="205" y2="258"/>
</g>
<g stroke="#FFF" stroke-width="4" fill="none" stroke-linecap="round" stroke-linejoin="round">
  <circle cx="100" cy="253" r="12" fill="#FFF" stroke="none"/>
  <line x1="100" y1="253" x2="112" y2="255"/><line x1="112" y1="255" x2="125" y2="257"/><line x1="125" y1="257" x2="170" y2="259"/><line x1="125" y1="257" x2="108" y2="215"/><line x1="108" y1="215" x2="98" y2="195"/><line x1="125" y1="257" x2="138.7" y2="219.7"/><line x1="138.7" y1="219.7" x2="144.1" y2="205.4"/><line x1="170" y1="259" x2="207.2" y2="209.6"/><line x1="207.2" y1="209.6" x2="223" y2="257.6"/><line x1="170" y1="259" x2="190" y2="210"/><line x1="190" y1="210" x2="205" y2="258"/>
  <line x1="125" y1="257" x2="138.7" y2="219.7" stroke="#8B5CF6" stroke-width="5" opacity="0.6"/><line x1="138.7" y1="219.7" x2="144.1" y2="205.4" stroke="#8B5CF6" stroke-width="5" opacity="0.6"/><line x1="170" y1="259" x2="207.2" y2="209.6" stroke="#8B5CF6" stroke-width="5" opacity="0.6"/><line x1="207.2" y1="209.6" x2="223" y2="257.6" stroke="#8B5CF6" stroke-width="5" opacity="0.6"/>
</g>
<text x="114.1" y="197.4" fill="#8B5CF6" font-size="10" font-family="sans-serif">Extend arm</text><text x="225" y="249.6" fill="#8B5CF6" font-size="10" font-family="sans-serif">Extend leg</text>
</svg>