<svg xmlns="http://www.w3.org/2000/svg" viewBox="0 0 400 300">
<rect width="400" height="300" fill="#0f0f1a"/>
<line x1="20" y1="225" x2="380" y2="225" stroke="#444" stroke-width="3" stroke-linecap="round"/>
<text x="200" y="38" fill="#888" font-size="13" font-family="sans-serif" text-anchor="middle">Banded Hip Flexion</text>
<text x="200" y="58" fill="#666" font-size="10" font-family="sans-serif" text-anchor="middle">Stand with band around ankle, drive knee upward, return.</text>
<g stroke="#555" stroke-width="2" fill="none" stroke-linecap="round" stroke-linejoin="round" opacity="0.25">
  <circle cx="200" cy="73" r="10" fill="#444" stroke="none"/>
  <line x1="200" y1="73" x2="200" y2="81"/><line x1="200" y1="81" x2="200" y2="89"/><line x1="200" y1="89" x2="200" y2="113"/><line x1="200" y1="89" x2="182" y2="99"/><line x1="182" y1="99" x2="174" y2="111"/><line x1="200" y1="89" x2="218" y2="99"/><line x1="218" y1="99" x2="226" y2="111"/><line x1="200" y1="113" x2="195" y2="170"/><line x1="195" y1="170" x2="190" y2="222"/><line x1="200" y1="113" x2="205" y2="170"/><line x1="205" y1="170" x2="210" y2="222"/>
</g>
<g stroke="#FFF" stroke-width="4" fill="none" stroke-linecap="round" stroke-linejoin="round">
  <circle cx="200" cy="73" r="10" fill="#FFF" stroke="none"/>
  <line x1="200" y1="73" x2="200" y2="81"/><line x1="200" y1="81" x2="200" y2="89"/><line x1="200" y1="89" x2="200" y2="113"/><line x1="200" y1="89" x2="182" y2="99"/><line x1="182" y1="99" x2="174" y2="111"/><line x1="200" y1="89" x2="218" y2="99"/><line x1="218" y1="99" x2="226" y2="111"/><line x1="200" y1="113" x2="195" y2="170"/><line x1="195" y1="170" x2="190" y2="222"/><line x1="200" y1="113" x2="208.6" y2="148.7"/><line x1="208.6" y1="148.7" x2="213.6" y2="193.6"/>
  <line x1="200" y1="113" x2="208.6" y2="148.7" stroke="#FF9500" stroke-width="5" opacity="0.6"/><line x1="208.6" y1="148.7" x2="213.6" y2="193.6" stroke="#FF9500" stroke-width="5" opacity="0.6"/>
</g>
<line x1="208.55324074074073" y1="143.68055555555554" x2="218.55324074074073" y2="143.68055555555554" stroke="#FF9500" stroke-width="2" stroke-dasharray="4,3"/><polygon points="218.55324074074073,138.68055555555554 228.55324074074073,143.68055555555554 218.55324074074073,148.68055555555554" fill="#FF9500"/><text x="213.55324074074073" y="98" fill="#FF9500" font-size="10" text-anchor="middle" font-family="sans-serif">Drive</text>
</svg>