<svg xmlns="http://www.w3.org/2000/svg" viewBox="0 0 400 300">
<rect width="400" height="300" fill="#0f0f1a"/>
<line x1="20" y1="225" x2="380" y2="225" stroke="#444" stroke-width="3" stroke-linecap="round"/>
<text x="200" y="38" fill="#888" font-size="13" font-family="sans-serif" text-anchor="middle">Wall Sits</text>
<text x="200" y="58" fill="#666" font-size="10" font-family="sans-serif" text-anchor="middle"><tspan x="200" dy="0">Lean back against wall, slide down until knees at 90</tspan><tspan x="200" dy="14">degrees, hold.</tspan></text>
<g stroke="#555" stroke-width="2" fill="none" stroke-linecap="round" stroke-linejoin="round" opacity="0.25">
  <circle cx="200" cy="73" r="10" fill="#444" stroke="none"/>
  <line x1="200" y1="73" x2="200" y2="81"/><line x1="200" y1="81" x2="200" y2="89"/><line x1="200" y1="89" x2="200" y2="113"/><line x1="200" y1="89" x2="182" y2="99"/><line x1="182" y1="99" x2="174" y2="111"/><line x1="200" y1="89" x2="218" y2="99"/><line x1="218" y1="99" x2="226" y2="111"/><line x1="200" y1="113" x2="195" y2="170"/><line x1="195" y1="170" x2="190" y2="222"/><line x1="200" y1="113" x2="205" y2="170"/><line x1="205" y1="170" x2="210" y2="222"/>
</g>
<g stroke="#FFF" stroke-width="4" fill="none" stroke-linecap="round" stroke-linejoin="round">
  <circle cx="200.6" cy="75.7" r="10" fill="#FFF" stroke="none"/>
  <line x1="200.6" y1="75.7" x2="200.6" y2="84.1"/><line x1="200.6" y1="84.1" x2="201.1" y2="93.2"/><line x1="201.1" y1="93.2" x2="202.1" y2="119.3"/><line x1="201.1" y1="93.2" x2="182" y2="100"/><line x1="182" y1="100" x2="174" y2="112"/><line x1="201.1" y1="93.2" x2="218" y2="100"/><line x1="218" y1="100" x2="226" y2="112"/><line x1="202.1" y1="119.3" x2="197.1" y2="173.1"/><line x1="197.1" y1="173.1" x2="193.2" y2="223"/><line x1="202.1" y1="119.3" x2="207.1" y2="173.1"/><line x1="207.1" y1="173.1" x2="213.2" y2="223"/>
  <line x1="202.1" y1="119.3" x2="197.1" y2="173.1" stroke="#FF6B6B" stroke-width="5" opacity="0.6"/><line x1="202.1" y1="119.3" x2="207.1" y2="173.1" stroke="#FF6B6B" stroke-width="5" opacity="0.6"/>
</g>
<text x="227.1" y="129.3" fill="#FF6B6B" font-size="10" font-family="sans-serif">Slide down</text>
</svg>