<svg xmlns="http://www.w3.org/2000/svg" viewBox="0 0 400 300">
<rect width="400" height="300" fill="#0f0f1a"/>
<line x1="20" y1="270" x2="380" y2="270" stroke="#444" stroke-width="3" stroke-linecap="round"/>
<text x="200" y="23" fill="#888" font-size="12" font-family="sans-serif" text-anchor="middle">Wall Sits</text>
<text x="200" y="38" fill="#666" font-size="10" font-family="sans-serif" text-anchor="middle">Lean back against wall, slide down until knees at 90 degrees, hold</text>
<g stroke="#555" stroke-width="2" fill="none" stroke-linecap="round" stroke-linejoin="round" opacity="0.25">
  <circle cx="60" cy="30" r="13" fill="#444" stroke="none"/>
  <line x1="60" y1="30" x2="60" y2="50"/><line x1="60" y1="50" x2="60" y2="65"/><line x1="60" y1="65" x2="60" y2="130"/><line x1="60" y1="65" x2="40" y2="80"/><line x1="40" y1="80" x2="30" y2="95"/><line x1="60" y1="65" x2="80" y2="80"/><line x1="80" y1="80" x2="90" y2="95"/><line x1="60" y1="130" x2="60" y2="185"/><line x1="60" y1="185" x2="60" y2="270"/><line x1="60" y1="130" x2="60" y2="185"/><line x1="60" y1="185" x2="60" y2="270"/>
</g>
<g stroke="#FFF" stroke-width="4" fill="none" stroke-linecap="round" stroke-linejoin="round">
  <circle cx="62.9" cy="37.9" r="13" fill="#FFF" stroke="none"/>
  <line x1="62.9" y1="37.9" x2="62.9" y2="59.8"/><line x1="62.9" y1="59.8" x2="64.9" y2="79.7"/><line x1="64.9" y1="79.7" x2="69.8" y2="154.5"/><line x1="64.9" y1="79.7" x2="40" y2="80"/><line x1="40" y1="80" x2="30" y2="95"/><line x1="64.9" y1="79.7" x2="80" y2="80"/><line x1="80" y1="80" x2="90" y2="95"/><line x1="69.8" y1="154.5" x2="69.8" y2="194.8"/><line x1="69.8" y1="194.8" x2="74.7" y2="269"/><line x1="69.8" y1="154.5" x2="69.8" y2="194.8"/><line x1="69.8" y1="194.8" x2="74.7" y2="269"/>
  <line x1="69.8" y1="154.5" x2="69.8" y2="194.8" stroke="#FF6B6B" stroke-width="5" opacity="0.6"/><line x1="69.8" y1="154.5" x2="69.8" y2="194.8" stroke="#FF6B6B" stroke-width="5" opacity="0.6"/>
</g>

</svg>