<svg xmlns="http://www.w3.org/2000/svg" viewBox="0 0 400 300">
<rect width="400" height="300" fill="#0f0f1a"/>
<line x1="20" y1="260" x2="380" y2="260" stroke="#444" stroke-width="3" stroke-linecap="round"/>
<text x="200" y="23" fill="#888" font-size="12" font-family="sans-serif" text-anchor="middle">Bridge</text>
<text x="200" y="38" fill="#666" font-size="10" font-family="sans-serif" text-anchor="middle">Lie on back, lift hips up, hold, lower</text>
<g stroke="#555" stroke-width="2" fill="none" stroke-linecap="round" stroke-linejoin="round" opacity="0.25">
  <circle cx="100" cy="253" r="12" fill="#444" stroke="none"/>
  <line x1="100" y1="253" x2="112" y2="255"/><line x1="112" y1="255" x2="125" y2="257"/><line x1="125" y1="257" x2="170" y2="260"/><line x1="125" y1="257" x2="108" y2="215"/><line x1="108" y1="215" x2="98" y2="195"/><line x1="125" y1="257" x2="142" y2="215"/><line x1="142" y1="215" x2="152" y2="195"/><line x1="170" y1="260" x2="205" y2="210"/><line x1="205" y1="210" x2="220" y2="258"/><line x1="170" y1="260" x2="190" y2="210"/><line x1="190" y1="210" x2="205" y2="258"/>
</g>
<g stroke="#FFF" stroke-width="4" fill="none" stroke-linecap="round" stroke-linejoin="round">
  <circle cx="100" cy="251.6" r="12" fill="#FFF" stroke="none"/>
  <line x1="100" y1="251.6" x2="112" y2="252.2"/><line x1="112" y1="252.2" x2="125" y2="250.3"/><line x1="125" y1="250.3" x2="170" y2="240.7"/><line x1="125" y1="250.3" x2="108" y2="215"/><line x1="108" y1="215" x2="98" y2="195"/><line x1="125" y1="250.3" x2="142" y2="215"/><line x1="142" y1="215" x2="152" y2="195"/><line x1="170" y1="240.7" x2="202.2" y2="203"/><line x1="202.2" y1="203" x2="218.9" y2="257.3"/><line x1="170" y1="240.7" x2="187.2" y2="203"/><line x1="187.2" y1="203" x2="203.9" y2="257.3"/>
  <line x1="112" y1="252.2" x2="125" y2="250.3" stroke="#FF9500" stroke-width="5" opacity="0.6"/><line x1="125" y1="250.3" x2="170" y2="240.7" stroke="#FF9500" stroke-width="5" opacity="0.6"/>
</g>
<line x1="118" y1="undefined" x2="118" y2="undefined" stroke="#FFD93D" stroke-width="2" stroke-dasharray="4,3"/><polygon points="118,NaN 128,undefined 118,NaN" fill="#FFD93D"/><text x="118" y="-37" fill="#FFD93D" font-size="10" text-anchor="middle" font-family="sans-serif">Lift</text>
</svg>