<svg xmlns="http://www.w3.org/2000/svg" viewBox="0 0 400 300">
<rect width="400" height="300" fill="#0f0f1a"/>
<line x1="20" y1="260" x2="380" y2="260" stroke="#444" stroke-width="3" stroke-linecap="round"/>
<text x="200" y="38" fill="#888" font-size="13" font-family="sans-serif" text-anchor="middle">Bridge</text>
<text x="200" y="58" fill="#666" font-size="10" font-family="sans-serif" text-anchor="middle"><tspan x="200" dy="0">Lie on back, knees bent feet flat; lift hips by driving</tspan><tspan x="200" dy="14">through heels, squeeze glutes at top, lower with</tspan><tspan x="200" dy="14">control.</tspan></text>
<g stroke="#555" stroke-width="2" fill="none" stroke-linecap="round" stroke-linejoin="round" opacity="0.25">
  <circle cx="160" cy="253" r="12" fill="#444" stroke="none"/>
  <line x1="160" y1="253" x2="172" y2="255"/><line x1="172" y1="255" x2="185" y2="257"/><line x1="185" y1="257" x2="230" y2="260"/><line x1="185" y1="257" x2="168" y2="215"/><line x1="168" y1="215" x2="158" y2="195"/><line x1="185" y1="257" x2="202" y2="215"/><line x1="202" y1="215" x2="212" y2="195"/><line x1="230" y1="260" x2="265" y2="210"/><line x1="265" y1="210" x2="280" y2="258"/><line x1="230" y1="260" x2="250" y2="210"/><line x1="250" y1="210" x2="265" y2="258"/>
</g>
<g stroke="#FFF" stroke-width="4" fill="none" stroke-linecap="round" stroke-linejoin="round">
  <circle cx="160" cy="251.8" r="12" fill="#FFF" stroke="none"/>
  <line x1="160" y1="251.8" x2="172" y2="252.7"/><line x1="172" y1="252.7" x2="185" y2="251.5"/><line x1="185" y1="251.5" x2="230" y2="244.1"/><line x1="185" y1="251.5" x2="168" y2="215"/><line x1="168" y1="215" x2="158" y2="195"/><line x1="185" y1="251.5" x2="202" y2="215"/><line x1="202" y1="215" x2="212" y2="195"/><line x1="230" y1="244.1" x2="262.7" y2="204.2"/><line x1="262.7" y1="204.2" x2="279.1" y2="257.4"/><line x1="230" y1="244.1" x2="247.7" y2="204.2"/><line x1="247.7" y1="204.2" x2="264.1" y2="257.4"/>
  <line x1="172" y1="252.7" x2="185" y2="251.5" stroke="#FF9500" stroke-width="5" opacity="0.6"/><line x1="185" y1="251.5" x2="230" y2="244.1" stroke="#FF9500" stroke-width="5" opacity="0.6"/>
</g>
<text x="250" y="209.1" fill="#FFD93D" font-size="10" font-family="sans-serif">Lift hips</text>
</svg>