<svg xmlns="http://www.w3.org/2000/svg" viewBox="0 0 400 300">
<rect width="400" height="300" fill="#0f0f1a"/>
<line x1="20" y1="225" x2="380" y2="225" stroke="#444" stroke-width="3" stroke-linecap="round"/>
<text x="200" y="38" fill="#888" font-size="13" font-family="sans-serif" text-anchor="middle">Lateral Step-Overs</text>
<text x="200" y="58" fill="#666" font-size="10" font-family="sans-serif" text-anchor="middle">Step sideways over low obstacle, alternate directions.</text>
<g stroke="#555" stroke-width="2" fill="none" stroke-linecap="round" stroke-linejoin="round" opacity="0.25">
  <circle cx="200" cy="73" r="10" fill="#444" stroke="none"/>
  <line x1="200" y1="73" x2="200" y2="81"/><line x1="200" y1="81" x2="200" y2="89"/><line x1="200" y1="89" x2="200" y2="113"/><line x1="200" y1="89" x2="182" y2="99"/><line x1="182" y1="99" x2="174" y2="111"/><line x1="200" y1="89" x2="218" y2="99"/><line x1="218" y1="99" x2="226" y2="111"/><line x1="200" y1="113" x2="195" y2="170"/><line x1="195" y1="170" x2="190" y2="222"/><line x1="200" y1="113" x2="205" y2="170"/><line x1="205" y1="170" x2="210" y2="222"/>
</g>
<g stroke="#FFF" stroke-width="4" fill="none" stroke-linecap="round" stroke-linejoin="round">
  <circle cx="200" cy="73" r="10" fill="#FFF" stroke="none"/>
  <line x1="200" y1="73" x2="200" y2="81"/><line x1="200" y1="81" x2="200" y2="89"/><line x1="200" y1="89" x2="200.3" y2="113.1"/><line x1="200" y1="89" x2="182" y2="99"/><line x1="182" y1="99" x2="174" y2="111"/><line x1="200" y1="89" x2="218" y2="99"/><line x1="218" y1="99" x2="226" y2="111"/><line x1="200.3" y1="113.1" x2="195" y2="170"/><line x1="195" y1="170" x2="190" y2="222"/><line x1="200.3" y1="113.1" x2="206.6" y2="170.3"/><line x1="206.6" y1="170.3" x2="212.2" y2="222.6"/>
  <line x1="200.3" y1="113.1" x2="206.6" y2="170.3" stroke="#22C55E" stroke-width="5" opacity="0.6"/><line x1="206.6" y1="170.3" x2="212.2" y2="222.6" stroke="#22C55E" stroke-width="5" opacity="0.6"/>
</g>
<line x1="212.1875" y1="227.625" x2="262.1875" y2="227.625" stroke="#22C55E" stroke-width="2" stroke-dasharray="4,3"/><polygon points="262.1875,222.625 272.1875,227.625 262.1875,232.625" fill="#22C55E"/><text x="237.1875" y="173" fill="#22C55E" font-size="10" text-anchor="middle" font-family="sans-serif">Step</text>
</svg>