<svg xmlns="http://www.w3.org/2000/svg" viewBox="0 0 400 300">
<rect width="400" height="300" fill="#0f0f1a"/>
<line x1="20" y1="225" x2="380" y2="225" stroke="#444" stroke-width="3" stroke-linecap="round"/>
<text x="200" y="38" fill="#888" font-size="13" font-family="sans-serif" text-anchor="middle">Lateral Step-Overs</text>
<text x="200" y="58" fill="#666" font-size="10" font-family="sans-serif" text-anchor="middle">Step sideways over low obstacle, alternate directions.</text>
<g stroke="#555" stroke-width="2" fill="none" stroke-linecap="round" stroke-linejoin="round" opacity="0.25">
  <circle cx="200" cy="73" r="10" fill="#444" stroke="none"/>
  <line x1="200" y1="73" x2="200" y2="81"/><line x1="200" y1="81" x2="200" y2="89"/><line x1="200" y1="89" x2="200" y2="113"/><line x1="200" y1="89" x2="182" y2="99"/><line x1="182" y1="99" x2="174" y2="111"/><line x1="200" y1="89" x2="218" y2="99"/><line x1="218" y1="99" x2="226" y2="111"/><line x1="200" y1="113" x2="195" y2="170"/><line x1="195" y1="170" x2="190" y2="222"/><line x1="200" y1="113" x2="205" y2="170"/><line x1="205" y1="170" x2="210" y2="222"/>
</g>
<g stroke="#FFF" stroke-width="4" fill="none" stroke-linecap="round" stroke-linejoin="round">
  <circle cx="200" cy="73" r="10" fill="#FFF" stroke="none"/>
  <line x1="200" y1="73" x2="200" y2="81"/><line x1="200" y1="81" x2="200" y2="89"/><line x1="200" y1="89" x2="202.1" y2="113.8"/><line x1="200" y1="89" x2="182" y2="99"/><line x1="182" y1="99" x2="174" y2="111"/><line x1="200" y1="89" x2="218" y2="99"/><line x1="218" y1="99" x2="226" y2="111"/><line x1="202.1" y1="113.8" x2="195" y2="170"/><line x1="195" y1="170" x2="190" y2="222"/><line x1="202.1" y1="113.8" x2="215.5" y2="172.1"/><line x1="215.5" y1="172.1" x2="224.7" y2="224"/>
  <line x1="202.1" y1="113.8" x2="215.5" y2="172.1" stroke="#22C55E" stroke-width="5" opacity="0.6"/><line x1="215.5" y1="172.1" x2="224.7" y2="224" stroke="#22C55E" stroke-width="5" opacity="0.6"/>
</g>
<line x1="224.74236968449932" y1="229" x2="274.7423696844993" y2="229" stroke="#22C55E" stroke-width="2" stroke-dasharray="4,3"/><polygon points="274.7423696844993,224 284.7423696844993,229 274.7423696844993,234" fill="#22C55E"/><text x="249.7423696844993" y="173" fill="#22C55E" font-size="10" text-anchor="middle" font-family="sans-serif">Step</text>
</svg>