<svg xmlns="http://www.w3.org/2000/svg" viewBox="0 0 400 300">
<rect width="400" height="300" fill="#0f0f1a"/>
<line x1="20" y1="225" x2="380" y2="225" stroke="#444" stroke-width="3" stroke-linecap="round"/>
<text x="200" y="38" fill="#888" font-size="13" font-family="sans-serif" text-anchor="middle">Tandem Walk</text>
<text x="200" y="58" fill="#666" font-size="10" font-family="sans-serif" text-anchor="middle"><tspan x="200" dy="0">Walk in straight line, placing heel directly in front</tspan><tspan x="200" dy="14">of toes.</tspan></text>
<g stroke="#555" stroke-width="2" fill="none" stroke-linecap="round" stroke-linejoin="round" opacity="0.25">
  <circle cx="200" cy="73" r="10" fill="#444" stroke="none"/>
  <line x1="200" y1="73" x2="200" y2="81"/><line x1="200" y1="81" x2="200" y2="89"/><line x1="200" y1="89" x2="200" y2="113"/><line x1="200" y1="89" x2="182" y2="99"/><line x1="182" y1="99" x2="174" y2="111"/><line x1="200" y1="89" x2="218" y2="99"/><line x1="218" y1="99" x2="226" y2="111"/><line x1="200" y1="113" x2="195" y2="170"/><line x1="195" y1="170" x2="190" y2="222"/><line x1="200" y1="113" x2="205" y2="170"/><line x1="205" y1="170" x2="210" y2="222"/>
</g>
<g stroke="#FFF" stroke-width="4" fill="none" stroke-linecap="round" stroke-linejoin="round">
  <circle cx="200" cy="73" r="10" fill="#FFF" stroke="none"/>
  <line x1="200" y1="73" x2="200" y2="81"/><line x1="200" y1="81" x2="200" y2="89"/><line x1="200" y1="89" x2="202.9" y2="111.8"/><line x1="200" y1="89" x2="182" y2="99"/><line x1="182" y1="99" x2="174" y2="111"/><line x1="200" y1="89" x2="218" y2="99"/><line x1="218" y1="99" x2="226" y2="111"/><line x1="202.9" y1="111.8" x2="197.9" y2="167.1"/><line x1="197.9" y1="167.1" x2="192.9" y2="222"/><line x1="202.9" y1="111.8" x2="216.6" y2="167.1"/><line x1="216.6" y1="167.1" x2="227.4" y2="222"/>
  <line x1="202.9" y1="111.8" x2="216.6" y2="167.1" stroke="#22C55E" stroke-width="5" opacity="0.6"/><line x1="216.6" y1="167.1" x2="227.4" y2="222" stroke="#22C55E" stroke-width="5" opacity="0.6"/>
</g>
<line x1="192.89394718792866" y1="227" x2="242.89394718792866" y2="227" stroke="#22C55E" stroke-width="2" stroke-dasharray="4,3"/><polygon points="242.89394718792866,222 252.89394718792866,227 242.89394718792866,232" fill="#22C55E"/><text x="217.89394718792866" y="193" fill="#22C55E" font-size="10" text-anchor="middle" font-family="sans-serif">Step fwd</text>
</svg>