<svg xmlns="http://www.w3.org/2000/svg" viewBox="0 0 400 300">
<rect width="400" height="300" fill="#0f0f1a"/>
<line x1="20" y1="225" x2="380" y2="225" stroke="#444" stroke-width="3" stroke-linecap="round"/>
<text x="200" y="38" fill="#888" font-size="13" font-family="sans-serif" text-anchor="middle">Tandem Walk</text>
<text x="200" y="58" fill="#666" font-size="10" font-family="sans-serif" text-anchor="middle"><tspan x="200" dy="0">Walk in straight line, placing heel directly in front</tspan><tspan x="200" dy="14">of toes.</tspan></text>
<g stroke="#555" stroke-width="2" fill="none" stroke-linecap="round" stroke-linejoin="round" opacity="0.25">
  <circle cx="200" cy="73" r="10" fill="#444" stroke="none"/>
  <line x1="200" y1="73" x2="200" y2="81"/><line x1="200" y1="81" x2="200" y2="89"/><line x1="200" y1="89" x2="200" y2="113"/><line x1="200" y1="89" x2="182" y2="99"/><line x1="182" y1="99" x2="174" y2="111"/><line x1="200" y1="89" x2="218" y2="99"/><line x1="218" y1="99" x2="226" y2="111"/><line x1="200" y1="113" x2="195" y2="170"/><line x1="195" y1="170" x2="190" y2="222"/><line x1="200" y1="113" x2="205" y2="170"/><line x1="205" y1="170" x2="210" y2="222"/>
</g>
<g stroke="#FFF" stroke-width="4" fill="none" stroke-linecap="round" stroke-linejoin="round">
  <circle cx="200" cy="73" r="10" fill="#FFF" stroke="none"/>
  <line x1="200" y1="73" x2="200" y2="81"/><line x1="200" y1="81" x2="200" y2="89"/><line x1="200" y1="89" x2="203.8" y2="111.5"/><line x1="200" y1="89" x2="182" y2="99"/><line x1="182" y1="99" x2="174" y2="111"/><line x1="200" y1="89" x2="218" y2="99"/><line x1="218" y1="99" x2="226" y2="111"/><line x1="203.8" y1="111.5" x2="210.3" y2="166.2"/><line x1="210.3" y1="166.2" x2="212.9" y2="222"/><line x1="203.8" y1="111.5" x2="208.8" y2="166.2"/><line x1="208.8" y1="166.2" x2="213.8" y2="222"/>
  <line x1="203.8" y1="111.5" x2="210.3" y2="166.2" stroke="#22C55E" stroke-width="5" opacity="0.6"/><line x1="210.3" y1="166.2" x2="212.9" y2="222" stroke="#22C55E" stroke-width="5" opacity="0.6"/>
</g>
<line x1="212.9423868312757" y1="227" x2="262.9423868312757" y2="227" stroke="#22C55E" stroke-width="2" stroke-dasharray="4,3"/><polygon points="262.9423868312757,222 272.9423868312757,227 262.9423868312757,232" fill="#22C55E"/><text x="237.9423868312757" y="193" fill="#22C55E" font-size="10" text-anchor="middle" font-family="sans-serif">Step fwd</text>
</svg>