<svg xmlns="http://www.w3.org/2000/svg" viewBox="0 0 400 300">
<rect width="400" height="300" fill="#0f0f1a"/>
<line x1="20" y1="225" x2="380" y2="225" stroke="#444" stroke-width="3" stroke-linecap="round"/>
<text x="200" y="38" fill="#888" font-size="13" font-family="sans-serif" text-anchor="middle">Banded Walks</text>
<text x="200" y="58" fill="#666" font-size="10" font-family="sans-serif" text-anchor="middle">Slight squat position, step to the side, keep tension</text>
<g stroke="#555" stroke-width="2" fill="none" stroke-linecap="round" stroke-linejoin="round" opacity="0.25">
  <circle cx="200" cy="73" r="10" fill="#444" stroke="none"/>
  <line x1="200" y1="73" x2="200" y2="81"/><line x1="200" y1="81" x2="200" y2="89"/><line x1="200" y1="89" x2="200" y2="113"/><line x1="200" y1="89" x2="182" y2="99"/><line x1="182" y1="99" x2="174" y2="111"/><line x1="200" y1="89" x2="218" y2="99"/><line x1="218" y1="99" x2="226" y2="111"/><line x1="200" y1="113" x2="195" y2="170"/><line x1="195" y1="170" x2="190" y2="222"/><line x1="200" y1="113" x2="205" y2="170"/><line x1="205" y1="170" x2="210" y2="222"/>
</g>
<g stroke="#FFF" stroke-width="4" fill="none" stroke-linecap="round" stroke-linejoin="round">
  <circle cx="200" cy="73" r="10" fill="#FFF" stroke="none"/>
  <line x1="200" y1="73" x2="200" y2="81"/><line x1="200" y1="81" x2="200" y2="89"/><line x1="200" y1="89" x2="200" y2="112.6"/><line x1="200" y1="89" x2="182" y2="99"/><line x1="182" y1="99" x2="174" y2="111"/><line x1="200" y1="89" x2="218" y2="99"/><line x1="218" y1="99" x2="226" y2="111"/><line x1="200" y1="112.6" x2="195" y2="169.6"/><line x1="195" y1="169.6" x2="190" y2="221.6"/><line x1="200" y1="112.6" x2="205" y2="169.6"/><line x1="205" y1="169.6" x2="210" y2="221.6"/>
  <line x1="200" y1="112.6" x2="195" y2="169.6" stroke="#FFD93D" stroke-width="5" opacity="0.6"/><line x1="200" y1="112.6" x2="205" y2="169.6" stroke="#FFD93D" stroke-width="5" opacity="0.6"/>
</g>
<line x1="280" y1="200" x2="320" y2="200" stroke="#FFD93D" stroke-width="2" stroke-dasharray="4,3"/><polygon points="320,195 330,200 320,205" fill="#FFD93D"/><text x="300" y="193" fill="#FFD93D" font-size="10" text-anchor="middle" font-family="sans-serif">Step</text>
</svg>