<svg xmlns="http://www.w3.org/2000/svg" viewBox="0 0 400 300">
<rect width="400" height="300" fill="#0f0f1a"/>
<line x1="20" y1="260" x2="380" y2="260" stroke="#444" stroke-width="3" stroke-linecap="round"/>
<text x="200" y="38" fill="#888" font-size="13" font-family="sans-serif" text-anchor="middle">Cat-Cow</text>
<text x="200" y="58" fill="#666" font-size="10" font-family="sans-serif" text-anchor="middle">On hands and knees, inhale to arch/drop belly (Cow), exhale to round spine (Cat); move with breath.</text>
<g stroke="#555" stroke-width="2" fill="none" stroke-linecap="round" stroke-linejoin="round" opacity="0.25">
  <circle cx="160" cy="253" r="12" fill="#444" stroke="none"/>
  <line x1="160" y1="253" x2="172" y2="255"/><line x1="172" y1="255" x2="185" y2="257"/><line x1="185" y1="257" x2="230" y2="260"/><line x1="185" y1="257" x2="168" y2="215"/><line x1="168" y1="215" x2="158" y2="195"/><line x1="185" y1="257" x2="202" y2="215"/><line x1="202" y1="215" x2="212" y2="195"/><line x1="230" y1="260" x2="265" y2="210"/><line x1="265" y1="210" x2="280" y2="258"/><line x1="230" y1="260" x2="250" y2="210"/><line x1="250" y1="210" x2="265" y2="258"/>
</g>
<g stroke="#FFF" stroke-width="4" fill="none" stroke-linecap="round" stroke-linejoin="round">
  <circle cx="160" cy="253" r="12" fill="#FFF" stroke="none"/>
  <line x1="160" y1="253" x2="172" y2="255"/><line x1="172" y1="255" x2="185" y2="257"/><line x1="185" y1="257" x2="230" y2="259"/><line x1="185" y1="257" x2="168" y2="215"/><line x1="168" y1="215" x2="158" y2="195"/><line x1="185" y1="257" x2="202" y2="215"/><line x1="202" y1="215" x2="212" y2="195"/><line x1="230" y1="259" x2="348.9" y2="215"/><line x1="348.9" y1="215" x2="379.9" y2="259"/><line x1="230" y1="259" x2="250" y2="210"/><line x1="250" y1="210" x2="265" y2="258"/>
  <line x1="230" y1="259" x2="348.9" y2="215" stroke="#FF6B6B" stroke-width="5" opacity="0.6"/><line x1="348.9" y1="215" x2="379.9" y2="259" stroke="#FF6B6B" stroke-width="5" opacity="0.6"/>
</g>
<path d="M 275 258 Q 300 230 325 258" stroke="#FFD93D" stroke-width="2" fill="none" stroke-dasharray="4,3"/><text x="300" y="226" fill="#FFD93D" font-size="10" text-anchor="middle" font-family="sans-serif">Arch (Cow)</text><path d="M 275 233 Q 300 255 325 233" stroke="#FFD93D" stroke-width="2" fill="none" stroke-dasharray="4,3"/><text x="300" y="251" fill="#FFD93D" font-size="10" text-anchor="middle" font-family="sans-serif">Round (Cat)</text>
</svg>