<svg xmlns="http://www.w3.org/2000/svg" viewBox="0 0 400 300">
<rect width="400" height="300" fill="#0f0f1a"/>
<line x1="20" y1="190" x2="380" y2="190" stroke="#444" stroke-width="3" stroke-linecap="round"/>
<text x="200" y="38" fill="#888" font-size="13" font-family="sans-serif" text-anchor="middle">Thread the Needle</text>
<text x="200" y="58" fill="#666" font-size="10" font-family="sans-serif" text-anchor="middle">On all fours, reach one arm under body to opposite side, rotate.</text>
<g stroke="#555" stroke-width="2" fill="none" stroke-linecap="round" stroke-linejoin="round" opacity="0.25">
  <circle cx="175" cy="73" r="10" fill="#444" stroke="none"/>
  <line x1="175" y1="73" x2="186" y2="76"/><line x1="186" y1="76" x2="200" y2="87"/><line x1="200" y1="87" x2="240" y2="110"/><line x1="200" y1="87" x2="170" y2="189"/><line x1="240" y1="110" x2="245" y2="145"/><line x1="245" y1="145" x2="255" y2="189"/>
</g>
<g stroke="#FFF" stroke-width="4" fill="none" stroke-linecap="round" stroke-linejoin="round">
  <circle cx="165.9" cy="82.1" r="10" fill="#FFF" stroke="none"/>
  <line x1="165.9" y1="82.1" x2="178.7" y2="85.1"/><line x1="178.7" y1="85.1" x2="204.6" y2="100.7"/><line x1="204.6" y1="100.7" x2="232.7" y2="114.6"/><line x1="204.6" y1="100.7" x2="202" y2="189"/><line x1="232.7" y1="114.6" x2="249.6" y2="140.4"/><line x1="249.6" y1="140.4" x2="264.1" y2="184.4"/>
  <line x1="204.6" y1="100.7" x2="202" y2="189" stroke="#22C55E" stroke-width="5" opacity="0.6"/>
</g>
<text x="217" y="204" fill="#22C55E" font-size="10" font-family="sans-serif">Thread</text>
</svg>