<svg xmlns="http://www.w3.org/2000/svg" viewBox="0 0 400 300">
<rect width="400" height="300" fill="#0f0f1a"/>
<line x1="20" y1="260" x2="380" y2="260" stroke="#444" stroke-width="3" stroke-linecap="round"/>
<text x="200" y="23" fill="#888" font-size="12" font-family="sans-serif" text-anchor="middle">Supermans</text>
<text x="200" y="38" fill="#666" font-size="10" font-family="sans-serif" text-anchor="middle">Lie face down, lift arms, chest, and legs off floor simultaneously</text>
<g stroke="#555" stroke-width="2" fill="none" stroke-linecap="round" stroke-linejoin="round" opacity="0.25">
  <circle cx="60" cy="253" r="12" fill="#444" stroke="none"/>
  <line x1="60" y1="253" x2="78" y2="255"/><line x1="78" y1="255" x2="95" y2="257"/><line x1="95" y1="257" x2="155" y2="258"/><line x1="95" y1="257" x2="85" y2="235"/><line x1="85" y1="235" x2="75" y2="230"/><line x1="95" y1="257" x2="110" y2="235"/><line x1="110" y1="235" x2="120" y2="230"/><line x1="155" y1="258" x2="200" y2="258"/><line x1="200" y1="258" x2="230" y2="258"/><line x1="155" y1="258" x2="195" y2="258"/><line x1="195" y1="258" x2="225" y2="258"/>
</g>
<g stroke="#FFF" stroke-width="4" fill="none" stroke-linecap="round" stroke-linejoin="round">
  <circle cx="60" cy="247.2" r="12" fill="#FFF" stroke="none"/>
  <line x1="60" y1="247.2" x2="78" y2="250.4"/><line x1="78" y1="250.4" x2="95" y2="253.5"/><line x1="95" y1="253.5" x2="155" y2="258"/><line x1="95" y1="253.5" x2="83.3" y2="229.2"/><line x1="83.3" y1="229.2" x2="72.1" y2="221.3"/><line x1="95" y1="253.5" x2="111.7" y2="229.2"/><line x1="111.7" y1="229.2" x2="122.9" y2="221.3"/><line x1="155" y1="258" x2="200" y2="258"/><line x1="200" y1="258" x2="231.7" y2="252.2"/><line x1="155" y1="258" x2="195" y2="258"/><line x1="195" y1="258" x2="223.3" y2="252.2"/>
  <line x1="78" y1="250.4" x2="95" y2="253.5" stroke="#22C55E" stroke-width="5" opacity="0.6"/><line x1="95" y1="253.5" x2="155" y2="258" stroke="#22C55E" stroke-width="5" opacity="0.6"/>
</g>

</svg>