<svg xmlns="http://www.w3.org/2000/svg" viewBox="0 0 400 300">
<rect width="400" height="300" fill="#0f0f1a"/>
<line x1="20" y1="225" x2="380" y2="225" stroke="#444" stroke-width="3" stroke-linecap="round"/>
<text x="200" y="38" fill="#888" font-size="13" font-family="sans-serif" text-anchor="middle">Pendulum Swings</text>
<text x="200" y="58" fill="#666" font-size="10" font-family="sans-serif" text-anchor="middle"><tspan x="200" dy="0">Bend forward, let arm hang, swing in circles, switch</tspan><tspan x="200" dy="14">directions.</tspan></text>
<g stroke="#555" stroke-width="2" fill="none" stroke-linecap="round" stroke-linejoin="round" opacity="0.25">
  <circle cx="195" cy="88" r="10" fill="#444" stroke="none"/>
  <line x1="195" y1="88" x2="195" y2="101"/><line x1="195" y1="101" x2="195" y2="109"/><line x1="195" y1="109" x2="195" y2="123"/><line x1="195" y1="109" x2="177" y2="109"/><line x1="177" y1="109" x2="164" y2="126"/><line x1="195" y1="109" x2="213" y2="109"/><line x1="213" y1="109" x2="216" y2="126"/><line x1="195" y1="123" x2="195" y2="170"/><line x1="195" y1="170" x2="190" y2="222"/><line x1="195" y1="123" x2="205" y2="170"/><line x1="205" y1="170" x2="210" y2="222"/>
</g>
<g stroke="#FFF" stroke-width="4" fill="none" stroke-linecap="round" stroke-linejoin="round">
  <circle cx="195" cy="88" r="10" fill="#FFF" stroke="none"/>
  <line x1="195" y1="88" x2="195" y2="101"/><line x1="195" y1="101" x2="195" y2="109"/><line x1="195" y1="109" x2="195" y2="123"/><line x1="195" y1="109" x2="177" y2="109"/><line x1="177" y1="109" x2="164" y2="126"/><line x1="195" y1="109" x2="213" y2="109"/><line x1="213" y1="109" x2="211.1" y2="108.1"/><line x1="195" y1="123" x2="195" y2="170"/><line x1="195" y1="170" x2="190" y2="222"/><line x1="195" y1="123" x2="205" y2="170"/><line x1="205" y1="170" x2="210" y2="222"/>
  <line x1="195" y1="109" x2="213" y2="109" stroke="#FF9500" stroke-width="5" opacity="0.6"/><line x1="213" y1="109" x2="211.1" y2="108.1" stroke="#FF9500" stroke-width="5" opacity="0.6"/>
</g>
<text x="221.1" y="93.1" fill="#FF9500" font-size="10" font-family="sans-serif">Swing arm</text>
</svg>