<svg xmlns="http://www.w3.org/2000/svg" viewBox="0 0 400 300">
<rect width="400" height="300" fill="#0f0f1a"/>
<line x1="20" y1="250" x2="380" y2="250" stroke="#444" stroke-width="3" stroke-linecap="round"/>
<text x="200" y="38" fill="#888" font-size="13" font-family="sans-serif" text-anchor="middle">Pigeon Pose</text>
<text x="200" y="58" fill="#666" font-size="10" font-family="sans-serif" text-anchor="middle">Seated with one leg bent in front, other extended back, fold forward.</text>
<g stroke="#555" stroke-width="2" fill="none" stroke-linecap="round" stroke-linejoin="round" opacity="0.25">
  <circle cx="155" cy="138" r="10" fill="#444" stroke="none"/>
  <line x1="155" y1="138" x2="155" y2="158"/><line x1="155" y1="158" x2="155" y2="173"/><line x1="155" y1="173" x2="155" y2="248"/><line x1="155" y1="173" x2="145" y2="188"/><line x1="145" y1="188" x2="140" y2="208"/><line x1="155" y1="173" x2="165" y2="188"/><line x1="165" y1="188" x2="170" y2="208"/><line x1="155" y1="248" x2="205" y2="240"/><line x1="205" y1="240" x2="215" y2="268"/><line x1="155" y1="248" x2="235" y2="235"/><line x1="235" y1="235" x2="245" y2="268"/>
</g>
<g stroke="#FFF" stroke-width="4" fill="none" stroke-linecap="round" stroke-linejoin="round">
  <circle cx="169" cy="143" r="10" fill="#FFF" stroke="none"/>
  <line x1="169" y1="143" x2="169" y2="163"/><line x1="169" y1="163" x2="167.5" y2="178"/><line x1="167.5" y1="178" x2="162.5" y2="248"/><line x1="167.5" y1="178" x2="145" y2="187"/><line x1="145" y1="187" x2="147.5" y2="211"/><line x1="167.5" y1="178" x2="165" y2="187"/><line x1="165" y1="187" x2="177.5" y2="211"/><line x1="162.5" y1="248" x2="205" y2="239"/><line x1="205" y1="239" x2="215" y2="248"/><line x1="162.5" y1="248" x2="235" y2="234"/><line x1="235" y1="234" x2="245" y2="248"/>
  <line x1="162.5" y1="248" x2="235" y2="234" stroke="#FF9500" stroke-width="5" opacity="0.6"/><line x1="235" y1="234" x2="245" y2="248" stroke="#FF9500" stroke-width="5" opacity="0.6"/>
</g>
<text x="189" y="158" fill="#FF9500" font-size="10" font-family="sans-serif">Fold</text>
</svg>