<svg xmlns="http://www.w3.org/2000/svg" viewBox="0 0 400 300">
<rect width="400" height="300" fill="#0f0f1a"/>
<line x1="20" y1="250" x2="380" y2="250" stroke="#444" stroke-width="3" stroke-linecap="round"/>
<text x="200" y="38" fill="#888" font-size="13" font-family="sans-serif" text-anchor="middle">Pigeon Pose</text>
<text x="200" y="58" fill="#666" font-size="10" font-family="sans-serif" text-anchor="middle">Seated with one leg bent in front, other extended back, fold forward</text>
<g stroke="#555" stroke-width="2" fill="none" stroke-linecap="round" stroke-linejoin="round" opacity="0.25">
  <circle cx="155" cy="60" r="10" fill="#444" stroke="none"/>
  <line x1="155" y1="60" x2="155" y2="80"/><line x1="155" y1="80" x2="155" y2="95"/><line x1="155" y1="95" x2="155" y2="170"/><line x1="155" y1="95" x2="135" y2="105"/><line x1="135" y1="105" x2="125" y2="120"/><line x1="155" y1="95" x2="175" y2="105"/><line x1="175" y1="105" x2="185" y2="120"/><line x1="155" y1="170" x2="225" y2="170"/><line x1="225" y1="170" x2="255" y2="245"/><line x1="155" y1="170" x2="205" y2="170"/><line x1="205" y1="170" x2="235" y2="245"/>
</g>
<g stroke="#FFF" stroke-width="4" fill="none" stroke-linecap="round" stroke-linejoin="round">
  <circle cx="156.8" cy="60.8" r="10" fill="#FFF" stroke="none"/>
  <line x1="156.8" y1="60.8" x2="156.8" y2="80.8"/><line x1="156.8" y1="80.8" x2="156.6" y2="95.8"/><line x1="156.6" y1="95.8" x2="155.9" y2="170.5"/><line x1="156.6" y1="95.8" x2="145" y2="110"/><line x1="145" y1="110" x2="140.9" y2="130.5"/><line x1="156.6" y1="95.8" x2="165" y2="110"/><line x1="165" y1="110" x2="170.9" y2="130.5"/><line x1="155.9" y1="170.5" x2="205" y2="175"/><line x1="205" y1="175" x2="215" y2="249"/><line x1="155.9" y1="170.5" x2="235" y2="170"/><line x1="235" y1="170" x2="245" y2="249"/>
  <line x1="155.9" y1="170.5" x2="235" y2="170" stroke="#FF9500" stroke-width="5" opacity="0.6"/><line x1="235" y1="170" x2="245" y2="249" stroke="#FF9500" stroke-width="5" opacity="0.6"/>
</g>
<text x="176.8" y="75.8" fill="#FF9500" font-size="10" font-family="sans-serif">Fold</text>
</svg>