<svg xmlns="http://www.w3.org/2000/svg" viewBox="0 0 400 300">
<rect width="400" height="300" fill="#0f0f1a"/>
<line x1="20" y1="260" x2="380" y2="260" stroke="#444" stroke-width="3" stroke-linecap="round"/>
<text x="200" y="23" fill="#888" font-size="12" font-family="sans-serif" text-anchor="middle">Dead Bugs</text>
<text x="200" y="38" fill="#666" font-size="10" font-family="sans-serif" text-anchor="middle">Lie on back, extend opposite arm & leg toward floor</text>
<!-- Ghost -->
<g stroke="#555" stroke-width="2" fill="none" stroke-linecap="round" stroke-linejoin="round" opacity="0.25">
  <circle cx="100" cy="65" r="13" fill="#444" stroke="none"/>
  <line x1="113" y1="72" x2="130" y2="90"/>
  <line x1="130" y1="90" x2="170" y2="105"/>
  <line x1="130" y1="90" x2="178" y2="60"/><line x1="178" y1="60" x2="190" y2="42"/>
  <line x1="130" y1="90" x2="82" y2="55"/><line x1="82" y1="55" x2="70" y2="38"/>
  <line x1="170" y1="105" x2="165" y2="165"/><line x1="165" y1="165" x2="155" y2="196"/>
  <line x1="170" y1="105" x2="185" y2="168"/><line x1="185" y1="168" x2="195" y2="200"/>
</g>
<!-- Active -->
<g stroke="#FFF" stroke-width="4" fill="none" stroke-linecap="round" stroke-linejoin="round">
  <circle cx="100" cy="65" r="13" fill="#FFF" stroke="none"/>
  <line x1="113" y1="72" x2="130" y2="90"/>
  <line x1="130" y1="90" x2="170" y2="105"/>
  <!-- Right arm (extends down) -->
  <line x1="130" y1="90" x2="201.85185185185185" y2="95.77777777777779"/>
  <line x1="201.85185185185185" y1="95.77777777777779" x2="225.77777777777777" y2="89.70370370370372"/>
  <!-- Left arm (stays up) -->
  <line x1="130" y1="90" x2="82" y2="55"/><line x1="82" y1="55" x2="70" y2="38"/>
  <!-- Left leg (extends down) -->
  <line x1="170" y1="105" x2="135.1851851851852" y2="194.8148148148148"/>
  <line x1="135.1851851851852" y1="194.8148148148148" x2="119.22222222222221" y2="225.8148148148148"/>
  <!-- Right leg (stays up) -->
  <line x1="170" y1="105" x2="185" y2="168"/><line x1="185" y1="168" x2="195" y2="200"/>
  <!-- Highlights -->
  <line x1="130" y1="90" x2="201.85185185185185" y2="95.77777777777779" stroke="#8B5CF6" stroke-width="5" opacity="0.6"/>
  <line x1="201.85185185185185" y1="95.77777777777779" x2="225.77777777777777" y2="89.70370370370372" stroke="#8B5CF6" stroke-width="5" opacity="0.6"/>
  <line x1="170" y1="105" x2="135.1851851851852" y2="194.8148148148148" stroke="#8B5CF6" stroke-width="5" opacity="0.6"/>
  <line x1="135.1851851851852" y1="194.8148148148148" x2="119.22222222222221" y2="225.8148148148148" stroke="#8B5CF6" stroke-width="5" opacity="0.6"/>
</g>

</svg>