<svg xmlns="http://www.w3.org/2000/svg" viewBox="0 0 400 300">
<rect width="400" height="300" fill="#0f0f1a"/>
<line x1="20" y1="260" x2="380" y2="260" stroke="#444" stroke-width="3" stroke-linecap="round"/>
<text x="200" y="38" fill="#888" font-size="13" font-family="sans-serif" text-anchor="middle">Planks</text>
<text x="200" y="58" fill="#666" font-size="10" font-family="sans-serif" text-anchor="middle">Forearm plank, body in straight line, hold</text>
<g stroke="#555" stroke-width="2" fill="none" stroke-linecap="round" stroke-linejoin="round" opacity="0.25">
  <circle cx="120" cy="253" r="12" fill="#444" stroke="none"/>
  <line x1="120" y1="253" x2="138" y2="255"/><line x1="138" y1="255" x2="155" y2="257"/><line x1="155" y1="257" x2="215" y2="258"/><line x1="155" y1="257" x2="145" y2="235"/><line x1="145" y1="235" x2="135" y2="230"/><line x1="155" y1="257" x2="170" y2="235"/><line x1="170" y1="235" x2="180" y2="230"/><line x1="215" y1="258" x2="260" y2="258"/><line x1="260" y1="258" x2="290" y2="258"/><line x1="215" y1="258" x2="255" y2="258"/><line x1="255" y1="258" x2="285" y2="258"/>
</g>
<g stroke="#FFF" stroke-width="4" fill="none" stroke-linecap="round" stroke-linejoin="round">
  <circle cx="120" cy="233" r="12" fill="#FFF" stroke="none"/>
  <line x1="120" y1="233" x2="138" y2="230"/><line x1="138" y1="230" x2="155" y2="227"/><line x1="155" y1="227" x2="215" y2="241.8"/><line x1="155" y1="227" x2="135" y2="257"/><line x1="135" y1="257" x2="110" y2="258"/><line x1="155" y1="227" x2="160" y2="257"/><line x1="160" y1="257" x2="155" y2="258"/><line x1="215" y1="241.8" x2="260" y2="258"/><line x1="260" y1="258" x2="290" y2="258"/><line x1="215" y1="241.8" x2="255" y2="258"/><line x1="255" y1="258" x2="285" y2="258"/>
  <line x1="138" y1="230" x2="155" y2="227" stroke="#22C55E" stroke-width="5" opacity="0.6"/><line x1="155" y1="227" x2="215" y2="241.8" stroke="#22C55E" stroke-width="5" opacity="0.6"/>
</g>
<text x="185" y="217" fill="#22C55E" font-size="10" font-family="sans-serif">Hold</text>
</svg>