<svg xmlns="http://www.w3.org/2000/svg" viewBox="0 0 400 300">
<rect width="400" height="300" fill="#0f0f1a"/>
<line x1="20" y1="270" x2="380" y2="270" stroke="#444" stroke-width="3" stroke-linecap="round"/>
<text x="200" y="23" fill="#888" font-size="12" font-family="sans-serif" text-anchor="middle">World's Greatest Stretch</text>
<text x="200" y="38" fill="#666" font-size="10" font-family="sans-serif" text-anchor="middle">Lunge forward, rotate torso toward front leg, reach arm up</text>
<g stroke="#555" stroke-width="2" fill="none" stroke-linecap="round" stroke-linejoin="round" opacity="0.25">
  <circle cx="60" cy="30" r="13" fill="#444" stroke="none"/>
  <line x1="60" y1="30" x2="60" y2="50"/><line x1="60" y1="50" x2="60" y2="65"/><line x1="60" y1="65" x2="60" y2="130"/><line x1="60" y1="65" x2="40" y2="80"/><line x1="40" y1="80" x2="30" y2="95"/><line x1="60" y1="65" x2="80" y2="80"/><line x1="80" y1="80" x2="90" y2="95"/><line x1="60" y1="130" x2="60" y2="185"/><line x1="60" y1="185" x2="60" y2="270"/><line x1="60" y1="130" x2="60" y2="185"/><line x1="60" y1="185" x2="60" y2="270"/>
</g>
<g stroke="#FFF" stroke-width="4" fill="none" stroke-linecap="round" stroke-linejoin="round">
  <circle cx="60" cy="30" r="13" fill="#FFF" stroke="none"/>
  <line x1="60" y1="30" x2="62.7" y2="57.1"/><line x1="62.7" y1="57.1" x2="64.4" y2="73.9"/><line x1="64.4" y1="73.9" x2="64.4" y2="134.4"/><line x1="64.4" y1="73.9" x2="40" y2="80"/><line x1="40" y1="80" x2="30" y2="95"/><line x1="64.4" y1="73.9" x2="88.9" y2="53.4"/><line x1="88.9" y1="53.4" x2="103.3" y2="55.1"/><line x1="64.4" y1="134.4" x2="60" y2="185"/><line x1="60" y1="185" x2="60" y2="269"/><line x1="64.4" y1="134.4" x2="77.7" y2="193.9"/><line x1="77.7" y1="193.9" x2="86.6" y2="269"/>
  <line x1="64.4" y1="134.4" x2="77.7" y2="193.9" stroke="#22C55E" stroke-width="5" opacity="0.6"/><line x1="77.7" y1="193.9" x2="86.6" y2="269" stroke="#22C55E" stroke-width="5" opacity="0.6"/>
</g>

</svg>