<svg xmlns="http://www.w3.org/2000/svg" viewBox="0 0 400 300">
<rect width="400" height="300" fill="#0f0f1a"/>
<line x1="20" y1="225" x2="380" y2="225" stroke="#444" stroke-width="3" stroke-linecap="round"/>
<text x="200" y="38" fill="#888" font-size="13" font-family="sans-serif" text-anchor="middle">World's Greatest Stretch</text>
<text x="200" y="58" fill="#666" font-size="10" font-family="sans-serif" text-anchor="middle">Step into deep lunge, place hand inside front foot, rotate torso toward front leg and reach opposite arm up, hold stretch, return.</text>
<g stroke="#555" stroke-width="2" fill="none" stroke-linecap="round" stroke-linejoin="round" opacity="0.25">
  <circle cx="200" cy="73" r="10" fill="#444" stroke="none"/>
  <line x1="200" y1="73" x2="200" y2="81"/><line x1="200" y1="81" x2="200" y2="89"/><line x1="200" y1="89" x2="200" y2="113"/><line x1="200" y1="89" x2="182" y2="99"/><line x1="182" y1="99" x2="174" y2="111"/><line x1="200" y1="89" x2="218" y2="99"/><line x1="218" y1="99" x2="226" y2="111"/><line x1="200" y1="113" x2="195" y2="170"/><line x1="195" y1="170" x2="190" y2="222"/><line x1="200" y1="113" x2="205" y2="170"/><line x1="205" y1="170" x2="210" y2="222"/>
</g>
<g stroke="#FFF" stroke-width="4" fill="none" stroke-linecap="round" stroke-linejoin="round">
  <circle cx="200" cy="73" r="10" fill="#FFF" stroke="none"/>
  <line x1="200" y1="73" x2="203" y2="88.9"/><line x1="203" y1="88.9" x2="204.9" y2="98.9"/><line x1="204.9" y1="98.9" x2="204.9" y2="117.9"/><line x1="204.9" y1="98.9" x2="182" y2="99"/><line x1="182" y1="99" x2="174" y2="111"/><line x1="204.9" y1="98.9" x2="227.9" y2="69.3"/><line x1="227.9" y1="69.3" x2="240.8" y2="66.5"/><line x1="204.9" y1="117.9" x2="195" y2="170"/><line x1="195" y1="170" x2="190" y2="222"/><line x1="204.9" y1="117.9" x2="224.8" y2="179.9"/><line x1="224.8" y1="179.9" x2="239.7" y2="224"/>
  <line x1="204.9" y1="117.9" x2="224.8" y2="179.9" stroke="#22C55E" stroke-width="5" opacity="0.6"/><line x1="224.8" y1="179.9" x2="239.7" y2="224" stroke="#22C55E" stroke-width="5" opacity="0.6"/>
</g>
<text x="255.8" y="46.5" fill="#22C55E" font-size="10" font-family="sans-serif">Rotate up</text>
</svg>