<svg xmlns="http://www.w3.org/2000/svg" viewBox="0 0 400 300">
<rect width="400" height="300" fill="#0f0f1a"/>
<line x1="20" y1="260" x2="380" y2="260" stroke="#444" stroke-width="3" stroke-linecap="round"/>
<text x="200" y="38" fill="#888" font-size="13" font-family="sans-serif" text-anchor="middle">Hollow Holds</text>
<text x="200" y="58" fill="#666" font-size="10" font-family="sans-serif" text-anchor="middle">Lie on back, lift arms, head, shoulders, and legs off floor, hold.</text>
<g stroke="#555" stroke-width="2" fill="none" stroke-linecap="round" stroke-linejoin="round" opacity="0.25">
  <circle cx="160" cy="253" r="12" fill="#444" stroke="none"/>
  <line x1="160" y1="253" x2="172" y2="255"/><line x1="172" y1="255" x2="185" y2="257"/><line x1="185" y1="257" x2="230" y2="260"/><line x1="185" y1="257" x2="168" y2="215"/><line x1="168" y1="215" x2="158" y2="195"/><line x1="185" y1="257" x2="202" y2="215"/><line x1="202" y1="215" x2="212" y2="195"/><line x1="230" y1="260" x2="265" y2="210"/><line x1="265" y1="210" x2="280" y2="258"/><line x1="230" y1="260" x2="250" y2="210"/><line x1="250" y1="210" x2="265" y2="258"/>
</g>
<g stroke="#FFF" stroke-width="4" fill="none" stroke-linecap="round" stroke-linejoin="round">
  <circle cx="160" cy="249.1" r="12" fill="#FFF" stroke="none"/>
  <line x1="160" y1="249.1" x2="172" y2="251.9"/><line x1="172" y1="251.9" x2="185" y2="255.1"/><line x1="185" y1="255.1" x2="230" y2="259"/><line x1="185" y1="255.1" x2="164.9" y2="207.3"/><line x1="164.9" y1="207.3" x2="154.1" y2="185.4"/><line x1="185" y1="255.1" x2="205.1" y2="207.3"/><line x1="205.1" y1="207.3" x2="215.9" y2="185.4"/><line x1="230" y1="259" x2="266.2" y2="206.1"/><line x1="266.2" y1="206.1" x2="281.9" y2="252.2"/><line x1="230" y1="259" x2="248.8" y2="206.1"/><line x1="248.8" y1="206.1" x2="263.1" y2="252.2"/>
  <line x1="172" y1="251.9" x2="185" y2="255.1" stroke="#22C55E" stroke-width="5" opacity="0.6"/><line x1="185" y1="255.1" x2="230" y2="259" stroke="#22C55E" stroke-width="5" opacity="0.6"/>
</g>
<text x="205" y="240.1" fill="#22C55E" font-size="10" font-family="sans-serif">Lift</text>
</svg>