<svg xmlns="http://www.w3.org/2000/svg" viewBox="0 0 400 300">
<rect width="400" height="300" fill="#0f0f1a"/>
<line x1="20" y1="260" x2="380" y2="260" stroke="#444" stroke-width="3" stroke-linecap="round"/>
<text x="200" y="38" fill="#888" font-size="13" font-family="sans-serif" text-anchor="middle">Hollow Holds</text>
<text x="200" y="58" fill="#666" font-size="10" font-family="sans-serif" text-anchor="middle">Lie on back, lift arms, head, shoulders, and legs off floor, hold.</text>
<g stroke="#555" stroke-width="2" fill="none" stroke-linecap="round" stroke-linejoin="round" opacity="0.25">
  <circle cx="160" cy="253" r="12" fill="#444" stroke="none"/>
  <line x1="160" y1="253" x2="172" y2="255"/><line x1="172" y1="255" x2="185" y2="257"/><line x1="185" y1="257" x2="230" y2="260"/><line x1="185" y1="257" x2="168" y2="215"/><line x1="168" y1="215" x2="158" y2="195"/><line x1="185" y1="257" x2="202" y2="215"/><line x1="202" y1="215" x2="212" y2="195"/><line x1="230" y1="260" x2="265" y2="210"/><line x1="265" y1="210" x2="280" y2="258"/><line x1="230" y1="260" x2="250" y2="210"/><line x1="250" y1="210" x2="265" y2="258"/>
</g>
<g stroke="#FFF" stroke-width="4" fill="none" stroke-linecap="round" stroke-linejoin="round">
  <circle cx="160" cy="243.5" r="12" fill="#FFF" stroke="none"/>
  <line x1="160" y1="243.5" x2="172" y2="247.5"/><line x1="172" y1="247.5" x2="185" y2="252.5"/><line x1="185" y1="252.5" x2="230" y2="259.5"/><line x1="185" y1="252.5" x2="160" y2="195.5"/><line x1="160" y1="195.5" x2="148" y2="170.5"/><line x1="185" y1="252.5" x2="210" y2="195.5"/><line x1="210" y1="195.5" x2="222" y2="170.5"/><line x1="230" y1="259.5" x2="268" y2="200.5"/><line x1="268" y1="200.5" x2="285" y2="243.5"/><line x1="230" y1="259.5" x2="247" y2="200.5"/><line x1="247" y1="200.5" x2="260" y2="243.5"/>
  <line x1="172" y1="247.5" x2="185" y2="252.5" stroke="#22C55E" stroke-width="5" opacity="0.6"/><line x1="185" y1="252.5" x2="230" y2="259.5" stroke="#22C55E" stroke-width="5" opacity="0.6"/>
</g>
<text x="205" y="237.5" fill="#22C55E" font-size="10" font-family="sans-serif">Lift</text>
</svg>