<svg xmlns="http://www.w3.org/2000/svg" viewBox="0 0 400 300">
<rect width="400" height="300" fill="#0f0f1a"/>
<line x1="20" y1="260" x2="380" y2="260" stroke="#444" stroke-width="3" stroke-linecap="round"/>
<text x="200" y="38" fill="#888" font-size="13" font-family="sans-serif" text-anchor="middle">Hollow Holds</text>
<text x="200" y="58" fill="#666" font-size="10" font-family="sans-serif" text-anchor="middle"><tspan x="200" dy="0">Lie on back, lift arms, head, shoulders, and legs off</tspan><tspan x="200" dy="14">floor, hold.</tspan></text>
<g stroke="#555" stroke-width="2" fill="none" stroke-linecap="round" stroke-linejoin="round" opacity="0.25">
  <circle cx="160" cy="253" r="12" fill="#444" stroke="none"/>
  <line x1="160" y1="253" x2="172" y2="255"/><line x1="172" y1="255" x2="185" y2="257"/><line x1="185" y1="257" x2="230" y2="260"/><line x1="185" y1="257" x2="168" y2="215"/><line x1="168" y1="215" x2="158" y2="195"/><line x1="185" y1="257" x2="202" y2="215"/><line x1="202" y1="215" x2="212" y2="195"/><line x1="230" y1="260" x2="265" y2="210"/><line x1="265" y1="210" x2="280" y2="258"/><line x1="230" y1="260" x2="250" y2="210"/><line x1="250" y1="210" x2="265" y2="258"/>
</g>
<g stroke="#FFF" stroke-width="4" fill="none" stroke-linecap="round" stroke-linejoin="round">
  <circle cx="160" cy="245.3" r="12" fill="#FFF" stroke="none"/>
  <line x1="160" y1="245.3" x2="172" y2="248.7"/><line x1="172" y1="248.7" x2="185" y2="252.8"/><line x1="185" y1="252.8" x2="230" y2="258.4"/><line x1="185" y1="252.8" x2="162.3" y2="200.1"/><line x1="162.3" y1="200.1" x2="150.9" y2="176.6"/><line x1="185" y1="252.8" x2="207.7" y2="200.1"/><line x1="207.7" y1="200.1" x2="219.1" y2="176.6"/><line x1="230" y1="258.4" x2="267.1" y2="202.3"/><line x1="267.1" y1="202.3" x2="283.6" y2="246.7"/><line x1="230" y1="258.4" x2="247.9" y2="202.3"/><line x1="247.9" y1="202.3" x2="261.4" y2="246.7"/>
  <line x1="172" y1="248.7" x2="185" y2="252.8" stroke="#22C55E" stroke-width="5" opacity="0.6"/><line x1="185" y1="252.8" x2="230" y2="258.4" stroke="#22C55E" stroke-width="5" opacity="0.6"/>
</g>
<text x="205" y="237.8" fill="#22C55E" font-size="10" font-family="sans-serif">Lift up</text>
</svg>