<svg xmlns="http://www.w3.org/2000/svg" viewBox="0 0 400 300">
<rect width="400" height="300" fill="#0f0f1a"/>
<line x1="20" y1="260" x2="380" y2="260" stroke="#444" stroke-width="3" stroke-linecap="round"/>
<text x="200" y="23" fill="#888" font-size="12" font-family="sans-serif" text-anchor="middle">Hollow Holds</text>
<text x="200" y="38" fill="#666" font-size="10" font-family="sans-serif" text-anchor="middle">Lie on back, lift arms, head, shoulders, and legs off floor, hold</text>
<g stroke="#555" stroke-width="2" fill="none" stroke-linecap="round" stroke-linejoin="round" opacity="0.25">
  <circle cx="100" cy="253" r="12" fill="#444" stroke="none"/>
  <line x1="100" y1="253" x2="112" y2="255"/><line x1="112" y1="255" x2="125" y2="257"/><line x1="125" y1="257" x2="170" y2="260"/><line x1="125" y1="257" x2="108" y2="215"/><line x1="108" y1="215" x2="98" y2="195"/><line x1="125" y1="257" x2="142" y2="215"/><line x1="142" y1="215" x2="152" y2="195"/><line x1="170" y1="260" x2="205" y2="210"/><line x1="205" y1="210" x2="220" y2="258"/><line x1="170" y1="260" x2="190" y2="210"/><line x1="190" y1="210" x2="205" y2="258"/>
</g>
<g stroke="#FFF" stroke-width="4" fill="none" stroke-linecap="round" stroke-linejoin="round">
  <circle cx="100" cy="246.5" r="12" fill="#FFF" stroke="none"/>
  <line x1="100" y1="246.5" x2="112" y2="249.8"/><line x1="112" y1="249.8" x2="125" y2="253.8"/><line x1="125" y1="253.8" x2="170" y2="259"/><line x1="125" y1="253.8" x2="102.8" y2="202"/><line x1="102.8" y1="202" x2="91.5" y2="178.8"/><line x1="125" y1="253.8" x2="147.2" y2="202"/><line x1="147.2" y1="202" x2="158.5" y2="178.8"/><line x1="170" y1="259" x2="206.9" y2="203.5"/><line x1="206.9" y1="203.5" x2="223.2" y2="248.3"/><line x1="170" y1="259" x2="188.1" y2="203.5"/><line x1="188.1" y1="203.5" x2="201.8" y2="248.3"/>
  <line x1="112" y1="249.8" x2="125" y2="253.8" stroke="#22C55E" stroke-width="5" opacity="0.6"/><line x1="125" y1="253.8" x2="170" y2="259" stroke="#22C55E" stroke-width="5" opacity="0.6"/>
</g>

</svg>