<svg xmlns="http://www.w3.org/2000/svg" viewBox="0 0 400 300">
<rect width="400" height="300" fill="#0f0f1a"/>
<line x1="20" y1="190" x2="380" y2="190" stroke="#444" stroke-width="3" stroke-linecap="round"/>
<text x="200" y="38" fill="#888" font-size="13" font-family="sans-serif" text-anchor="middle">Glute Kickbacks</text>
<text x="200" y="58" fill="#666" font-size="10" font-family="sans-serif" text-anchor="middle">On all fours, kick one leg back and up, return.</text>
<g stroke="#555" stroke-width="2" fill="none" stroke-linecap="round" stroke-linejoin="round" opacity="0.25">
  <circle cx="175" cy="73" r="10" fill="#444" stroke="none"/>
  <line x1="175" y1="73" x2="186" y2="76"/><line x1="186" y1="76" x2="200" y2="87"/><line x1="200" y1="87" x2="240" y2="110"/><line x1="200" y1="87" x2="170" y2="189"/><line x1="240" y1="110" x2="245" y2="145"/><line x1="245" y1="145" x2="255" y2="189"/>
</g>
<g stroke="#FFF" stroke-width="4" fill="none" stroke-linecap="round" stroke-linejoin="round">
  <circle cx="175" cy="73" r="10" fill="#FFF" stroke="none"/>
  <line x1="175" y1="73" x2="186" y2="76"/><line x1="186" y1="76" x2="200" y2="87"/><line x1="200" y1="87" x2="240" y2="108.9"/><line x1="200" y1="87" x2="170" y2="189"/><line x1="240" y1="108.9" x2="246.8" y2="143.2"/><line x1="246.8" y1="143.2" x2="262" y2="183.7"/>
  <line x1="240" y1="108.9" x2="246.8" y2="143.2" stroke="#FFD93D" stroke-width="5" opacity="0.6"/><line x1="246.8" y1="143.2" x2="262" y2="183.7" stroke="#FFD93D" stroke-width="5" opacity="0.6"/>
</g>
<line x1="262.0233196159122" y1="188.73251028806584" x2="292.0233196159122" y2="188.73251028806584" stroke="#FFD93D" stroke-width="2" stroke-dasharray="4,3"/><polygon points="292.0233196159122,183.73251028806584 302.0233196159122,188.73251028806584 292.0233196159122,193.73251028806584" fill="#FFD93D"/><text x="277.0233196159122" y="133" fill="#FFD93D" font-size="10" text-anchor="middle" font-family="sans-serif">Kick back</text>
</svg>