<svg xmlns="http://www.w3.org/2000/svg" viewBox="0 0 400 300">
<rect width="400" height="300" fill="#0f0f1a"/>
<line x1="20" y1="225" x2="380" y2="225" stroke="#444" stroke-width="3" stroke-linecap="round"/>
<text x="200" y="38" fill="#888" font-size="13" font-family="sans-serif" text-anchor="middle">Wall Slides</text>
<text x="200" y="58" fill="#666" font-size="10" font-family="sans-serif" text-anchor="middle">Stand against wall, arms at 90 degrees, slide up, return.</text>
<g stroke="#555" stroke-width="2" fill="none" stroke-linecap="round" stroke-linejoin="round" opacity="0.25">
  <circle cx="200" cy="73" r="10" fill="#444" stroke="none"/>
  <line x1="200" y1="73" x2="200" y2="81"/><line x1="200" y1="81" x2="200" y2="89"/><line x1="200" y1="89" x2="200" y2="113"/><line x1="200" y1="89" x2="182" y2="99"/><line x1="182" y1="99" x2="174" y2="111"/><line x1="200" y1="89" x2="218" y2="99"/><line x1="218" y1="99" x2="226" y2="111"/><line x1="200" y1="113" x2="195" y2="170"/><line x1="195" y1="170" x2="190" y2="222"/><line x1="200" y1="113" x2="205" y2="170"/><line x1="205" y1="170" x2="210" y2="222"/>
</g>
<g stroke="#FFF" stroke-width="4" fill="none" stroke-linecap="round" stroke-linejoin="round">
  <circle cx="200" cy="73" r="10" fill="#FFF" stroke="none"/>
  <line x1="200" y1="73" x2="200" y2="81"/><line x1="200" y1="81" x2="200" y2="89"/><line x1="200" y1="89" x2="200" y2="113"/><line x1="200" y1="89" x2="177" y2="83.8"/><line x1="177" y1="83.8" x2="164" y2="85.7"/><line x1="200" y1="89" x2="213" y2="83.8"/><line x1="213" y1="83.8" x2="216" y2="85.7"/><line x1="200" y1="113" x2="195" y2="170"/><line x1="195" y1="170" x2="190" y2="222"/><line x1="200" y1="113" x2="205" y2="170"/><line x1="205" y1="170" x2="210" y2="222"/>
  <line x1="200" y1="89" x2="177" y2="83.8" stroke="#FF9500" stroke-width="5" opacity="0.6"/><line x1="177" y1="83.8" x2="164" y2="85.7" stroke="#FF9500" stroke-width="5" opacity="0.6"/>
</g>
<line x1="164" y1="80.67849794238683" x2="224" y2="80.67849794238683" stroke="#FF9500" stroke-width="2" stroke-dasharray="4,3"/><polygon points="224,75.67849794238683 234,80.67849794238683 224,85.67849794238683" fill="#FF9500"/><text x="194" y="68" fill="#FF9500" font-size="10" text-anchor="middle" font-family="sans-serif">Slide</text>
</svg>