<svg xmlns="http://www.w3.org/2000/svg" viewBox="0 0 400 300">
<rect width="400" height="300" fill="#0f0f1a"/>
<line x1="20" y1="225" x2="380" y2="225" stroke="#444" stroke-width="3" stroke-linecap="round"/>
<text x="200" y="38" fill="#888" font-size="13" font-family="sans-serif" text-anchor="middle">Doorway Stretch</text>
<text x="200" y="58" fill="#666" font-size="10" font-family="sans-serif" text-anchor="middle">Stand in doorway, arms on door frame, lean forward, hold.</text>
<g stroke="#555" stroke-width="2" fill="none" stroke-linecap="round" stroke-linejoin="round" opacity="0.25">
  <circle cx="205" cy="76" r="10" fill="#444" stroke="none"/>
  <line x1="205" y1="76" x2="205" y2="84"/><line x1="205" y1="84" x2="205" y2="94"/><line x1="205" y1="94" x2="203" y2="116"/><line x1="205" y1="94" x2="172" y2="84"/><line x1="172" y1="84" x2="159" y2="91"/><line x1="205" y1="94" x2="228" y2="84"/><line x1="228" y1="84" x2="241" y2="91"/><line x1="203" y1="116" x2="195" y2="170"/><line x1="195" y1="170" x2="190" y2="222"/><line x1="203" y1="116" x2="205" y2="170"/><line x1="205" y1="170" x2="210" y2="222"/>
</g>
<g stroke="#FFF" stroke-width="4" fill="none" stroke-linecap="round" stroke-linejoin="round">
  <circle cx="205.9" cy="77.3" r="10" fill="#FFF" stroke="none"/>
  <line x1="205.9" y1="77.3" x2="206.1" y2="85.3"/><line x1="206.1" y1="85.3" x2="206.2" y2="95.5"/><line x1="206.2" y1="95.5" x2="203.7" y2="117.2"/><line x1="206.2" y1="95.5" x2="172" y2="84.6"/><line x1="172" y1="84.6" x2="159" y2="91.6"/><line x1="206.2" y1="95.5" x2="228" y2="84.6"/><line x1="228" y1="84.6" x2="241" y2="91.6"/><line x1="203.7" y1="117.2" x2="195" y2="170.6"/><line x1="195" y1="170.6" x2="190" y2="222.6"/><line x1="203.7" y1="117.2" x2="205" y2="170.6"/><line x1="205" y1="170.6" x2="210" y2="222.6"/>
  <line x1="206.2" y1="95.5" x2="172" y2="84.6" stroke="#FF9500" stroke-width="5" opacity="0.6"/><line x1="206.2" y1="95.5" x2="228" y2="84.6" stroke="#FF9500" stroke-width="5" opacity="0.6"/>
</g>
<text x="236.2" y="90.5" fill="#FF9500" font-size="10" font-family="sans-serif">Lean</text>
</svg>