<svg xmlns="http://www.w3.org/2000/svg" viewBox="0 0 400 300">
<rect width="400" height="300" fill="#0f0f1a"/>
<line x1="20" y1="225" x2="380" y2="225" stroke="#444" stroke-width="3" stroke-linecap="round"/>
<text x="200" y="38" fill="#888" font-size="13" font-family="sans-serif" text-anchor="middle">Doorway Stretch</text>
<text x="200" y="58" fill="#666" font-size="10" font-family="sans-serif" text-anchor="middle">Stand in doorway, arms on door frame, lean forward, hold.</text>
<g stroke="#555" stroke-width="2" fill="none" stroke-linecap="round" stroke-linejoin="round" opacity="0.25">
  <circle cx="205" cy="76" r="10" fill="#444" stroke="none"/>
  <line x1="205" y1="76" x2="205" y2="84"/><line x1="205" y1="84" x2="205" y2="94"/><line x1="205" y1="94" x2="203" y2="116"/><line x1="205" y1="94" x2="172" y2="84"/><line x1="172" y1="84" x2="159" y2="91"/><line x1="205" y1="94" x2="228" y2="84"/><line x1="228" y1="84" x2="241" y2="91"/><line x1="203" y1="116" x2="195" y2="170"/><line x1="195" y1="170" x2="190" y2="222"/><line x1="203" y1="116" x2="205" y2="170"/><line x1="205" y1="170" x2="210" y2="222"/>
</g>
<g stroke="#FFF" stroke-width="4" fill="none" stroke-linecap="round" stroke-linejoin="round">
  <circle cx="222" cy="87.1" r="10" fill="#FFF" stroke="none"/>
  <line x1="222" y1="87.1" x2="225.4" y2="96.8"/><line x1="225.4" y1="96.8" x2="228.9" y2="110.2"/><line x1="228.9" y1="110.2" x2="215.8" y2="125.4"/><line x1="228.9" y1="110.2" x2="172" y2="83.1"/><line x1="172" y1="83.1" x2="159" y2="90.1"/><line x1="228.9" y1="110.2" x2="228" y2="83.1"/><line x1="228" y1="83.1" x2="241" y2="90.1"/><line x1="215.8" y1="125.4" x2="195" y2="169.1"/><line x1="195" y1="169.1" x2="190" y2="221.1"/><line x1="215.8" y1="125.4" x2="205" y2="169.1"/><line x1="205" y1="169.1" x2="210" y2="221.1"/>
  <line x1="228.9" y1="110.2" x2="172" y2="83.1" stroke="#FF9500" stroke-width="5" opacity="0.6"/><line x1="228.9" y1="110.2" x2="228" y2="83.1" stroke="#FF9500" stroke-width="5" opacity="0.6"/>
</g>
<text x="258.9" y="105.2" fill="#FF9500" font-size="10" font-family="sans-serif">Lean</text>
</svg>