<svg xmlns="http://www.w3.org/2000/svg" viewBox="0 0 400 300">
<rect width="400" height="300" fill="#0f0f1a"/>
<line x1="20" y1="225" x2="380" y2="225" stroke="#444" stroke-width="3" stroke-linecap="round"/>
<text x="200" y="38" fill="#888" font-size="13" font-family="sans-serif" text-anchor="middle">Doorway Stretch</text>
<text x="200" y="58" fill="#666" font-size="10" font-family="sans-serif" text-anchor="middle">Stand in doorway, arms on door frame, lean forward, hold.</text>
<g stroke="#555" stroke-width="2" fill="none" stroke-linecap="round" stroke-linejoin="round" opacity="0.25">
  <circle cx="205" cy="76" r="10" fill="#444" stroke="none"/>
  <line x1="205" y1="76" x2="205" y2="84"/><line x1="205" y1="84" x2="205" y2="94"/><line x1="205" y1="94" x2="203" y2="116"/><line x1="205" y1="94" x2="172" y2="84"/><line x1="172" y1="84" x2="159" y2="91"/><line x1="205" y1="94" x2="228" y2="84"/><line x1="228" y1="84" x2="241" y2="91"/><line x1="203" y1="116" x2="195" y2="170"/><line x1="195" y1="170" x2="190" y2="222"/><line x1="203" y1="116" x2="205" y2="170"/><line x1="205" y1="170" x2="210" y2="222"/>
</g>
<g stroke="#FFF" stroke-width="4" fill="none" stroke-linecap="round" stroke-linejoin="round">
  <circle cx="218" cy="86.1" r="10" fill="#FFF" stroke="none"/>
  <line x1="218" y1="86.1" x2="220.6" y2="95.4"/><line x1="220.6" y1="95.4" x2="223.2" y2="108"/><line x1="223.2" y1="108" x2="212.7" y2="124.8"/><line x1="223.2" y1="108" x2="172" y2="85"/><line x1="172" y1="85" x2="159" y2="92"/><line x1="223.2" y1="108" x2="228" y2="85"/><line x1="228" y1="85" x2="241" y2="92"/><line x1="212.7" y1="124.8" x2="195" y2="171"/><line x1="195" y1="171" x2="190" y2="223"/><line x1="212.7" y1="124.8" x2="205" y2="171"/><line x1="205" y1="171" x2="210" y2="223"/>
  <line x1="223.2" y1="108" x2="172" y2="85" stroke="#FF9500" stroke-width="5" opacity="0.6"/><line x1="223.2" y1="108" x2="228" y2="85" stroke="#FF9500" stroke-width="5" opacity="0.6"/>
</g>
<text x="253.2" y="103" fill="#FF9500" font-size="10" font-family="sans-serif">Lean fwd</text>
</svg>