<svg xmlns="http://www.w3.org/2000/svg" viewBox="0 0 400 300">
<rect width="400" height="300" fill="#0f0f1a"/>
<line x1="20" y1="225" x2="380" y2="225" stroke="#444" stroke-width="3" stroke-linecap="round"/>
<text x="200" y="38" fill="#888" font-size="13" font-family="sans-serif" text-anchor="middle">Nordic Curls</text>
<text x="200" y="58" fill="#666" font-size="10" font-family="sans-serif" text-anchor="middle">Kneeling with ankles anchored, body straight; slowly lower torso forward with control using hamstrings, then return (use hands to assist if needed).</text>
<g stroke="#555" stroke-width="2" fill="none" stroke-linecap="round" stroke-linejoin="round" opacity="0.25">
  <circle cx="200" cy="73" r="10" fill="#444" stroke="none"/>
  <line x1="200" y1="73" x2="200" y2="81"/><line x1="200" y1="81" x2="200" y2="89"/><line x1="200" y1="89" x2="200" y2="113"/><line x1="200" y1="89" x2="182" y2="99"/><line x1="182" y1="99" x2="174" y2="111"/><line x1="200" y1="89" x2="218" y2="99"/><line x1="218" y1="99" x2="226" y2="111"/><line x1="200" y1="113" x2="195" y2="222"/><line x1="195" y1="222" x2="188" y2="222"/><line x1="200" y1="113" x2="205" y2="222"/><line x1="205" y1="222" x2="212" y2="222"/>
</g>
<g stroke="#FFF" stroke-width="4" fill="none" stroke-linecap="round" stroke-linejoin="round">
  <circle cx="210.1" cy="79.4" r="10" fill="#FFF" stroke="none"/>
  <line x1="210.1" y1="79.4" x2="210.1" y2="87.4"/><line x1="210.1" y1="87.4" x2="208.7" y2="94.8"/><line x1="208.7" y1="94.8" x2="204.3" y2="115.9"/><line x1="208.7" y1="94.8" x2="186.3" y2="103.3"/><line x1="186.3" y1="103.3" x2="179.8" y2="116.8"/><line x1="208.7" y1="94.8" x2="222.3" y2="103.3"/><line x1="222.3" y1="103.3" x2="231.8" y2="116.8"/><line x1="204.3" y1="115.9" x2="195" y2="222"/><line x1="195" y1="222" x2="188" y2="222"/><line x1="204.3" y1="115.9" x2="205" y2="222"/><line x1="205" y1="222" x2="212" y2="222"/>
  <line x1="204.3" y1="115.9" x2="195" y2="222" stroke="#FF6B6B" stroke-width="5" opacity="0.6"/><line x1="204.3" y1="115.9" x2="205" y2="222" stroke="#FF6B6B" stroke-width="5" opacity="0.6"/>
</g>
<text x="238.7" y="104.8" fill="#FF6B6B" font-size="10" font-family="sans-serif">Lower torso</text>
</svg>