<svg xmlns="http://www.w3.org/2000/svg" viewBox="0 0 400 300">
<rect width="400" height="300" fill="#0f0f1a"/>
<line x1="20" y1="225" x2="380" y2="225" stroke="#444" stroke-width="3" stroke-linecap="round"/>
<text x="200" y="38" fill="#888" font-size="13" font-family="sans-serif" text-anchor="middle">Nordic Curls</text>
<text x="200" y="58" fill="#666" font-size="10" font-family="sans-serif" text-anchor="middle">Kneeling, slowly lower torso toward floor, keeping back straight</text>
<g stroke="#555" stroke-width="2" fill="none" stroke-linecap="round" stroke-linejoin="round" opacity="0.25">
  <circle cx="200" cy="73" r="10" fill="#444" stroke="none"/>
  <line x1="200" y1="73" x2="200" y2="81"/><line x1="200" y1="81" x2="200" y2="89"/><line x1="200" y1="89" x2="200" y2="113"/><line x1="200" y1="89" x2="182" y2="99"/><line x1="182" y1="99" x2="174" y2="111"/><line x1="200" y1="89" x2="218" y2="99"/><line x1="218" y1="99" x2="226" y2="111"/><line x1="200" y1="113" x2="195" y2="222"/><line x1="195" y1="222" x2="188" y2="222"/><line x1="200" y1="113" x2="205" y2="222"/><line x1="205" y1="222" x2="212" y2="222"/>
</g>
<g stroke="#FFF" stroke-width="4" fill="none" stroke-linecap="round" stroke-linejoin="round">
  <circle cx="205.2" cy="76.3" r="10" fill="#FFF" stroke="none"/>
  <line x1="205.2" y1="76.3" x2="205.2" y2="84.3"/><line x1="205.2" y1="84.3" x2="204.4" y2="92"/><line x1="204.4" y1="92" x2="202.2" y2="114.5"/><line x1="204.4" y1="92" x2="184.2" y2="101.2"/><line x1="184.2" y1="101.2" x2="177" y2="114"/><line x1="204.4" y1="92" x2="220.2" y2="101.2"/><line x1="220.2" y1="101.2" x2="229" y2="114"/><line x1="202.2" y1="114.5" x2="195" y2="222"/><line x1="195" y1="222" x2="188" y2="222"/><line x1="202.2" y1="114.5" x2="205" y2="222"/><line x1="205" y1="222" x2="212" y2="222"/>
  <line x1="202.2" y1="114.5" x2="195" y2="222" stroke="#FF6B6B" stroke-width="5" opacity="0.6"/><line x1="202.2" y1="114.5" x2="205" y2="222" stroke="#FF6B6B" stroke-width="5" opacity="0.6"/>
</g>
<text x="234.4" y="102" fill="#FF6B6B" font-size="10" font-family="sans-serif">Lower</text>
</svg>