<svg xmlns="http://www.w3.org/2000/svg" viewBox="0 0 400 300">
<rect width="400" height="300" fill="#0f0f1a"/>
<line x1="20" y1="225" x2="380" y2="225" stroke="#444" stroke-width="3" stroke-linecap="round"/>
<text x="200" y="38" fill="#888" font-size="13" font-family="sans-serif" text-anchor="middle">Nordic Curls</text>
<text x="200" y="58" fill="#666" font-size="10" font-family="sans-serif" text-anchor="middle"><tspan x="200" dy="0">Kneeling with ankles anchored, body straight; slowly</tspan><tspan x="200" dy="14">lower torso forward with control using hamstrings, then</tspan><tspan x="200" dy="14">return (use hands to assist if needed).</tspan></text>
<g stroke="#555" stroke-width="2" fill="none" stroke-linecap="round" stroke-linejoin="round" opacity="0.25">
  <circle cx="200" cy="73" r="10" fill="#444" stroke="none"/>
  <line x1="200" y1="73" x2="200" y2="81"/><line x1="200" y1="81" x2="200" y2="89"/><line x1="200" y1="89" x2="200" y2="113"/><line x1="200" y1="89" x2="182" y2="99"/><line x1="182" y1="99" x2="174" y2="111"/><line x1="200" y1="89" x2="218" y2="99"/><line x1="218" y1="99" x2="226" y2="111"/><line x1="200" y1="113" x2="195" y2="222"/><line x1="195" y1="222" x2="188" y2="222"/><line x1="200" y1="113" x2="205" y2="222"/><line x1="205" y1="222" x2="212" y2="222"/>
</g>
<g stroke="#FFF" stroke-width="4" fill="none" stroke-linecap="round" stroke-linejoin="round">
  <circle cx="201.5" cy="74" r="10" fill="#FFF" stroke="none"/>
  <line x1="201.5" y1="74" x2="201.5" y2="82"/><line x1="201.5" y1="82" x2="201.3" y2="89.9"/><line x1="201.3" y1="89.9" x2="200.7" y2="113.4"/><line x1="201.3" y1="89.9" x2="182.7" y2="99.7"/><line x1="182.7" y1="99.7" x2="174.9" y2="111.9"/><line x1="201.3" y1="89.9" x2="218.7" y2="99.7"/><line x1="218.7" y1="99.7" x2="226.9" y2="111.9"/><line x1="200.7" y1="113.4" x2="195" y2="222"/><line x1="195" y1="222" x2="188" y2="222"/><line x1="200.7" y1="113.4" x2="205" y2="222"/><line x1="205" y1="222" x2="212" y2="222"/>
  <line x1="200.7" y1="113.4" x2="195" y2="222" stroke="#FF6B6B" stroke-width="5" opacity="0.6"/><line x1="200.7" y1="113.4" x2="205" y2="222" stroke="#FF6B6B" stroke-width="5" opacity="0.6"/>
</g>
<text x="231.3" y="99.9" fill="#FF6B6B" font-size="10" font-family="sans-serif">Lower torso</text>
</svg>