<svg xmlns="http://www.w3.org/2000/svg" viewBox="0 0 400 300">
<rect width="400" height="300" fill="#0f0f1a"/>
<line x1="20" y1="225" x2="380" y2="225" stroke="#444" stroke-width="3" stroke-linecap="round"/>
<text x="200" y="38" fill="#888" font-size="13" font-family="sans-serif" text-anchor="middle">Nordic Curls</text>
<text x="200" y="58" fill="#666" font-size="10" font-family="sans-serif" text-anchor="middle">Kneeling with ankles anchored, body straight; slowly lower torso forward with control using hamstrings, then return (use hands to assist if needed).</text>
<g stroke="#555" stroke-width="2" fill="none" stroke-linecap="round" stroke-linejoin="round" opacity="0.25">
  <circle cx="200" cy="73" r="10" fill="#444" stroke="none"/>
  <line x1="200" y1="73" x2="200" y2="81"/><line x1="200" y1="81" x2="200" y2="89"/><line x1="200" y1="89" x2="200" y2="113"/><line x1="200" y1="89" x2="182" y2="99"/><line x1="182" y1="99" x2="174" y2="111"/><line x1="200" y1="89" x2="218" y2="99"/><line x1="218" y1="99" x2="226" y2="111"/><line x1="200" y1="113" x2="195" y2="222"/><line x1="195" y1="222" x2="188" y2="222"/><line x1="200" y1="113" x2="205" y2="222"/><line x1="205" y1="222" x2="212" y2="222"/>
</g>
<g stroke="#FFF" stroke-width="4" fill="none" stroke-linecap="round" stroke-linejoin="round">
  <circle cx="234.8" cy="94.9" r="10" fill="#FFF" stroke="none"/>
  <line x1="234.8" y1="94.9" x2="234.8" y2="102.9"/><line x1="234.8" y1="102.9" x2="229.8" y2="108.9"/><line x1="229.8" y1="108.9" x2="214.9" y2="122.9"/><line x1="229.8" y1="108.9" x2="196.9" y2="113.9"/><line x1="196.9" y1="113.9" x2="193.9" y2="130.9"/><line x1="229.8" y1="108.9" x2="232.9" y2="113.9"/><line x1="232.9" y1="113.9" x2="245.9" y2="130.9"/><line x1="214.9" y1="122.9" x2="195" y2="222"/><line x1="195" y1="222" x2="188" y2="222"/><line x1="214.9" y1="122.9" x2="205" y2="222"/><line x1="205" y1="222" x2="212" y2="222"/>
  <line x1="214.9" y1="122.9" x2="195" y2="222" stroke="#FF6B6B" stroke-width="5" opacity="0.6"/><line x1="214.9" y1="122.9" x2="205" y2="222" stroke="#FF6B6B" stroke-width="5" opacity="0.6"/>
</g>
<text x="259.8" y="118.9" fill="#FF6B6B" font-size="10" font-family="sans-serif">Lower</text>
</svg>