<svg xmlns="http://www.w3.org/2000/svg" viewBox="0 0 400 300">
<rect width="400" height="300" fill="#0f0f1a"/>
<line x1="20" y1="225" x2="380" y2="225" stroke="#444" stroke-width="3" stroke-linecap="round"/>
<text x="200" y="38" fill="#888" font-size="13" font-family="sans-serif" text-anchor="middle">Nordic Curls</text>
<text x="200" y="58" fill="#666" font-size="10" font-family="sans-serif" text-anchor="middle">Kneeling with ankles anchored, body straight; slowly lower torso forward with control using hamstrings, then return (use hands to assist if needed).</text>
<g stroke="#555" stroke-width="2" fill="none" stroke-linecap="round" stroke-linejoin="round" opacity="0.25">
  <circle cx="200" cy="73" r="10" fill="#444" stroke="none"/>
  <line x1="200" y1="73" x2="200" y2="81"/><line x1="200" y1="81" x2="200" y2="89"/><line x1="200" y1="89" x2="200" y2="113"/><line x1="200" y1="89" x2="182" y2="99"/><line x1="182" y1="99" x2="174" y2="111"/><line x1="200" y1="89" x2="218" y2="99"/><line x1="218" y1="99" x2="226" y2="111"/><line x1="200" y1="113" x2="195" y2="222"/><line x1="195" y1="222" x2="188" y2="222"/><line x1="200" y1="113" x2="205" y2="222"/><line x1="205" y1="222" x2="212" y2="222"/>
</g>
<g stroke="#FFF" stroke-width="4" fill="none" stroke-linecap="round" stroke-linejoin="round">
  <circle cx="228.4" cy="90.9" r="10" fill="#FFF" stroke="none"/>
  <line x1="228.4" y1="90.9" x2="228.4" y2="98.9"/><line x1="228.4" y1="98.9" x2="224.3" y2="105.2"/><line x1="224.3" y1="105.2" x2="212.2" y2="121.1"/><line x1="224.3" y1="105.2" x2="194.2" y2="111.2"/><line x1="194.2" y1="111.2" x2="190.2" y2="127.2"/><line x1="224.3" y1="105.2" x2="230.2" y2="111.2"/><line x1="230.2" y1="111.2" x2="242.2" y2="127.2"/><line x1="212.2" y1="121.1" x2="195" y2="222"/><line x1="195" y1="222" x2="188" y2="222"/><line x1="212.2" y1="121.1" x2="205" y2="222"/><line x1="205" y1="222" x2="212" y2="222"/>
  <line x1="212.2" y1="121.1" x2="195" y2="222" stroke="#FF6B6B" stroke-width="5" opacity="0.6"/><line x1="212.2" y1="121.1" x2="205" y2="222" stroke="#FF6B6B" stroke-width="5" opacity="0.6"/>
</g>
<text x="254.3" y="115.2" fill="#FF6B6B" font-size="10" font-family="sans-serif">Lower torso</text>
</svg>