<svg xmlns="http://www.w3.org/2000/svg" viewBox="0 0 400 300">
<rect width="400" height="300" fill="#0f0f1a"/>
<line x1="20" y1="248" x2="380" y2="248" stroke="#444" stroke-width="3" stroke-linecap="round"/>
<text x="200" y="23" fill="#888" font-size="12" font-family="sans-serif" text-anchor="middle">Nordic Curls</text>
<text x="200" y="38" fill="#666" font-size="10" font-family="sans-serif" text-anchor="middle">Kneeling, slowly lower torso toward floor, keeping back straight</text>
<g stroke="#555" stroke-width="2" fill="none" stroke-linecap="round" stroke-linejoin="round" opacity="0.25">
  <circle cx="60" cy="40" r="12" fill="#444" stroke="none"/>
  <line x1="60" y1="40" x2="60" y2="55"/><line x1="60" y1="55" x2="60" y2="70"/><line x1="60" y1="70" x2="60" y2="120"/><line x1="60" y1="70" x2="40" y2="85"/><line x1="40" y1="85" x2="30" y2="100"/><line x1="60" y1="70" x2="80" y2="85"/><line x1="80" y1="85" x2="90" y2="100"/><line x1="60" y1="120" x2="60" y2="245"/><line x1="60" y1="120" x2="60" y2="245"/>
</g>
<g stroke="#FFF" stroke-width="4" fill="none" stroke-linecap="round" stroke-linejoin="round">
  <circle cx="77.5" cy="51" r="12" fill="#FFF" stroke="none"/>
  <line x1="77.5" y1="51" x2="77.5" y2="66"/><line x1="77.5" y1="66" x2="75" y2="80"/><line x1="75" y1="80" x2="67.5" y2="125"/><line x1="75" y1="80" x2="47.5" y2="92.5"/><line x1="47.5" y1="92.5" x2="40" y2="110"/><line x1="75" y1="80" x2="87.5" y2="92.5"/><line x1="87.5" y1="92.5" x2="100" y2="110"/><line x1="67.5" y1="125" x2="60" y2="245"/><line x1="67.5" y1="125" x2="60" y2="245"/>
  <line x1="67.5" y1="125" x2="60" y2="245" stroke="#FF6B6B" stroke-width="5" opacity="0.6"/><line x1="67.5" y1="125" x2="60" y2="245" stroke="#FF6B6B" stroke-width="5" opacity="0.6"/>
</g>

</svg>