<svg xmlns="http://www.w3.org/2000/svg" viewBox="0 0 400 300">
<rect width="400" height="300" fill="#0f0f1a"/>
<line x1="20" y1="248" x2="380" y2="248" stroke="#444" stroke-width="3" stroke-linecap="round"/>
<text x="200" y="23" fill="#888" font-size="12" font-family="sans-serif" text-anchor="middle">Nordic Curls</text>
<text x="200" y="38" fill="#666" font-size="10" font-family="sans-serif" text-anchor="middle">Kneeling, slowly lower torso toward floor, keeping back straight</text>
<g stroke="#555" stroke-width="2" fill="none" stroke-linecap="round" stroke-linejoin="round" opacity="0.25">
  <circle cx="60" cy="40" r="12" fill="#444" stroke="none"/>
  <line x1="60" y1="40" x2="60" y2="55"/><line x1="60" y1="55" x2="60" y2="70"/><line x1="60" y1="70" x2="60" y2="120"/><line x1="60" y1="70" x2="40" y2="85"/><line x1="40" y1="85" x2="30" y2="100"/><line x1="60" y1="70" x2="80" y2="85"/><line x1="80" y1="85" x2="90" y2="100"/><line x1="60" y1="120" x2="60" y2="245"/><line x1="60" y1="120" x2="60" y2="245"/>
</g>
<g stroke="#FFF" stroke-width="4" fill="none" stroke-linecap="round" stroke-linejoin="round">
  <circle cx="89.8" cy="58.7" r="12" fill="#FFF" stroke="none"/>
  <line x1="89.8" y1="58.7" x2="89.8" y2="73.7"/><line x1="89.8" y1="73.7" x2="85.6" y2="87"/><line x1="85.6" y1="87" x2="72.8" y2="128.5"/><line x1="85.6" y1="87" x2="52.8" y2="97.8"/><line x1="52.8" y1="97.8" x2="47" y2="117"/><line x1="85.6" y1="87" x2="92.8" y2="97.8"/><line x1="92.8" y1="97.8" x2="107" y2="117"/><line x1="72.8" y1="128.5" x2="60" y2="245"/><line x1="72.8" y1="128.5" x2="60" y2="245"/>
  <line x1="72.8" y1="128.5" x2="60" y2="245" stroke="#FF6B6B" stroke-width="5" opacity="0.6"/><line x1="72.8" y1="128.5" x2="60" y2="245" stroke="#FF6B6B" stroke-width="5" opacity="0.6"/>
</g>

</svg>