<svg xmlns="http://www.w3.org/2000/svg" viewBox="0 0 400 300">
<rect width="400" height="300" fill="#0f0f1a"/>
<line x1="20" y1="250" x2="380" y2="250" stroke="#444" stroke-width="3" stroke-linecap="round"/>
<text x="200" y="38" fill="#888" font-size="13" font-family="sans-serif" text-anchor="middle">Hamstring Stretch</text>
<text x="200" y="58" fill="#666" font-size="10" font-family="sans-serif" text-anchor="middle">Seated with one leg extended, reach toward foot, hold.</text>
<g stroke="#555" stroke-width="2" fill="none" stroke-linecap="round" stroke-linejoin="round" opacity="0.25">
  <circle cx="155" cy="138" r="10" fill="#444" stroke="none"/>
  <line x1="155" y1="138" x2="155" y2="158"/><line x1="155" y1="158" x2="155" y2="173"/><line x1="155" y1="173" x2="155" y2="248"/><line x1="155" y1="173" x2="135" y2="183"/><line x1="135" y1="183" x2="125" y2="198"/><line x1="155" y1="173" x2="175" y2="183"/><line x1="175" y1="183" x2="185" y2="198"/><line x1="155" y1="248" x2="225" y2="235"/><line x1="225" y1="235" x2="255" y2="248"/><line x1="155" y1="248" x2="205" y2="235"/><line x1="205" y1="235" x2="235" y2="248"/>
</g>
<g stroke="#FFF" stroke-width="4" fill="none" stroke-linecap="round" stroke-linejoin="round">
  <circle cx="193.2" cy="149.5" r="10" fill="#FFF" stroke="none"/>
  <line x1="193.2" y1="149.5" x2="193.2" y2="169.5"/><line x1="193.2" y1="169.5" x2="188.5" y2="182.6"/><line x1="188.5" y1="182.6" x2="169.3" y2="249"/><line x1="188.5" y1="182.6" x2="182.8" y2="197.3"/><line x1="182.8" y1="197.3" x2="191.9" y2="217.1"/><line x1="188.5" y1="182.6" x2="222.8" y2="197.3"/><line x1="222.8" y1="197.3" x2="251.9" y2="217.1"/><line x1="169.3" y1="249" x2="225" y2="235"/><line x1="225" y1="235" x2="255" y2="248"/><line x1="169.3" y1="249" x2="205" y2="235"/><line x1="205" y1="235" x2="235" y2="248"/>
  <line x1="169.3" y1="249" x2="225" y2="235" stroke="#FF6B6B" stroke-width="5" opacity="0.6"/><line x1="225" y1="235" x2="255" y2="248" stroke="#FF6B6B" stroke-width="5" opacity="0.6"/>
</g>
<line x1="191.92729766803842" y1="217.12208504801097" x2="246.92729766803842" y2="217.12208504801097" stroke="#FF6B6B" stroke-width="2" stroke-dasharray="4,3"/><polygon points="246.92729766803842,212.12208504801097 256.9272976680384,217.12208504801097 246.92729766803842,222.12208504801097" fill="#FF6B6B"/><text x="219.42729766803842" y="133" fill="#FF6B6B" font-size="10" text-anchor="middle" font-family="sans-serif">Reach forward</text>
</svg>