<svg xmlns="http://www.w3.org/2000/svg" viewBox="0 0 400 300">
<rect width="400" height="300" fill="#0f0f1a"/>
<line x1="20" y1="250" x2="380" y2="250" stroke="#444" stroke-width="3" stroke-linecap="round"/>
<text x="200" y="38" fill="#888" font-size="13" font-family="sans-serif" text-anchor="middle">Hamstring Stretch</text>
<text x="200" y="58" fill="#666" font-size="10" font-family="sans-serif" text-anchor="middle">Seated with one leg extended, reach toward foot, hold.</text>
<g stroke="#555" stroke-width="2" fill="none" stroke-linecap="round" stroke-linejoin="round" opacity="0.25">
  <circle cx="155" cy="138" r="10" fill="#444" stroke="none"/>
  <line x1="155" y1="138" x2="155" y2="158"/><line x1="155" y1="158" x2="155" y2="173"/><line x1="155" y1="173" x2="155" y2="248"/><line x1="155" y1="173" x2="135" y2="183"/><line x1="135" y1="183" x2="125" y2="198"/><line x1="155" y1="173" x2="175" y2="183"/><line x1="175" y1="183" x2="185" y2="198"/><line x1="155" y1="248" x2="225" y2="235"/><line x1="225" y1="235" x2="255" y2="248"/><line x1="155" y1="248" x2="205" y2="235"/><line x1="205" y1="235" x2="235" y2="248"/>
</g>
<g stroke="#FFF" stroke-width="4" fill="none" stroke-linecap="round" stroke-linejoin="round">
  <circle cx="190.4" cy="148.6" r="10" fill="#FFF" stroke="none"/>
  <line x1="190.4" y1="148.6" x2="190.4" y2="168.6"/><line x1="190.4" y1="168.6" x2="186" y2="181.9"/><line x1="186" y1="181.9" x2="168.3" y2="249"/><line x1="186" y1="181.9" x2="179.3" y2="196.3"/><line x1="179.3" y1="196.3" x2="187" y2="215.7"/><line x1="186" y1="181.9" x2="219.3" y2="196.3"/><line x1="219.3" y1="196.3" x2="247" y2="215.7"/><line x1="168.3" y1="249" x2="225" y2="235"/><line x1="225" y1="235" x2="255" y2="248"/><line x1="168.3" y1="249" x2="205" y2="235"/><line x1="205" y1="235" x2="235" y2="248"/>
  <line x1="168.3" y1="249" x2="225" y2="235" stroke="#FF6B6B" stroke-width="5" opacity="0.6"/><line x1="225" y1="235" x2="255" y2="248" stroke="#FF6B6B" stroke-width="5" opacity="0.6"/>
</g>
<line x1="187.0121742112483" y1="215.71776406035664" x2="242.0121742112483" y2="215.71776406035664" stroke="#FF6B6B" stroke-width="2" stroke-dasharray="4,3"/><polygon points="242.0121742112483,210.71776406035664 252.0121742112483,215.71776406035664 242.0121742112483,220.71776406035664" fill="#FF6B6B"/><text x="214.5121742112483" y="133" fill="#FF6B6B" font-size="10" text-anchor="middle" font-family="sans-serif">Reach forward</text>
</svg>