<svg xmlns="http://www.w3.org/2000/svg" viewBox="0 0 400 300">
<rect width="400" height="300" fill="#0f0f1a"/>
<line x1="20" y1="250" x2="380" y2="250" stroke="#444" stroke-width="3" stroke-linecap="round"/>
<text x="200" y="38" fill="#888" font-size="13" font-family="sans-serif" text-anchor="middle">Hamstring Stretch</text>
<text x="200" y="58" fill="#666" font-size="10" font-family="sans-serif" text-anchor="middle">Seated with one leg extended, reach toward foot, hold.</text>
<g stroke="#555" stroke-width="2" fill="none" stroke-linecap="round" stroke-linejoin="round" opacity="0.25">
  <circle cx="155" cy="138" r="10" fill="#444" stroke="none"/>
  <line x1="155" y1="138" x2="155" y2="158"/><line x1="155" y1="158" x2="155" y2="173"/><line x1="155" y1="173" x2="155" y2="248"/><line x1="155" y1="173" x2="135" y2="183"/><line x1="135" y1="183" x2="125" y2="198"/><line x1="155" y1="173" x2="175" y2="183"/><line x1="175" y1="183" x2="185" y2="198"/><line x1="155" y1="248" x2="225" y2="235"/><line x1="225" y1="235" x2="255" y2="248"/><line x1="155" y1="248" x2="205" y2="235"/><line x1="205" y1="235" x2="235" y2="248"/>
</g>
<g stroke="#FFF" stroke-width="4" fill="none" stroke-linecap="round" stroke-linejoin="round">
  <circle cx="157.5" cy="138.8" r="10" fill="#FFF" stroke="none"/>
  <line x1="157.5" y1="138.8" x2="157.5" y2="158.8"/><line x1="157.5" y1="158.8" x2="157.2" y2="173.6"/><line x1="157.2" y1="173.6" x2="155.9" y2="248.3"/><line x1="157.2" y1="173.6" x2="138.1" y2="183.9"/><line x1="138.1" y1="183.9" x2="129.4" y2="199.3"/><line x1="157.2" y1="173.6" x2="178.1" y2="183.9"/><line x1="178.1" y1="183.9" x2="189.4" y2="199.3"/><line x1="155.9" y1="248.3" x2="225" y2="235"/><line x1="225" y1="235" x2="255" y2="248"/><line x1="155.9" y1="248.3" x2="205" y2="235"/><line x1="205" y1="235" x2="235" y2="248"/>
  <line x1="155.9" y1="248.3" x2="225" y2="235" stroke="#FF6B6B" stroke-width="5" opacity="0.6"/><line x1="225" y1="235" x2="255" y2="248" stroke="#FF6B6B" stroke-width="5" opacity="0.6"/>
</g>
<line x1="129.375" y1="199.25" x2="184.375" y2="199.25" stroke="#FF6B6B" stroke-width="2" stroke-dasharray="4,3"/><polygon points="184.375,194.25 194.375,199.25 184.375,204.25" fill="#FF6B6B"/><text x="156.875" y="133" fill="#FF6B6B" font-size="10" text-anchor="middle" font-family="sans-serif">Reach forward</text>
</svg>