<svg xmlns="http://www.w3.org/2000/svg" viewBox="0 0 400 300">
<rect width="400" height="300" fill="#0f0f1a"/>
<line x1="20" y1="250" x2="380" y2="250" stroke="#444" stroke-width="3" stroke-linecap="round"/>
<text x="200" y="38" fill="#888" font-size="13" font-family="sans-serif" text-anchor="middle">Hamstring Stretch</text>
<text x="200" y="58" fill="#666" font-size="10" font-family="sans-serif" text-anchor="middle">Seated with one leg extended, reach toward foot, hold.</text>
<g stroke="#555" stroke-width="2" fill="none" stroke-linecap="round" stroke-linejoin="round" opacity="0.25">
  <circle cx="155" cy="138" r="10" fill="#444" stroke="none"/>
  <line x1="155" y1="138" x2="155" y2="158"/><line x1="155" y1="158" x2="155" y2="173"/><line x1="155" y1="173" x2="155" y2="248"/><line x1="155" y1="173" x2="135" y2="183"/><line x1="135" y1="183" x2="125" y2="198"/><line x1="155" y1="173" x2="175" y2="183"/><line x1="175" y1="183" x2="185" y2="198"/><line x1="155" y1="248" x2="225" y2="235"/><line x1="225" y1="235" x2="255" y2="248"/><line x1="155" y1="248" x2="205" y2="235"/><line x1="205" y1="235" x2="235" y2="248"/>
</g>
<g stroke="#FFF" stroke-width="4" fill="none" stroke-linecap="round" stroke-linejoin="round">
  <circle cx="194.9" cy="150" r="10" fill="#FFF" stroke="none"/>
  <line x1="194.9" y1="150" x2="194.9" y2="170"/><line x1="194.9" y1="170" x2="189.9" y2="183"/><line x1="189.9" y1="183" x2="170" y2="249"/><line x1="189.9" y1="183" x2="184.9" y2="198"/><line x1="184.9" y1="198" x2="194.8" y2="218"/><line x1="189.9" y1="183" x2="224.9" y2="198"/><line x1="224.9" y1="198" x2="254.8" y2="218"/><line x1="170" y1="249" x2="225" y2="235"/><line x1="225" y1="235" x2="255" y2="248"/><line x1="170" y1="249" x2="205" y2="235"/><line x1="205" y1="235" x2="235" y2="248"/>
  <line x1="170" y1="249" x2="225" y2="235" stroke="#FF6B6B" stroke-width="5" opacity="0.6"/><line x1="225" y1="235" x2="255" y2="248" stroke="#FF6B6B" stroke-width="5" opacity="0.6"/>
</g>
<line x1="194.83796296296296" y1="217.9537037037037" x2="249.83796296296296" y2="217.9537037037037" stroke="#FF6B6B" stroke-width="2" stroke-dasharray="4,3"/><polygon points="249.83796296296296,212.9537037037037 259.83796296296293,217.9537037037037 249.83796296296296,222.9537037037037" fill="#FF6B6B"/><text x="222.33796296296296" y="133" fill="#FF6B6B" font-size="10" text-anchor="middle" font-family="sans-serif">Reach</text>
</svg>