<svg xmlns="http://www.w3.org/2000/svg" viewBox="0 0 400 300">
<rect width="400" height="300" fill="#0f0f1a"/>
<line x1="20" y1="250" x2="380" y2="250" stroke="#444" stroke-width="3" stroke-linecap="round"/>
<text x="200" y="38" fill="#888" font-size="13" font-family="sans-serif" text-anchor="middle">Hamstring Stretch</text>
<text x="200" y="58" fill="#666" font-size="10" font-family="sans-serif" text-anchor="middle">Seated with one leg extended, reach toward foot, hold.</text>
<g stroke="#555" stroke-width="2" fill="none" stroke-linecap="round" stroke-linejoin="round" opacity="0.25">
  <circle cx="155" cy="138" r="10" fill="#444" stroke="none"/>
  <line x1="155" y1="138" x2="155" y2="158"/><line x1="155" y1="158" x2="155" y2="173"/><line x1="155" y1="173" x2="155" y2="248"/><line x1="155" y1="173" x2="135" y2="183"/><line x1="135" y1="183" x2="125" y2="198"/><line x1="155" y1="173" x2="175" y2="183"/><line x1="175" y1="183" x2="185" y2="198"/><line x1="155" y1="248" x2="225" y2="235"/><line x1="225" y1="235" x2="255" y2="248"/><line x1="155" y1="248" x2="205" y2="235"/><line x1="205" y1="235" x2="235" y2="248"/>
</g>
<g stroke="#FFF" stroke-width="4" fill="none" stroke-linecap="round" stroke-linejoin="round">
  <circle cx="169" cy="142.2" r="10" fill="#FFF" stroke="none"/>
  <line x1="169" y1="142.2" x2="169" y2="162.2"/><line x1="169" y1="162.2" x2="167.3" y2="176.5"/><line x1="167.3" y1="176.5" x2="160.3" y2="249"/><line x1="167.3" y1="176.5" x2="152.6" y2="188.3"/><line x1="152.6" y1="188.3" x2="149.6" y2="205"/><line x1="167.3" y1="176.5" x2="192.6" y2="188.3"/><line x1="192.6" y1="188.3" x2="209.6" y2="205"/><line x1="160.3" y1="249" x2="225" y2="235"/><line x1="225" y1="235" x2="255" y2="248"/><line x1="160.3" y1="249" x2="205" y2="235"/><line x1="205" y1="235" x2="235" y2="248"/>
  <line x1="160.3" y1="249" x2="225" y2="235" stroke="#FF6B6B" stroke-width="5" opacity="0.6"/><line x1="225" y1="235" x2="255" y2="248" stroke="#FF6B6B" stroke-width="5" opacity="0.6"/>
</g>
<line x1="149.58161865569272" y1="205.02331961591221" x2="204.58161865569272" y2="205.02331961591221" stroke="#FF6B6B" stroke-width="2" stroke-dasharray="4,3"/><polygon points="204.58161865569272,200.02331961591221 214.58161865569272,205.02331961591221 204.58161865569272,210.02331961591221" fill="#FF6B6B"/><text x="177.08161865569272" y="133" fill="#FF6B6B" font-size="10" text-anchor="middle" font-family="sans-serif">Reach forward</text>
</svg>