<svg xmlns="http://www.w3.org/2000/svg" viewBox="0 0 400 300">
<rect width="400" height="300" fill="#0f0f1a"/>
<line x1="20" y1="250" x2="380" y2="250" stroke="#444" stroke-width="3" stroke-linecap="round"/>
<text x="200" y="38" fill="#888" font-size="13" font-family="sans-serif" text-anchor="middle">Hamstring Stretch</text>
<text x="200" y="58" fill="#666" font-size="10" font-family="sans-serif" text-anchor="middle">Seated with one leg extended, reach toward foot, hold.</text>
<g stroke="#555" stroke-width="2" fill="none" stroke-linecap="round" stroke-linejoin="round" opacity="0.25">
  <circle cx="155" cy="138" r="10" fill="#444" stroke="none"/>
  <line x1="155" y1="138" x2="155" y2="158"/><line x1="155" y1="158" x2="155" y2="173"/><line x1="155" y1="173" x2="155" y2="248"/><line x1="155" y1="173" x2="135" y2="183"/><line x1="135" y1="183" x2="125" y2="198"/><line x1="155" y1="173" x2="175" y2="183"/><line x1="175" y1="183" x2="185" y2="198"/><line x1="155" y1="248" x2="225" y2="235"/><line x1="225" y1="235" x2="255" y2="248"/><line x1="155" y1="248" x2="205" y2="235"/><line x1="205" y1="235" x2="235" y2="248"/>
</g>
<g stroke="#FFF" stroke-width="4" fill="none" stroke-linecap="round" stroke-linejoin="round">
  <circle cx="191.6" cy="149" r="10" fill="#FFF" stroke="none"/>
  <line x1="191.6" y1="149" x2="191.6" y2="169"/><line x1="191.6" y1="169" x2="187" y2="182.1"/><line x1="187" y1="182.1" x2="168.7" y2="249"/><line x1="187" y1="182.1" x2="180.7" y2="196.7"/><line x1="180.7" y1="196.7" x2="189" y2="216.3"/><line x1="187" y1="182.1" x2="220.7" y2="196.7"/><line x1="220.7" y1="196.7" x2="249" y2="216.3"/><line x1="168.7" y1="249" x2="225" y2="235"/><line x1="225" y1="235" x2="255" y2="248"/><line x1="168.7" y1="249" x2="205" y2="235"/><line x1="205" y1="235" x2="235" y2="248"/>
  <line x1="168.7" y1="249" x2="225" y2="235" stroke="#FF6B6B" stroke-width="5" opacity="0.6"/><line x1="225" y1="235" x2="255" y2="248" stroke="#FF6B6B" stroke-width="5" opacity="0.6"/>
</g>
<line x1="188.9986282578875" y1="216.28532235939645" x2="243.9986282578875" y2="216.28532235939645" stroke="#FF6B6B" stroke-width="2" stroke-dasharray="4,3"/><polygon points="243.9986282578875,211.28532235939645 253.9986282578875,216.28532235939645 243.9986282578875,221.28532235939645" fill="#FF6B6B"/><text x="216.4986282578875" y="133" fill="#FF6B6B" font-size="10" text-anchor="middle" font-family="sans-serif">Reach</text>
</svg>