<svg xmlns="http://www.w3.org/2000/svg" viewBox="0 0 400 300">
<rect width="400" height="300" fill="#0f0f1a"/>
<line x1="20" y1="250" x2="380" y2="250" stroke="#444" stroke-width="3" stroke-linecap="round"/>
<text x="200" y="23" fill="#888" font-size="12" font-family="sans-serif" text-anchor="middle">Hamstring Stretch</text>
<text x="200" y="38" fill="#666" font-size="10" font-family="sans-serif" text-anchor="middle">Seated with one leg extended, reach toward foot, hold</text>
<g stroke="#555" stroke-width="2" fill="none" stroke-linecap="round" stroke-linejoin="round" opacity="0.25">
  <circle cx="80" cy="60" r="12" fill="#444" stroke="none"/>
  <line x1="80" y1="60" x2="80" y2="80"/><line x1="80" y1="80" x2="80" y2="95"/><line x1="80" y1="95" x2="80" y2="170"/><line x1="80" y1="95" x2="60" y2="110"/><line x1="60" y1="110" x2="50" y2="125"/><line x1="80" y1="95" x2="100" y2="110"/><line x1="100" y1="110" x2="110" y2="125"/><line x1="80" y1="170" x2="150" y2="175"/><line x1="150" y1="175" x2="180" y2="245"/><line x1="80" y1="170" x2="130" y2="175"/><line x1="130" y1="175" x2="160" y2="245"/>
</g>
<g stroke="#FFF" stroke-width="4" fill="none" stroke-linecap="round" stroke-linejoin="round">
  <circle cx="87.2" cy="62.3" r="12" fill="#FFF" stroke="none"/>
  <line x1="87.2" y1="62.3" x2="87.2" y2="82.3"/><line x1="87.2" y1="82.3" x2="85.8" y2="96.4"/><line x1="85.8" y1="96.4" x2="82.9" y2="170"/><line x1="85.8" y1="96.4" x2="68.7" y2="112.9"/><line x1="68.7" y1="112.9" x2="61.6" y2="129.3"/><line x1="85.8" y1="96.4" x2="108.7" y2="112.9"/><line x1="108.7" y1="112.9" x2="121.6" y2="129.3"/><line x1="82.9" y1="170" x2="150" y2="175"/><line x1="150" y1="175" x2="180" y2="245"/><line x1="82.9" y1="170" x2="130" y2="175"/><line x1="130" y1="175" x2="160" y2="245"/>
  <line x1="82.9" y1="170" x2="150" y2="175" stroke="#FF6B6B" stroke-width="5" opacity="0.6"/><line x1="150" y1="175" x2="180" y2="245" stroke="#FF6B6B" stroke-width="5" opacity="0.6"/>
</g>

</svg>