<svg xmlns="http://www.w3.org/2000/svg" viewBox="0 0 400 300">
<rect width="400" height="300" fill="#0f0f1a"/>
<line x1="20" y1="250" x2="380" y2="250" stroke="#444" stroke-width="3" stroke-linecap="round"/>
<text x="200" y="38" fill="#888" font-size="13" font-family="sans-serif" text-anchor="middle">Hamstring Stretch</text>
<text x="200" y="58" fill="#666" font-size="10" font-family="sans-serif" text-anchor="middle">Seated with one leg extended, reach toward foot, hold</text>
<g stroke="#555" stroke-width="2" fill="none" stroke-linecap="round" stroke-linejoin="round" opacity="0.25">
  <circle cx="155" cy="60" r="10" fill="#444" stroke="none"/>
  <line x1="155" y1="60" x2="155" y2="80"/><line x1="155" y1="80" x2="155" y2="95"/><line x1="155" y1="95" x2="155" y2="170"/><line x1="155" y1="95" x2="135" y2="105"/><line x1="135" y1="105" x2="125" y2="120"/><line x1="155" y1="95" x2="175" y2="105"/><line x1="175" y1="105" x2="185" y2="120"/><line x1="155" y1="170" x2="225" y2="170"/><line x1="225" y1="170" x2="255" y2="245"/><line x1="155" y1="170" x2="205" y2="170"/><line x1="205" y1="170" x2="235" y2="245"/>
</g>
<g stroke="#FFF" stroke-width="4" fill="none" stroke-linecap="round" stroke-linejoin="round">
  <circle cx="194.3" cy="71.8" r="10" fill="#FFF" stroke="none"/>
  <line x1="194.3" y1="71.8" x2="194.3" y2="91.8"/><line x1="194.3" y1="91.8" x2="189.4" y2="104.8"/><line x1="189.4" y1="104.8" x2="169.7" y2="174.9"/><line x1="189.4" y1="104.8" x2="184.1" y2="119.7"/><line x1="184.1" y1="119.7" x2="193.7" y2="139.6"/><line x1="189.4" y1="104.8" x2="224.1" y2="119.7"/><line x1="224.1" y1="119.7" x2="253.7" y2="139.6"/><line x1="169.7" y1="174.9" x2="225" y2="170"/><line x1="225" y1="170" x2="255" y2="245"/><line x1="169.7" y1="174.9" x2="205" y2="170"/><line x1="205" y1="170" x2="235" y2="245"/>
  <line x1="169.7" y1="174.9" x2="225" y2="170" stroke="#FF6B6B" stroke-width="5" opacity="0.6"/><line x1="225" y1="170" x2="255" y2="245" stroke="#FF6B6B" stroke-width="5" opacity="0.6"/>
</g>
<line x1="185" y1="140" x2="240" y2="140" stroke="#FF6B6B" stroke-width="2" stroke-dasharray="4,3"/><polygon points="240,135 250,140 240,145" fill="#FF6B6B"/><text x="212.5" y="133" fill="#FF6B6B" font-size="10" text-anchor="middle" font-family="sans-serif">Reach</text>
</svg>