<svg xmlns="http://www.w3.org/2000/svg" viewBox="0 0 400 300">
<rect width="400" height="300" fill="#0f0f1a"/>
<line x1="20" y1="250" x2="380" y2="250" stroke="#444" stroke-width="3" stroke-linecap="round"/>
<text x="200" y="38" fill="#888" font-size="13" font-family="sans-serif" text-anchor="middle">Hamstring Stretch</text>
<text x="200" y="58" fill="#666" font-size="10" font-family="sans-serif" text-anchor="middle">Seated with one leg extended, reach toward foot, hold.</text>
<g stroke="#555" stroke-width="2" fill="none" stroke-linecap="round" stroke-linejoin="round" opacity="0.25">
  <circle cx="155" cy="138" r="10" fill="#444" stroke="none"/>
  <line x1="155" y1="138" x2="155" y2="158"/><line x1="155" y1="158" x2="155" y2="173"/><line x1="155" y1="173" x2="155" y2="248"/><line x1="155" y1="173" x2="135" y2="183"/><line x1="135" y1="183" x2="125" y2="198"/><line x1="155" y1="173" x2="175" y2="183"/><line x1="175" y1="183" x2="185" y2="198"/><line x1="155" y1="248" x2="225" y2="235"/><line x1="225" y1="235" x2="255" y2="248"/><line x1="155" y1="248" x2="205" y2="235"/><line x1="205" y1="235" x2="235" y2="248"/>
</g>
<g stroke="#FFF" stroke-width="4" fill="none" stroke-linecap="round" stroke-linejoin="round">
  <circle cx="155.7" cy="138.2" r="10" fill="#FFF" stroke="none"/>
  <line x1="155.7" y1="138.2" x2="155.7" y2="158.2"/><line x1="155.7" y1="158.2" x2="155.6" y2="173.2"/><line x1="155.6" y1="173.2" x2="155.3" y2="248.1"/><line x1="155.6" y1="173.2" x2="135.9" y2="183.3"/><line x1="135.9" y1="183.3" x2="126.3" y2="198.4"/><line x1="155.6" y1="173.2" x2="175.9" y2="183.3"/><line x1="175.9" y1="183.3" x2="186.3" y2="198.4"/><line x1="155.3" y1="248.1" x2="225" y2="235"/><line x1="225" y1="235" x2="255" y2="248"/><line x1="155.3" y1="248.1" x2="205" y2="235"/><line x1="205" y1="235" x2="235" y2="248"/>
  <line x1="155.3" y1="248.1" x2="225" y2="235" stroke="#FF6B6B" stroke-width="5" opacity="0.6"/><line x1="225" y1="235" x2="255" y2="248" stroke="#FF6B6B" stroke-width="5" opacity="0.6"/>
</g>
<line x1="126.2962962962963" y1="198.37037037037038" x2="181.2962962962963" y2="198.37037037037038" stroke="#FF6B6B" stroke-width="2" stroke-dasharray="4,3"/><polygon points="181.2962962962963,193.37037037037038 191.2962962962963,198.37037037037038 181.2962962962963,203.37037037037038" fill="#FF6B6B"/><text x="153.7962962962963" y="133" fill="#FF6B6B" font-size="10" text-anchor="middle" font-family="sans-serif">Reach forward</text>
</svg>