<svg xmlns="http://www.w3.org/2000/svg" viewBox="0 0 400 300">
<rect width="400" height="300" fill="#0f0f1a"/>
<line x1="20" y1="260" x2="380" y2="260" stroke="#444" stroke-width="3" stroke-linecap="round"/>
<text x="200" y="38" fill="#888" font-size="13" font-family="sans-serif" text-anchor="middle">Straight Leg Raises</text>
<text x="200" y="58" fill="#666" font-size="10" font-family="sans-serif" text-anchor="middle">Lie on back, one leg straight, lift up to 45 degrees, lower.</text>
<g stroke="#555" stroke-width="2" fill="none" stroke-linecap="round" stroke-linejoin="round" opacity="0.25">
  <circle cx="160" cy="253" r="12" fill="#444" stroke="none"/>
  <line x1="160" y1="253" x2="172" y2="255"/><line x1="172" y1="255" x2="185" y2="257"/><line x1="185" y1="257" x2="230" y2="260"/><line x1="185" y1="257" x2="168" y2="215"/><line x1="168" y1="215" x2="158" y2="195"/><line x1="185" y1="257" x2="202" y2="215"/><line x1="202" y1="215" x2="212" y2="195"/><line x1="230" y1="260" x2="265" y2="210"/><line x1="265" y1="210" x2="280" y2="258"/><line x1="230" y1="260" x2="250" y2="210"/><line x1="250" y1="210" x2="265" y2="258"/>
</g>
<g stroke="#FFF" stroke-width="4" fill="none" stroke-linecap="round" stroke-linejoin="round">
  <circle cx="160" cy="253" r="12" fill="#FFF" stroke="none"/>
  <line x1="160" y1="253" x2="172" y2="255"/><line x1="172" y1="255" x2="185" y2="257"/><line x1="185" y1="257" x2="230" y2="259"/><line x1="185" y1="257" x2="168" y2="215"/><line x1="168" y1="215" x2="158" y2="195"/><line x1="185" y1="257" x2="202" y2="215"/><line x1="202" y1="215" x2="212" y2="195"/><line x1="230" y1="259" x2="264.1" y2="204.3"/><line x1="264.1" y1="204.3" x2="278.1" y2="248.6"/><line x1="230" y1="259" x2="250" y2="210"/><line x1="250" y1="210" x2="265" y2="258"/>
  <line x1="230" y1="259" x2="264.1" y2="204.3" stroke="#FF6B6B" stroke-width="5" opacity="0.6"/><line x1="264.1" y1="204.3" x2="278.1" y2="248.6" stroke="#FF6B6B" stroke-width="5" opacity="0.6"/>
</g>
<line x1="278.116426611797" y1="253.5821330589849" x2="298.116426611797" y2="253.5821330589849" stroke="#FF6B6B" stroke-width="2" stroke-dasharray="4,3"/><polygon points="298.116426611797,248.5821330589849 308.116426611797,253.5821330589849 298.116426611797,258.58213305898494" fill="#FF6B6B"/><text x="288.116426611797" y="148" fill="#FF6B6B" font-size="10" text-anchor="middle" font-family="sans-serif">Lift</text>
</svg>