<svg xmlns="http://www.w3.org/2000/svg" viewBox="0 0 400 300">
<rect width="400" height="300" fill="#0f0f1a"/>
<line x1="20" y1="260" x2="380" y2="260" stroke="#444" stroke-width="3" stroke-linecap="round"/>
<text x="200" y="38" fill="#888" font-size="13" font-family="sans-serif" text-anchor="middle">Wall Sits</text>
<text x="200" y="58" fill="#666" font-size="10" font-family="sans-serif" text-anchor="middle">Lean back against wall, slide down until knees at 90 degrees, hold.</text>
<g stroke="#555" stroke-width="2" fill="none" stroke-linecap="round" stroke-linejoin="round" opacity="0.25">
  <circle cx="160" cy="253" r="12" fill="#444" stroke="none"/>
  <line x1="160" y1="253" x2="172" y2="255"/><line x1="172" y1="255" x2="185" y2="257"/><line x1="185" y1="257" x2="230" y2="260"/><line x1="185" y1="257" x2="168" y2="215"/><line x1="168" y1="215" x2="158" y2="195"/><line x1="185" y1="257" x2="202" y2="215"/><line x1="202" y1="215" x2="212" y2="195"/><line x1="230" y1="260" x2="265" y2="210"/><line x1="265" y1="210" x2="280" y2="258"/><line x1="230" y1="260" x2="250" y2="210"/><line x1="250" y1="210" x2="265" y2="258"/>
</g>
<g stroke="#FFF" stroke-width="4" fill="none" stroke-linecap="round" stroke-linejoin="round">
  <circle cx="160" cy="252.8" r="12" fill="#FFF" stroke="none"/>
  <line x1="160" y1="252.8" x2="172" y2="254.8"/><line x1="172" y1="254.8" x2="185" y2="256.8"/><line x1="185" y1="256.8" x2="230" y2="258.8"/><line x1="185" y1="256.8" x2="168" y2="214.8"/><line x1="168" y1="214.8" x2="158" y2="194.8"/><line x1="185" y1="256.8" x2="202" y2="214.8"/><line x1="202" y1="214.8" x2="212" y2="194.8"/><line x1="230" y1="258.8" x2="260.2" y2="180.9"/><line x1="260.2" y1="180.9" x2="270.4" y2="209.6"/><line x1="230" y1="258.8" x2="250" y2="209.8"/><line x1="250" y1="209.8" x2="265" y2="257.8"/>
  <line x1="230" y1="258.8" x2="260.2" y2="180.9" stroke="#FF6B6B" stroke-width="5" opacity="0.6"/><line x1="260.2" y1="180.9" x2="270.4" y2="209.6" stroke="#FF6B6B" stroke-width="5" opacity="0.6"/>
</g>
<text x="255" y="268.8" fill="#FF6B6B" font-size="10" font-family="sans-serif">Slide down</text>
</svg>