<svg xmlns="http://www.w3.org/2000/svg" viewBox="0 0 400 300">
<rect width="400" height="300" fill="#0f0f1a"/>
<line x1="20" y1="260" x2="380" y2="260" stroke="#444" stroke-width="3" stroke-linecap="round"/>
<text x="200" y="38" fill="#888" font-size="13" font-family="sans-serif" text-anchor="middle">Straight Leg Raises</text>
<text x="200" y="58" fill="#666" font-size="10" font-family="sans-serif" text-anchor="middle">Lie on back, one leg straight, lift up to 45 degrees, lower.</text>
<g stroke="#555" stroke-width="2" fill="none" stroke-linecap="round" stroke-linejoin="round" opacity="0.25">
  <circle cx="160" cy="253" r="12" fill="#444" stroke="none"/>
  <line x1="160" y1="253" x2="172" y2="255"/><line x1="172" y1="255" x2="185" y2="257"/><line x1="185" y1="257" x2="230" y2="260"/><line x1="185" y1="257" x2="168" y2="215"/><line x1="168" y1="215" x2="158" y2="195"/><line x1="185" y1="257" x2="202" y2="215"/><line x1="202" y1="215" x2="212" y2="195"/><line x1="230" y1="260" x2="265" y2="210"/><line x1="265" y1="210" x2="280" y2="258"/><line x1="230" y1="260" x2="250" y2="210"/><line x1="250" y1="210" x2="265" y2="258"/>
</g>
<g stroke="#FFF" stroke-width="4" fill="none" stroke-linecap="round" stroke-linejoin="round">
  <circle cx="160" cy="253" r="12" fill="#FFF" stroke="none"/>
  <line x1="160" y1="253" x2="172" y2="255"/><line x1="172" y1="255" x2="185" y2="257"/><line x1="185" y1="257" x2="230" y2="259"/><line x1="185" y1="257" x2="168" y2="215"/><line x1="168" y1="215" x2="158" y2="195"/><line x1="185" y1="257" x2="202" y2="215"/><line x1="202" y1="215" x2="212" y2="195"/><line x1="230" y1="259" x2="264.9" y2="209.7"/><line x1="264.9" y1="209.7" x2="279.9" y2="257.5"/><line x1="230" y1="259" x2="250" y2="210"/><line x1="250" y1="210" x2="265" y2="258"/>
  <line x1="230" y1="259" x2="264.9" y2="209.7" stroke="#FF6B6B" stroke-width="5" opacity="0.6"/><line x1="264.9" y1="209.7" x2="279.9" y2="257.5" stroke="#FF6B6B" stroke-width="5" opacity="0.6"/>
</g>
<line x1="279.8928326474623" y1="262.46416323731137" x2="299.8928326474623" y2="262.46416323731137" stroke="#FF6B6B" stroke-width="2" stroke-dasharray="4,3"/><polygon points="299.8928326474623,257.46416323731137 309.8928326474623,262.46416323731137 299.8928326474623,267.46416323731137" fill="#FF6B6B"/><text x="289.8928326474623" y="148" fill="#FF6B6B" font-size="10" text-anchor="middle" font-family="sans-serif">Lift</text>
</svg>