<svg xmlns="http://www.w3.org/2000/svg" viewBox="0 0 400 300">
<rect width="400" height="300" fill="#0f0f1a"/>
<line x1="20" y1="250" x2="380" y2="250" stroke="#444" stroke-width="3" stroke-linecap="round"/>
<text x="200" y="38" fill="#888" font-size="13" font-family="sans-serif" text-anchor="middle">Clamshells</text>
<text x="200" y="58" fill="#666" font-size="10" font-family="sans-serif" text-anchor="middle">Lie on side, knees bent stacked; keep feet together and pelvis stable, lift top knee up (external hip rotation), lower with control.</text>
<g stroke="#555" stroke-width="2" fill="none" stroke-linecap="round" stroke-linejoin="round" opacity="0.25">
  <circle cx="130" cy="232" r="12" fill="#444" stroke="none"/>
  <line x1="130" y1="232" x2="142" y2="235"/><line x1="142" y1="235" x2="155" y2="238"/><line x1="155" y1="238" x2="210" y2="245"/><line x1="155" y1="238" x2="180" y2="243"/><line x1="180" y1="243" x2="200" y2="247"/><line x1="210" y1="245" x2="258" y2="237"/><line x1="258" y1="237" x2="238" y2="245"/><line x1="210" y1="245" x2="255" y2="228"/><line x1="255" y1="228" x2="235" y2="243"/>
</g>
<g stroke="#FFF" stroke-width="4" fill="none" stroke-linecap="round" stroke-linejoin="round">
  <circle cx="130" cy="232" r="12" fill="#FFF" stroke="none"/>
  <line x1="130" y1="232" x2="142" y2="235"/><line x1="142" y1="235" x2="155" y2="238"/><line x1="155" y1="238" x2="210" y2="245"/><line x1="155" y1="238" x2="180" y2="243"/><line x1="180" y1="243" x2="200" y2="247"/><line x1="210" y1="245" x2="258" y2="237"/><line x1="258" y1="237" x2="238" y2="245"/><line x1="210" y1="245" x2="262.1" y2="220.9"/><line x1="262.1" y1="220.9" x2="236.9" y2="240.2"/>
  <line x1="210" y1="245" x2="262.1" y2="220.9" stroke="#FFD93D" stroke-width="5" opacity="0.6"/><line x1="262.1" y1="220.9" x2="236.9" y2="240.2" stroke="#FFD93D" stroke-width="5" opacity="0.6"/>
</g>
<path d="M 237.0576131687243 230.9423868312757 Q 262.0576131687243 192.9423868312757 287.0576131687243 230.9423868312757" stroke="#FFD93D" stroke-width="2" fill="none" stroke-dasharray="4,3"/><text x="262.0576131687243" y="188.9423868312757" fill="#FFD93D" font-size="10" text-anchor="middle" font-family="sans-serif">Open</text>
</svg>