<svg xmlns="http://www.w3.org/2000/svg" viewBox="0 0 400 300">
<rect width="400" height="300" fill="#0f0f1a"/>
<line x1="20" y1="260" x2="380" y2="260" stroke="#444" stroke-width="3" stroke-linecap="round"/>
<text x="200" y="38" fill="#888" font-size="13" font-family="sans-serif" text-anchor="middle">Prone Hamstring Curls</text>
<text x="200" y="58" fill="#666" font-size="10" font-family="sans-serif" text-anchor="middle"><tspan x="200" dy="0">Lie face down, curl heel toward glute, return.</tspan></text>
<g stroke="#555" stroke-width="2" fill="none" stroke-linecap="round" stroke-linejoin="round" opacity="0.25">
  <circle cx="120" cy="253" r="12" fill="#444" stroke="none"/>
  <line x1="120" y1="253" x2="138" y2="255"/><line x1="138" y1="255" x2="155" y2="257"/><line x1="155" y1="257" x2="215" y2="258"/><line x1="155" y1="257" x2="145" y2="235"/><line x1="145" y1="235" x2="135" y2="230"/><line x1="155" y1="257" x2="170" y2="235"/><line x1="170" y1="235" x2="180" y2="230"/><line x1="215" y1="258" x2="260" y2="258"/><line x1="260" y1="258" x2="290" y2="258"/><line x1="215" y1="258" x2="255" y2="258"/><line x1="255" y1="258" x2="285" y2="258"/>
</g>
<g stroke="#FFF" stroke-width="4" fill="none" stroke-linecap="round" stroke-linejoin="round">
  <circle cx="120" cy="253" r="12" fill="#FFF" stroke="none"/>
  <line x1="120" y1="253" x2="138" y2="255"/><line x1="138" y1="255" x2="155" y2="257"/><line x1="155" y1="257" x2="215" y2="258"/><line x1="155" y1="257" x2="145" y2="235"/><line x1="145" y1="235" x2="135" y2="230"/><line x1="155" y1="257" x2="170" y2="235"/><line x1="170" y1="235" x2="180" y2="230"/><line x1="215" y1="258" x2="265.8" y2="234.8"/><line x1="265.8" y1="234.8" x2="281.3" y2="226.2"/><line x1="215" y1="258" x2="255" y2="258"/><line x1="255" y1="258" x2="285" y2="258"/>
  <line x1="215" y1="258" x2="265.8" y2="234.8" stroke="#FF6B6B" stroke-width="5" opacity="0.6"/><line x1="265.8" y1="234.8" x2="281.3" y2="226.2" stroke="#FF6B6B" stroke-width="5" opacity="0.6"/>
</g>
<line x1="281.318158436214" y1="231.16658093278463" x2="311.318158436214" y2="231.16658093278463" stroke="#FF6B6B" stroke-width="2" stroke-dasharray="4,3"/><polygon points="311.318158436214,226.16658093278463 321.318158436214,231.16658093278463 311.318158436214,236.16658093278463" fill="#FF6B6B"/><text x="296.318158436214" y="203" fill="#FF6B6B" font-size="10" text-anchor="middle" font-family="sans-serif">Curl heel</text>
</svg>