<svg xmlns="http://www.w3.org/2000/svg" viewBox="0 0 400 300">
<rect width="400" height="300" fill="#0f0f1a"/>
<line x1="20" y1="260" x2="380" y2="260" stroke="#444" stroke-width="3" stroke-linecap="round"/>
<text x="200" y="23" fill="#888" font-size="12" font-family="sans-serif" text-anchor="middle">Prone Hamstring Curls</text>
<text x="200" y="38" fill="#666" font-size="10" font-family="sans-serif" text-anchor="middle">Lie face down, curl heel toward glute, return</text>
<g stroke="#555" stroke-width="2" fill="none" stroke-linecap="round" stroke-linejoin="round" opacity="0.25">
  <circle cx="60" cy="253" r="12" fill="#444" stroke="none"/>
  <line x1="60" y1="253" x2="78" y2="255"/><line x1="78" y1="255" x2="95" y2="257"/><line x1="95" y1="257" x2="155" y2="258"/><line x1="95" y1="257" x2="85" y2="235"/><line x1="85" y1="235" x2="75" y2="230"/><line x1="95" y1="257" x2="110" y2="235"/><line x1="110" y1="235" x2="120" y2="230"/><line x1="155" y1="258" x2="200" y2="258"/><line x1="200" y1="258" x2="230" y2="258"/><line x1="155" y1="258" x2="195" y2="258"/><line x1="195" y1="258" x2="225" y2="258"/>
</g>
<g stroke="#FFF" stroke-width="4" fill="none" stroke-linecap="round" stroke-linejoin="round">
  <circle cx="60" cy="253" r="12" fill="#FFF" stroke="none"/>
  <line x1="60" y1="253" x2="78" y2="255"/><line x1="78" y1="255" x2="95" y2="257"/><line x1="95" y1="257" x2="155" y2="258"/><line x1="95" y1="257" x2="85" y2="235"/><line x1="85" y1="235" x2="75" y2="230"/><line x1="95" y1="257" x2="110" y2="235"/><line x1="110" y1="235" x2="120" y2="230"/><line x1="155" y1="258" x2="203.5" y2="244"/><line x1="203.5" y1="244" x2="224.7" y2="238.7"/><line x1="155" y1="258" x2="195" y2="258"/><line x1="195" y1="258" x2="225" y2="258"/>
  <line x1="155" y1="258" x2="203.5" y2="244" stroke="#FF6B6B" stroke-width="5" opacity="0.6"/><line x1="203.5" y1="244" x2="224.7" y2="238.7" stroke="#FF6B6B" stroke-width="5" opacity="0.6"/>
</g>

</svg>