<svg xmlns="http://www.w3.org/2000/svg" viewBox="0 0 400 300">
<rect width="400" height="300" fill="#0f0f1a"/>
<line x1="20" y1="260" x2="380" y2="260" stroke="#444" stroke-width="3" stroke-linecap="round"/>
<text x="200" y="38" fill="#888" font-size="13" font-family="sans-serif" text-anchor="middle">Prone Hamstring Curls</text>
<text x="200" y="58" fill="#666" font-size="10" font-family="sans-serif" text-anchor="middle"><tspan x="200" dy="0">Lie face down, curl heel toward glute, return.</tspan></text>
<g stroke="#555" stroke-width="2" fill="none" stroke-linecap="round" stroke-linejoin="round" opacity="0.25">
  <circle cx="120" cy="253" r="12" fill="#444" stroke="none"/>
  <line x1="120" y1="253" x2="138" y2="255"/><line x1="138" y1="255" x2="155" y2="257"/><line x1="155" y1="257" x2="215" y2="258"/><line x1="155" y1="257" x2="145" y2="235"/><line x1="145" y1="235" x2="135" y2="230"/><line x1="155" y1="257" x2="170" y2="235"/><line x1="170" y1="235" x2="180" y2="230"/><line x1="215" y1="258" x2="260" y2="258"/><line x1="260" y1="258" x2="290" y2="258"/><line x1="215" y1="258" x2="255" y2="258"/><line x1="255" y1="258" x2="285" y2="258"/>
</g>
<g stroke="#FFF" stroke-width="4" fill="none" stroke-linecap="round" stroke-linejoin="round">
  <circle cx="120" cy="253" r="12" fill="#FFF" stroke="none"/>
  <line x1="120" y1="253" x2="138" y2="255"/><line x1="138" y1="255" x2="155" y2="257"/><line x1="155" y1="257" x2="215" y2="258"/><line x1="155" y1="257" x2="145" y2="235"/><line x1="145" y1="235" x2="135" y2="230"/><line x1="155" y1="257" x2="170" y2="235"/><line x1="170" y1="235" x2="180" y2="230"/><line x1="215" y1="258" x2="261.1" y2="253.4"/><line x1="261.1" y1="253.4" x2="288.3" y2="251.7"/><line x1="215" y1="258" x2="255" y2="258"/><line x1="255" y1="258" x2="285" y2="258"/>
  <line x1="215" y1="258" x2="261.1" y2="253.4" stroke="#FF6B6B" stroke-width="5" opacity="0.6"/><line x1="261.1" y1="253.4" x2="288.3" y2="251.7" stroke="#FF6B6B" stroke-width="5" opacity="0.6"/>
</g>
<line x1="288.2883230452675" y1="256.7238511659808" x2="318.2883230452675" y2="256.7238511659808" stroke="#FF6B6B" stroke-width="2" stroke-dasharray="4,3"/><polygon points="318.2883230452675,251.72385116598082 328.2883230452675,256.7238511659808 318.2883230452675,261.7238511659808" fill="#FF6B6B"/><text x="303.2883230452675" y="203" fill="#FF6B6B" font-size="10" text-anchor="middle" font-family="sans-serif">Curl heel</text>
</svg>