<svg xmlns="http://www.w3.org/2000/svg" viewBox="0 0 400 300">
<rect width="400" height="300" fill="#0f0f1a"/>
<line x1="20" y1="250" x2="380" y2="250" stroke="#444" stroke-width="3" stroke-linecap="round"/>
<text x="200" y="38" fill="#888" font-size="13" font-family="sans-serif" text-anchor="middle">Seated Spinal Twist</text>
<text x="200" y="58" fill="#666" font-size="10" font-family="sans-serif" text-anchor="middle">Seated with legs crossed, twist torso to one side, hold, repeat.</text>
<g stroke="#555" stroke-width="2" fill="none" stroke-linecap="round" stroke-linejoin="round" opacity="0.25">
  <circle cx="155" cy="138" r="10" fill="#444" stroke="none"/>
  <line x1="155" y1="138" x2="155" y2="158"/><line x1="155" y1="158" x2="155" y2="173"/><line x1="155" y1="173" x2="155" y2="248"/><line x1="155" y1="173" x2="135" y2="183"/><line x1="135" y1="183" x2="125" y2="198"/><line x1="155" y1="173" x2="175" y2="183"/><line x1="175" y1="183" x2="185" y2="198"/><line x1="155" y1="248" x2="225" y2="235"/><line x1="225" y1="235" x2="255" y2="248"/><line x1="155" y1="248" x2="205" y2="235"/><line x1="205" y1="235" x2="235" y2="248"/>
</g>
<g stroke="#FFF" stroke-width="4" fill="none" stroke-linecap="round" stroke-linejoin="round">
  <circle cx="157.8" cy="136.5" r="10" fill="#FFF" stroke="none"/>
  <line x1="157.8" y1="136.5" x2="157.8" y2="156.5"/><line x1="157.8" y1="156.5" x2="156.9" y2="172.1"/><line x1="156.9" y1="172.1" x2="155" y2="248"/><line x1="156.9" y1="172.1" x2="135" y2="183"/><line x1="135" y1="183" x2="125" y2="198"/><line x1="156.9" y1="172.1" x2="173.1" y2="183"/><line x1="173.1" y1="183" x2="182.2" y2="198.9"/><line x1="155" y1="248" x2="225" y2="235"/><line x1="225" y1="235" x2="255" y2="248"/><line x1="155" y1="248" x2="205" y2="235"/><line x1="205" y1="235" x2="235" y2="248"/>
  <line x1="157.8" y1="156.5" x2="156.9" y2="172.1" stroke="#22C55E" stroke-width="5" opacity="0.6"/><line x1="156.9" y1="172.1" x2="155" y2="248" stroke="#22C55E" stroke-width="5" opacity="0.6"/>
</g>
<text x="176.9" y="167.1" fill="#22C55E" font-size="10" font-family="sans-serif">Twist</text>
</svg>