<svg xmlns="http://www.w3.org/2000/svg" viewBox="0 0 400 300">
<rect width="400" height="300" fill="#0f0f1a"/>
<line x1="20" y1="230" x2="380" y2="230" stroke="#444" stroke-width="3" stroke-linecap="round"/>
<text x="200" y="23" fill="#888" font-size="12" font-family="sans-serif" text-anchor="middle">Cat-Cow</text>
<text x="200" y="38" fill="#666" font-size="10" font-family="sans-serif" text-anchor="middle">On hands and knees, alternate arching/rounding spine</text>
<!-- Ghost -->
<g stroke="#555" stroke-width="2" fill="none" stroke-linecap="round" stroke-linejoin="round" opacity="0.25">
  <circle cx="60" cy="55" r="12" fill="#444" stroke="none"/>
  <line x1="72" y1="60" x2="90" y2="85"/>
  <line x1="90" y1="85" x2="130" y2="120"/>
  <line x1="90" y1="85" x2="72" y2="228"/><line x1="72" y1="228" x2="60" y2="230"/>
  <line x1="130" y1="120" x2="148" y2="228"/><line x1="148" y1="228" x2="160" y2="230"/>
</g>
<!-- Active -->
<g stroke="#FFF" stroke-width="4" fill="none" stroke-linecap="round" stroke-linejoin="round">
  <circle cx="65.98611111111111" cy="64.97685185185185" r="12" fill="#FFF" stroke="none"/>
  <line x1="75.99074074074075" y1="69.97685185185185" x2="90" y2="90.98611111111111"/>
  <line x1="90" y1="90.98611111111111" x2="130" y2="112.01851851851852"/>
  <line x1="90" y1="90.98611111111111" x2="72" y2="228"/><line x1="72" y1="228" x2="60" y2="230"/>
  <line x1="130" y1="112.01851851851852" x2="148" y2="228"/><line x1="148" y1="228" x2="160" y2="230"/>
  <!-- Spine highlight -->
  <line x1="75.99074074074075" y1="69.97685185185185" x2="90" y2="90.98611111111111" stroke="#22C55E" stroke-width="5" opacity="0.5"/>
  <line x1="90" y1="90.98611111111111" x2="130" y2="112.01851851851852" stroke="#22C55E" stroke-width="5" opacity="0.5"/>
</g>
<path d="M 180 60 Q 210 74.01388888888889 240 60" stroke="#FFD93D" stroke-width="2" fill="none" stroke-dasharray="4,3"/>
<text x="210" y="70.01388888888889" fill="#FFD93D" font-size="10" text-anchor="middle" font-family="sans-serif">Round (Cat)</text>
</svg>