<svg xmlns="http://www.w3.org/2000/svg" viewBox="0 0 400 300">
<rect width="400" height="300" fill="#0f0f1a"/>
<line x1="20" y1="230" x2="380" y2="230" stroke="#444" stroke-width="3" stroke-linecap="round"/>
<text x="200" y="23" fill="#888" font-size="12" font-family="sans-serif" text-anchor="middle">Cat-Cow</text>
<text x="200" y="38" fill="#666" font-size="10" font-family="sans-serif" text-anchor="middle">On hands and knees, alternate arching/rounding spine</text>
<!-- Ghost -->
<g stroke="#555" stroke-width="2" fill="none" stroke-linecap="round" stroke-linejoin="round" opacity="0.25">
  <circle cx="60" cy="55" r="12" fill="#444" stroke="none"/>
  <line x1="72" y1="60" x2="90" y2="85"/>
  <line x1="90" y1="85" x2="130" y2="120"/>
  <line x1="90" y1="85" x2="72" y2="228"/><line x1="72" y1="228" x2="60" y2="230"/>
  <line x1="130" y1="120" x2="148" y2="228"/><line x1="148" y1="228" x2="160" y2="230"/>
</g>
<!-- Active -->
<g stroke="#FFF" stroke-width="4" fill="none" stroke-linecap="round" stroke-linejoin="round">
  <circle cx="61.13014403292181" cy="56.88357338820302" r="12" fill="#FFF" stroke="none"/>
  <line x1="72.75342935528121" y1="61.88357338820302" x2="90" y2="86.1301440329218"/>
  <line x1="90" y1="86.1301440329218" x2="130" y2="118.49314128943759"/>
  <line x1="90" y1="86.1301440329218" x2="72" y2="228"/><line x1="72" y1="228" x2="60" y2="230"/>
  <line x1="130" y1="118.49314128943759" x2="148" y2="228"/><line x1="148" y1="228" x2="160" y2="230"/>
  <!-- Spine highlight -->
  <line x1="72.75342935528121" y1="61.88357338820302" x2="90" y2="86.1301440329218" stroke="#22C55E" stroke-width="5" opacity="0.5"/>
  <line x1="90" y1="86.1301440329218" x2="130" y2="118.49314128943759" stroke="#22C55E" stroke-width="5" opacity="0.5"/>
</g>
<path d="M 180 60 Q 210 78.8698559670782 240 60" stroke="#FFD93D" stroke-width="2" fill="none" stroke-dasharray="4,3"/>
<text x="210" y="74.8698559670782" fill="#FFD93D" font-size="10" text-anchor="middle" font-family="sans-serif">Round (Cat)</text>
</svg>