<svg xmlns="http://www.w3.org/2000/svg" viewBox="0 0 400 300">
<rect width="400" height="300" fill="#0f0f1a"/>
<!-- Floor -->
<line x1="20" y1="210" x2="380" y2="210" stroke="#444" stroke-width="3" stroke-linecap="round"/>
<text x="200" y="23" fill="#888" font-size="12" font-family="sans-serif" text-anchor="middle">Hamstring Slide</text>
<text x="200" y="38" fill="#666" font-size="10" font-family="sans-serif" text-anchor="middle">Lie on back, slide heel along floor, return</text>
<!-- Ghost starting position -->
<g stroke="#555" stroke-width="2" fill="none" stroke-linecap="round" stroke-linejoin="round" opacity="0.25">
  <circle cx="70" cy="130" r="13" fill="#444" stroke="none"/>
  <line x1="83" y1="135" x2="100" y2="145"/>
  <line x1="100" y1="145" x2="160" y2="155"/>
  <line x1="100" y1="145" x2="92" y2="175"/>
  <line x1="160" y1="155" x2="168" y2="208"/><line x1="168" y1="208" x2="188" y2="210"/>
  <line x1="160" y1="155" x2="145" y2="200"/><line x1="145" y1="200" x2="160" y2="210"/>
</g>
<!-- Active figure -->
<g stroke="#FFF" stroke-width="4" fill="none" stroke-linecap="round" stroke-linejoin="round">
  <circle cx="63.4375" cy="122.5" r="13" fill="#FFF" stroke="none"/>
  <line x1="76.4375" y1="127.5" x2="93.4375" y2="137.5"/>
  <line x1="93.4375" y1="137.5" x2="160" y2="147.5"/>
  <line x1="93.4375" y1="137.5" x2="85.4375" y2="167.5"/>
  <!-- Left leg (bent, stays) -->
  <line x1="160" y1="147.5" x2="168" y2="208"/><line x1="168" y1="208" x2="188" y2="210"/>
  <!-- Right leg (slides) -->
  <line x1="160" y1="147.5" x2="223.75" y2="192.125"/>
  <line x2="223.75" x1="266.875" y1="192.125" y2="202.125"/>
  <!-- Highlight sliding leg -->
  <line x1="160" y1="147.5" x2="223.75" y2="192.125" stroke="#FF6B6B" stroke-width="5" opacity="0.6"/>
  <line x2="223.75" x1="266.875" y1="192.125" y2="202.125" stroke="#FF6B6B" stroke-width="5" opacity="0.6"/>
</g>
<!-- Arrow -->

</svg>