<svg xmlns="http://www.w3.org/2000/svg" viewBox="0 0 400 300">
<rect width="400" height="300" fill="#0f0f1a"/>
<line x1="20" y1="190" x2="380" y2="190" stroke="#444" stroke-width="3" stroke-linecap="round"/>
<text x="200" y="38" fill="#888" font-size="13" font-family="sans-serif" text-anchor="middle">Bird Dogs</text>
<text x="200" y="58" fill="#666" font-size="10" font-family="sans-serif" text-anchor="middle">On all fours, simultaneously extend opposite arm forward and leg back, keep hips level and core braced, return and alternate.</text>
<g stroke="#555" stroke-width="2" fill="none" stroke-linecap="round" stroke-linejoin="round" opacity="0.25">
  <circle cx="175" cy="73" r="10" fill="#444" stroke="none"/>
  <line x1="175" y1="73" x2="186" y2="76"/><line x1="186" y1="76" x2="200" y2="87"/><line x1="200" y1="87" x2="240" y2="110"/><line x1="200" y1="87" x2="170" y2="189"/><line x1="240" y1="110" x2="245" y2="145"/><line x1="245" y1="145" x2="255" y2="189"/>
</g>
<g stroke="#FFF" stroke-width="4" fill="none" stroke-linecap="round" stroke-linejoin="round">
  <circle cx="175" cy="73" r="10" fill="#FFF" stroke="none"/>
  <line x1="175" y1="73" x2="186" y2="76"/><line x1="186" y1="76" x2="199.9" y2="86.9"/><line x1="199.9" y1="86.9" x2="240.1" y2="109.9"/><line x1="199.9" y1="86.9" x2="169.4" y2="188.6"/><line x1="240.1" y1="109.9" x2="245.1" y2="144.9"/><line x1="245.1" y1="144.9" x2="255.4" y2="188.7"/>
  <line x1="199.9" y1="86.9" x2="169.4" y2="188.6" stroke="#22C55E" stroke-width="5" opacity="0.6"/><line x1="240.1" y1="109.9" x2="245.1" y2="144.9" stroke="#22C55E" stroke-width="5" opacity="0.6"/><line x1="245.1" y1="144.9" x2="255.4" y2="188.7" stroke="#22C55E" stroke-width="5" opacity="0.6"/>
</g>
<line x1="169.44444444444446" y1="193.62962962962962" x2="204.44444444444446" y2="193.62962962962962" stroke="#22C55E" stroke-width="2" stroke-dasharray="4,3"/><polygon points="204.44444444444446,188.62962962962962 214.44444444444446,193.62962962962962 204.44444444444446,198.62962962962962" fill="#22C55E"/><text x="186.94444444444446" y="123" fill="#22C55E" font-size="10" text-anchor="middle" font-family="sans-serif">Reach fwd</text><line x1="255.37037037037038" y1="193.72222222222223" x2="290.3703703703704" y2="193.72222222222223" stroke="#22C55E" stroke-width="2" stroke-dasharray="4,3"/><polygon points="290.3703703703704,188.72222222222223 300.3703703703704,193.72222222222223 290.3703703703704,198.72222222222223" fill="#22C55E"/><text x="272.8703703703704" y="138" fill="#22C55E" font-size="10" text-anchor="middle" font-family="sans-serif">Extend back</text>
</svg>