<svg xmlns="http://www.w3.org/2000/svg" viewBox="0 0 400 300">
<rect width="400" height="300" fill="#0f0f1a"/>
<line x1="20" y1="190" x2="380" y2="190" stroke="#444" stroke-width="3" stroke-linecap="round"/>
<text x="200" y="38" fill="#888" font-size="13" font-family="sans-serif" text-anchor="middle">Bird Dogs</text>
<text x="200" y="58" fill="#666" font-size="10" font-family="sans-serif" text-anchor="middle">On all fours, simultaneously extend opposite arm forward and leg back, keep hips level and core braced, return and alternate.</text>
<g stroke="#555" stroke-width="2" fill="none" stroke-linecap="round" stroke-linejoin="round" opacity="0.25">
  <circle cx="175" cy="73" r="10" fill="#444" stroke="none"/>
  <line x1="175" y1="73" x2="186" y2="76"/><line x1="186" y1="76" x2="200" y2="87"/><line x1="200" y1="87" x2="240" y2="110"/><line x1="200" y1="87" x2="170" y2="189"/><line x1="240" y1="110" x2="245" y2="145"/><line x1="245" y1="145" x2="255" y2="189"/>
</g>
<g stroke="#FFF" stroke-width="4" fill="none" stroke-linecap="round" stroke-linejoin="round">
  <circle cx="175" cy="73" r="10" fill="#FFF" stroke="none"/>
  <line x1="175" y1="73" x2="186" y2="76"/><line x1="186" y1="76" x2="196.8" y2="83.8"/><line x1="196.8" y1="83.8" x2="243.2" y2="106.8"/><line x1="196.8" y1="83.8" x2="150.5" y2="176"/><line x1="243.2" y1="106.8" x2="248.2" y2="141.8"/><line x1="248.2" y1="141.8" x2="268" y2="179.3"/>
  <line x1="196.8" y1="83.8" x2="150.5" y2="176" stroke="#22C55E" stroke-width="5" opacity="0.6"/><line x1="243.2" y1="106.8" x2="248.2" y2="141.8" stroke="#22C55E" stroke-width="5" opacity="0.6"/><line x1="248.2" y1="141.8" x2="268" y2="179.3" stroke="#22C55E" stroke-width="5" opacity="0.6"/>
</g>
<line x1="150.53497942386832" y1="181.02331961591221" x2="185.53497942386832" y2="181.02331961591221" stroke="#22C55E" stroke-width="2" stroke-dasharray="4,3"/><polygon points="185.53497942386832,176.02331961591221 195.53497942386832,181.02331961591221 185.53497942386832,186.02331961591221" fill="#22C55E"/><text x="168.03497942386832" y="123" fill="#22C55E" font-size="10" text-anchor="middle" font-family="sans-serif">Reach</text><line x1="267.9766803840878" y1="184.26748971193416" x2="302.9766803840878" y2="184.26748971193416" stroke="#22C55E" stroke-width="2" stroke-dasharray="4,3"/><polygon points="302.9766803840878,179.26748971193416 312.9766803840878,184.26748971193416 302.9766803840878,189.26748971193416" fill="#22C55E"/><text x="285.4766803840878" y="138" fill="#22C55E" font-size="10" text-anchor="middle" font-family="sans-serif">Extend</text>
</svg>