<svg xmlns="http://www.w3.org/2000/svg" viewBox="0 0 400 300">
<rect width="400" height="300" fill="#0f0f1a"/>
<line x1="20" y1="190" x2="380" y2="190" stroke="#444" stroke-width="3" stroke-linecap="round"/>
<text x="200" y="38" fill="#888" font-size="13" font-family="sans-serif" text-anchor="middle">Bird Dogs</text>
<text x="200" y="58" fill="#666" font-size="10" font-family="sans-serif" text-anchor="middle">On all fours, simultaneously extend opposite arm forward and leg back, keep hips level and core braced, return and alternate.</text>
<g stroke="#555" stroke-width="2" fill="none" stroke-linecap="round" stroke-linejoin="round" opacity="0.25">
  <circle cx="175" cy="73" r="10" fill="#444" stroke="none"/>
  <line x1="175" y1="73" x2="186" y2="76"/><line x1="186" y1="76" x2="200" y2="87"/><line x1="200" y1="87" x2="240" y2="110"/><line x1="200" y1="87" x2="170" y2="189"/><line x1="240" y1="110" x2="245" y2="145"/><line x1="245" y1="145" x2="255" y2="189"/>
</g>
<g stroke="#FFF" stroke-width="4" fill="none" stroke-linecap="round" stroke-linejoin="round">
  <circle cx="175" cy="73" r="10" fill="#FFF" stroke="none"/>
  <line x1="175" y1="73" x2="186" y2="76"/><line x1="186" y1="76" x2="196.4" y2="83.4"/><line x1="196.4" y1="83.4" x2="243.6" y2="106.4"/><line x1="196.4" y1="83.4" x2="148.7" y2="174.8"/><line x1="243.6" y1="106.4" x2="248.6" y2="141.4"/><line x1="248.6" y1="141.4" x2="269.2" y2="178.3"/>
  <line x1="196.4" y1="83.4" x2="148.7" y2="174.8" stroke="#22C55E" stroke-width="5" opacity="0.6"/><line x1="243.6" y1="106.4" x2="248.6" y2="141.4" stroke="#22C55E" stroke-width="5" opacity="0.6"/><line x1="248.6" y1="141.4" x2="269.2" y2="178.3" stroke="#22C55E" stroke-width="5" opacity="0.6"/>
</g>
<line x1="148.68055555555557" y1="179.78703703703704" x2="183.68055555555557" y2="179.78703703703704" stroke="#22C55E" stroke-width="2" stroke-dasharray="4,3"/><polygon points="183.68055555555557,174.78703703703704 193.68055555555557,179.78703703703704 183.68055555555557,184.78703703703704" fill="#22C55E"/><text x="166.18055555555557" y="123" fill="#22C55E" font-size="10" text-anchor="middle" font-family="sans-serif">Reach</text><line x1="269.21296296296293" y1="183.34027777777777" x2="304.21296296296293" y2="183.34027777777777" stroke="#22C55E" stroke-width="2" stroke-dasharray="4,3"/><polygon points="304.21296296296293,178.34027777777777 314.21296296296293,183.34027777777777 304.21296296296293,188.34027777777777" fill="#22C55E"/><text x="286.71296296296293" y="138" fill="#22C55E" font-size="10" text-anchor="middle" font-family="sans-serif">Extend</text>
</svg>