<svg xmlns="http://www.w3.org/2000/svg" viewBox="0 0 400 300">
<rect width="400" height="300" fill="#0f0f1a"/>
<line x1="20" y1="190" x2="380" y2="190" stroke="#444" stroke-width="3" stroke-linecap="round"/>
<text x="200" y="38" fill="#888" font-size="13" font-family="sans-serif" text-anchor="middle">Bird Dogs</text>
<text x="200" y="58" fill="#666" font-size="10" font-family="sans-serif" text-anchor="middle">On all fours, simultaneously extend opposite arm forward and leg back, keep hips level and core braced, return and alternate.</text>
<g stroke="#555" stroke-width="2" fill="none" stroke-linecap="round" stroke-linejoin="round" opacity="0.25">
  <circle cx="175" cy="73" r="10" fill="#444" stroke="none"/>
  <line x1="175" y1="73" x2="186" y2="76"/><line x1="186" y1="76" x2="200" y2="87"/><line x1="200" y1="87" x2="240" y2="110"/><line x1="200" y1="87" x2="170" y2="189"/><line x1="240" y1="110" x2="245" y2="145"/><line x1="245" y1="145" x2="255" y2="189"/>
</g>
<g stroke="#FFF" stroke-width="4" fill="none" stroke-linecap="round" stroke-linejoin="round">
  <circle cx="175" cy="73" r="10" fill="#FFF" stroke="none"/>
  <line x1="175" y1="73" x2="186" y2="76"/><line x1="186" y1="76" x2="195.4" y2="82.4"/><line x1="195.4" y1="82.4" x2="244.6" y2="105.4"/><line x1="195.4" y1="82.4" x2="142.6" y2="170.7"/><line x1="244.6" y1="105.4" x2="249.6" y2="140.4"/><line x1="249.6" y1="140.4" x2="273.3" y2="175.3"/>
  <line x1="195.4" y1="82.4" x2="142.6" y2="170.7" stroke="#22C55E" stroke-width="5" opacity="0.6"/><line x1="244.6" y1="105.4" x2="249.6" y2="140.4" stroke="#22C55E" stroke-width="5" opacity="0.6"/><line x1="249.6" y1="140.4" x2="273.3" y2="175.3" stroke="#22C55E" stroke-width="5" opacity="0.6"/>
</g>
<line x1="142.57201646090536" y1="175.71467764060355" x2="177.57201646090536" y2="175.71467764060355" stroke="#22C55E" stroke-width="2" stroke-dasharray="4,3"/><polygon points="177.57201646090536,170.71467764060355 187.57201646090536,175.71467764060355 177.57201646090536,180.71467764060355" fill="#22C55E"/><text x="160.07201646090536" y="123" fill="#22C55E" font-size="10" text-anchor="middle" font-family="sans-serif">Reach</text><line x1="273.28532235939645" y1="180.28600823045267" x2="308.28532235939645" y2="180.28600823045267" stroke="#22C55E" stroke-width="2" stroke-dasharray="4,3"/><polygon points="308.28532235939645,175.28600823045267 318.28532235939645,180.28600823045267 308.28532235939645,185.28600823045267" fill="#22C55E"/><text x="290.78532235939645" y="138" fill="#22C55E" font-size="10" text-anchor="middle" font-family="sans-serif">Extend</text>
</svg>