<svg xmlns="http://www.w3.org/2000/svg" viewBox="0 0 400 300">
<rect width="400" height="300" fill="#0f0f1a"/>
<line x1="20" y1="190" x2="380" y2="190" stroke="#444" stroke-width="3" stroke-linecap="round"/>
<text x="200" y="38" fill="#888" font-size="13" font-family="sans-serif" text-anchor="middle">Bird Dogs</text>
<text x="200" y="58" fill="#666" font-size="10" font-family="sans-serif" text-anchor="middle"><tspan x="200" dy="0">On all fours, simultaneously extend opposite arm</tspan><tspan x="200" dy="14">forward and leg back, keep hips level and core braced,</tspan><tspan x="200" dy="14">return and alternate.</tspan></text>
<g stroke="#555" stroke-width="2" fill="none" stroke-linecap="round" stroke-linejoin="round" opacity="0.25">
  <circle cx="175" cy="73" r="10" fill="#444" stroke="none"/>
  <line x1="175" y1="73" x2="186" y2="76"/><line x1="186" y1="76" x2="200" y2="87"/><line x1="200" y1="87" x2="240" y2="110"/><line x1="200" y1="87" x2="170" y2="189"/><line x1="240" y1="110" x2="245" y2="145"/><line x1="245" y1="145" x2="255" y2="189"/>
</g>
<g stroke="#FFF" stroke-width="4" fill="none" stroke-linecap="round" stroke-linejoin="round">
  <circle cx="175" cy="73" r="10" fill="#FFF" stroke="none"/>
  <line x1="175" y1="73" x2="186" y2="76"/><line x1="186" y1="76" x2="195.7" y2="82.7"/><line x1="195.7" y1="82.7" x2="244.3" y2="105.7"/><line x1="195.7" y1="82.7" x2="144.4" y2="172"/><line x1="244.3" y1="105.7" x2="249.3" y2="140.7"/><line x1="249.3" y1="140.7" x2="272" y2="176.2"/>
  <line x1="195.7" y1="82.7" x2="144.4" y2="172" stroke="#22C55E" stroke-width="5" opacity="0.6"/><line x1="244.3" y1="105.7" x2="249.3" y2="140.7" stroke="#22C55E" stroke-width="5" opacity="0.6"/><line x1="249.3" y1="140.7" x2="272" y2="176.2" stroke="#22C55E" stroke-width="5" opacity="0.6"/>
</g>
<line x1="144.44444444444443" y1="176.96296296296296" x2="179.44444444444443" y2="176.96296296296296" stroke="#22C55E" stroke-width="2" stroke-dasharray="4,3"/><polygon points="179.44444444444443,171.96296296296296 189.44444444444443,176.96296296296296 179.44444444444443,181.96296296296296" fill="#22C55E"/><text x="161.94444444444443" y="123" fill="#22C55E" font-size="10" text-anchor="middle" font-family="sans-serif">Reach fwd</text><line x1="272.03703703703707" y1="181.22222222222223" x2="307.03703703703707" y2="181.22222222222223" stroke="#22C55E" stroke-width="2" stroke-dasharray="4,3"/><polygon points="307.03703703703707,176.22222222222223 317.03703703703707,181.22222222222223 307.03703703703707,186.22222222222223" fill="#22C55E"/><text x="289.53703703703707" y="138" fill="#22C55E" font-size="10" text-anchor="middle" font-family="sans-serif">Reach fwd</text>
</svg>