<svg xmlns="http://www.w3.org/2000/svg" viewBox="0 0 400 300">
<rect width="400" height="300" fill="#0f0f1a"/>
<line x1="20" y1="190" x2="380" y2="190" stroke="#444" stroke-width="3" stroke-linecap="round"/>
<text x="200" y="38" fill="#888" font-size="13" font-family="sans-serif" text-anchor="middle">Bird Dogs</text>
<text x="200" y="58" fill="#666" font-size="10" font-family="sans-serif" text-anchor="middle"><tspan x="200" dy="0">On all fours, simultaneously extend opposite arm</tspan><tspan x="200" dy="14">forward and leg back, keep hips level and core braced,</tspan><tspan x="200" dy="14">return and alternate.</tspan></text>
<g stroke="#555" stroke-width="2" fill="none" stroke-linecap="round" stroke-linejoin="round" opacity="0.25">
  <circle cx="175" cy="73" r="10" fill="#444" stroke="none"/>
  <line x1="175" y1="73" x2="186" y2="76"/><line x1="186" y1="76" x2="200" y2="87"/><line x1="200" y1="87" x2="240" y2="110"/><line x1="200" y1="87" x2="170" y2="189"/><line x1="240" y1="110" x2="245" y2="145"/><line x1="245" y1="145" x2="255" y2="189"/>
</g>
<g stroke="#FFF" stroke-width="4" fill="none" stroke-linecap="round" stroke-linejoin="round">
  <circle cx="175" cy="73" r="10" fill="#FFF" stroke="none"/>
  <line x1="175" y1="73" x2="186" y2="76"/><line x1="186" y1="76" x2="195" y2="82"/><line x1="195" y1="82" x2="245" y2="105"/><line x1="195" y1="82" x2="140" y2="169"/><line x1="245" y1="105" x2="250" y2="140"/><line x1="250" y1="140" x2="275" y2="174"/>
  <line x1="195" y1="82" x2="140" y2="169" stroke="#22C55E" stroke-width="5" opacity="0.6"/><line x1="245" y1="105" x2="250" y2="140" stroke="#22C55E" stroke-width="5" opacity="0.6"/><line x1="250" y1="140" x2="275" y2="174" stroke="#22C55E" stroke-width="5" opacity="0.6"/>
</g>
<line x1="140" y1="174" x2="175" y2="174" stroke="#22C55E" stroke-width="2" stroke-dasharray="4,3"/><polygon points="175,169 185,174 175,179" fill="#22C55E"/><text x="157.5" y="123" fill="#22C55E" font-size="10" text-anchor="middle" font-family="sans-serif">Reach fwd</text><line x1="275" y1="179" x2="310" y2="179" stroke="#22C55E" stroke-width="2" stroke-dasharray="4,3"/><polygon points="310,174 320,179 310,184" fill="#22C55E"/><text x="292.5" y="138" fill="#22C55E" font-size="10" text-anchor="middle" font-family="sans-serif">Reach fwd</text>
</svg>