<svg xmlns="http://www.w3.org/2000/svg" viewBox="0 0 400 300">
<rect width="400" height="300" fill="#0f0f1a"/>
<line x1="20" y1="190" x2="380" y2="190" stroke="#444" stroke-width="3" stroke-linecap="round"/>
<text x="200" y="38" fill="#888" font-size="13" font-family="sans-serif" text-anchor="middle">Bird Dogs</text>
<text x="200" y="58" fill="#666" font-size="10" font-family="sans-serif" text-anchor="middle">On all fours, simultaneously extend opposite arm forward and leg back, keep hips level and core braced, return and alternate.</text>
<g stroke="#555" stroke-width="2" fill="none" stroke-linecap="round" stroke-linejoin="round" opacity="0.25">
  <circle cx="175" cy="73" r="10" fill="#444" stroke="none"/>
  <line x1="175" y1="73" x2="186" y2="76"/><line x1="186" y1="76" x2="200" y2="87"/><line x1="200" y1="87" x2="240" y2="110"/><line x1="200" y1="87" x2="170" y2="189"/><line x1="240" y1="110" x2="245" y2="145"/><line x1="245" y1="145" x2="255" y2="189"/>
</g>
<g stroke="#FFF" stroke-width="4" fill="none" stroke-linecap="round" stroke-linejoin="round">
  <circle cx="175" cy="73" r="10" fill="#FFF" stroke="none"/>
  <line x1="175" y1="73" x2="186" y2="76"/><line x1="186" y1="76" x2="197.9" y2="84.9"/><line x1="197.9" y1="84.9" x2="242.1" y2="107.9"/><line x1="197.9" y1="84.9" x2="157.4" y2="180.6"/><line x1="242.1" y1="107.9" x2="247.1" y2="142.9"/><line x1="247.1" y1="142.9" x2="263.4" y2="182.7"/>
  <line x1="197.9" y1="84.9" x2="157.4" y2="180.6" stroke="#22C55E" stroke-width="5" opacity="0.6"/><line x1="242.1" y1="107.9" x2="247.1" y2="142.9" stroke="#22C55E" stroke-width="5" opacity="0.6"/><line x1="247.1" y1="142.9" x2="263.4" y2="182.7" stroke="#22C55E" stroke-width="5" opacity="0.6"/>
</g>
<line x1="157.36368312757202" y1="185.57578875171467" x2="192.36368312757202" y2="185.57578875171467" stroke="#22C55E" stroke-width="2" stroke-dasharray="4,3"/><polygon points="192.36368312757202,180.57578875171467 202.36368312757202,185.57578875171467 192.36368312757202,190.57578875171467" fill="#22C55E"/><text x="174.86368312757202" y="123" fill="#22C55E" font-size="10" text-anchor="middle" font-family="sans-serif">Reach</text><line x1="263.4242112482853" y1="187.681841563786" x2="298.4242112482853" y2="187.681841563786" stroke="#22C55E" stroke-width="2" stroke-dasharray="4,3"/><polygon points="298.4242112482853,182.681841563786 308.4242112482853,187.681841563786 298.4242112482853,192.681841563786" fill="#22C55E"/><text x="280.9242112482853" y="138" fill="#22C55E" font-size="10" text-anchor="middle" font-family="sans-serif">Extend</text>
</svg>