<svg xmlns="http://www.w3.org/2000/svg" viewBox="0 0 400 300">
<rect width="400" height="300" fill="#0f0f1a"/>
<line x1="20" y1="190" x2="380" y2="190" stroke="#444" stroke-width="3" stroke-linecap="round"/>
<text x="200" y="38" fill="#888" font-size="13" font-family="sans-serif" text-anchor="middle">Bird Dogs</text>
<text x="200" y="58" fill="#666" font-size="10" font-family="sans-serif" text-anchor="middle">On all fours, simultaneously extend opposite arm forward and leg back, keep hips level and core braced, return and alternate.</text>
<g stroke="#555" stroke-width="2" fill="none" stroke-linecap="round" stroke-linejoin="round" opacity="0.25">
  <circle cx="175" cy="73" r="10" fill="#444" stroke="none"/>
  <line x1="175" y1="73" x2="186" y2="76"/><line x1="186" y1="76" x2="200" y2="87"/><line x1="200" y1="87" x2="240" y2="110"/><line x1="200" y1="87" x2="170" y2="189"/><line x1="240" y1="110" x2="245" y2="145"/><line x1="245" y1="145" x2="255" y2="189"/>
</g>
<g stroke="#FFF" stroke-width="4" fill="none" stroke-linecap="round" stroke-linejoin="round">
  <circle cx="175" cy="73" r="10" fill="#FFF" stroke="none"/>
  <line x1="175" y1="73" x2="186" y2="76"/><line x1="186" y1="76" x2="195.1" y2="82.1"/><line x1="195.1" y1="82.1" x2="244.9" y2="105.1"/><line x1="195.1" y1="82.1" x2="140.3" y2="169.2"/><line x1="244.9" y1="105.1" x2="249.9" y2="140.1"/><line x1="249.9" y1="140.1" x2="274.8" y2="174.2"/>
  <line x1="195.1" y1="82.1" x2="140.3" y2="169.2" stroke="#22C55E" stroke-width="5" opacity="0.6"/><line x1="244.9" y1="105.1" x2="249.9" y2="140.1" stroke="#22C55E" stroke-width="5" opacity="0.6"/><line x1="249.9" y1="140.1" x2="274.8" y2="174.2" stroke="#22C55E" stroke-width="5" opacity="0.6"/>
</g>
<line x1="140.32150205761317" y1="174.21433470507543" x2="175.32150205761317" y2="174.21433470507543" stroke="#22C55E" stroke-width="2" stroke-dasharray="4,3"/><polygon points="175.32150205761317,169.21433470507543 185.32150205761317,174.21433470507543 175.32150205761317,179.21433470507543" fill="#22C55E"/><text x="157.82150205761317" y="123" fill="#22C55E" font-size="10" text-anchor="middle" font-family="sans-serif">Reach fwd</text><line x1="274.78566529492457" y1="179.16075102880657" x2="309.78566529492457" y2="179.16075102880657" stroke="#22C55E" stroke-width="2" stroke-dasharray="4,3"/><polygon points="309.78566529492457,174.16075102880657 319.78566529492457,179.16075102880657 309.78566529492457,184.16075102880657" fill="#22C55E"/><text x="292.28566529492457" y="138" fill="#22C55E" font-size="10" text-anchor="middle" font-family="sans-serif">Extend back</text>
</svg>