<svg xmlns="http://www.w3.org/2000/svg" viewBox="0 0 400 300">
<rect width="400" height="300" fill="#0f0f1a"/>
<line x1="20" y1="190" x2="380" y2="190" stroke="#444" stroke-width="3" stroke-linecap="round"/>
<text x="200" y="38" fill="#888" font-size="13" font-family="sans-serif" text-anchor="middle">Bird Dogs</text>
<text x="200" y="58" fill="#666" font-size="10" font-family="sans-serif" text-anchor="middle"><tspan x="200" dy="0">On all fours, simultaneously extend opposite arm</tspan><tspan x="200" dy="14">forward and leg back, keep hips level and core braced,</tspan><tspan x="200" dy="14">return and alternate.</tspan></text>
<g stroke="#555" stroke-width="2" fill="none" stroke-linecap="round" stroke-linejoin="round" opacity="0.25">
  <circle cx="175" cy="73" r="10" fill="#444" stroke="none"/>
  <line x1="175" y1="73" x2="186" y2="76"/><line x1="186" y1="76" x2="200" y2="87"/><line x1="200" y1="87" x2="240" y2="110"/><line x1="200" y1="87" x2="170" y2="189"/><line x1="240" y1="110" x2="245" y2="145"/><line x1="245" y1="145" x2="255" y2="189"/>
</g>
<g stroke="#FFF" stroke-width="4" fill="none" stroke-linecap="round" stroke-linejoin="round">
  <circle cx="175" cy="73" r="10" fill="#FFF" stroke="none"/>
  <line x1="175" y1="73" x2="186" y2="76"/><line x1="186" y1="76" x2="196.2" y2="83.2"/><line x1="196.2" y1="83.2" x2="243.8" y2="106.2"/><line x1="196.2" y1="83.2" x2="147.1" y2="173.7"/><line x1="243.8" y1="106.2" x2="248.8" y2="141.2"/><line x1="248.8" y1="141.2" x2="270.3" y2="177.5"/>
  <line x1="196.2" y1="83.2" x2="147.1" y2="173.7" stroke="#22C55E" stroke-width="5" opacity="0.6"/><line x1="243.8" y1="106.2" x2="248.8" y2="141.2" stroke="#22C55E" stroke-width="5" opacity="0.6"/><line x1="248.8" y1="141.2" x2="270.3" y2="177.5" stroke="#22C55E" stroke-width="5" opacity="0.6"/>
</g>
<line x1="147.0576131687243" y1="178.7050754458162" x2="182.0576131687243" y2="178.7050754458162" stroke="#22C55E" stroke-width="2" stroke-dasharray="4,3"/><polygon points="182.0576131687243,173.7050754458162 192.0576131687243,178.7050754458162 182.0576131687243,183.7050754458162" fill="#22C55E"/><text x="164.5576131687243" y="123" fill="#22C55E" font-size="10" text-anchor="middle" font-family="sans-serif">Reach fwd</text><line x1="270.2949245541838" y1="182.52880658436214" x2="305.2949245541838" y2="182.52880658436214" stroke="#22C55E" stroke-width="2" stroke-dasharray="4,3"/><polygon points="305.2949245541838,177.52880658436214 315.2949245541838,182.52880658436214 305.2949245541838,187.52880658436214" fill="#22C55E"/><text x="287.7949245541838" y="138" fill="#22C55E" font-size="10" text-anchor="middle" font-family="sans-serif">Reach fwd</text>
</svg>