<svg xmlns="http://www.w3.org/2000/svg" viewBox="0 0 400 300">
<rect width="400" height="300" fill="#0f0f1a"/>
<line x1="20" y1="190" x2="380" y2="190" stroke="#444" stroke-width="3" stroke-linecap="round"/>
<text x="200" y="38" fill="#888" font-size="13" font-family="sans-serif" text-anchor="middle">Bird Dogs</text>
<text x="200" y="58" fill="#666" font-size="10" font-family="sans-serif" text-anchor="middle"><tspan x="200" dy="0">On all fours, simultaneously extend opposite arm</tspan><tspan x="200" dy="14">forward and leg back, keep hips level and core braced,</tspan><tspan x="200" dy="14">return and alternate.</tspan></text>
<g stroke="#555" stroke-width="2" fill="none" stroke-linecap="round" stroke-linejoin="round" opacity="0.25">
  <circle cx="175" cy="73" r="10" fill="#444" stroke="none"/>
  <line x1="175" y1="73" x2="186" y2="76"/><line x1="186" y1="76" x2="200" y2="87"/><line x1="200" y1="87" x2="240" y2="110"/><line x1="200" y1="87" x2="170" y2="189"/><line x1="240" y1="110" x2="245" y2="145"/><line x1="245" y1="145" x2="255" y2="189"/>
</g>
<g stroke="#FFF" stroke-width="4" fill="none" stroke-linecap="round" stroke-linejoin="round">
  <circle cx="175" cy="73" r="10" fill="#FFF" stroke="none"/>
  <line x1="175" y1="73" x2="186" y2="76"/><line x1="186" y1="76" x2="195.3" y2="82.3"/><line x1="195.3" y1="82.3" x2="244.7" y2="105.3"/><line x1="195.3" y1="82.3" x2="141.9" y2="170.3"/><line x1="244.7" y1="105.3" x2="249.7" y2="140.3"/><line x1="249.7" y1="140.3" x2="273.8" y2="174.9"/>
  <line x1="195.3" y1="82.3" x2="141.9" y2="170.3" stroke="#22C55E" stroke-width="5" opacity="0.6"/><line x1="244.7" y1="105.3" x2="249.7" y2="140.3" stroke="#22C55E" stroke-width="5" opacity="0.6"/><line x1="249.7" y1="140.3" x2="273.8" y2="174.9" stroke="#22C55E" stroke-width="5" opacity="0.6"/>
</g>
<line x1="141.875" y1="175.25" x2="176.875" y2="175.25" stroke="#22C55E" stroke-width="2" stroke-dasharray="4,3"/><polygon points="176.875,170.25 186.875,175.25 176.875,180.25" fill="#22C55E"/><text x="159.375" y="123" fill="#22C55E" font-size="10" text-anchor="middle" font-family="sans-serif">Reach fwd</text><line x1="273.75" y1="179.9375" x2="308.75" y2="179.9375" stroke="#22C55E" stroke-width="2" stroke-dasharray="4,3"/><polygon points="308.75,174.9375 318.75,179.9375 308.75,184.9375" fill="#22C55E"/><text x="291.25" y="138" fill="#22C55E" font-size="10" text-anchor="middle" font-family="sans-serif">Reach fwd</text>
</svg>