<svg xmlns="http://www.w3.org/2000/svg" viewBox="0 0 400 300">
<rect width="400" height="300" fill="#0f0f1a"/>
<line x1="20" y1="190" x2="380" y2="190" stroke="#444" stroke-width="3" stroke-linecap="round"/>
<text x="200" y="38" fill="#888" font-size="13" font-family="sans-serif" text-anchor="middle">Bird Dogs</text>
<text x="200" y="58" fill="#666" font-size="10" font-family="sans-serif" text-anchor="middle"><tspan x="200" dy="0">On all fours, simultaneously extend opposite arm</tspan><tspan x="200" dy="14">forward and leg back, keep hips level and core braced,</tspan><tspan x="200" dy="14">return and alternate.</tspan></text>
<g stroke="#555" stroke-width="2" fill="none" stroke-linecap="round" stroke-linejoin="round" opacity="0.25">
  <circle cx="175" cy="73" r="10" fill="#444" stroke="none"/>
  <line x1="175" y1="73" x2="186" y2="76"/><line x1="186" y1="76" x2="200" y2="87"/><line x1="200" y1="87" x2="240" y2="110"/><line x1="200" y1="87" x2="170" y2="189"/><line x1="240" y1="110" x2="245" y2="145"/><line x1="245" y1="145" x2="255" y2="189"/>
</g>
<g stroke="#FFF" stroke-width="4" fill="none" stroke-linecap="round" stroke-linejoin="round">
  <circle cx="175" cy="73" r="10" fill="#FFF" stroke="none"/>
  <line x1="175" y1="73" x2="186" y2="76"/><line x1="186" y1="76" x2="195.6" y2="82.6"/><line x1="195.6" y1="82.6" x2="244.4" y2="105.6"/><line x1="195.6" y1="82.6" x2="143.4" y2="171.3"/><line x1="244.4" y1="105.6" x2="249.4" y2="140.6"/><line x1="249.4" y1="140.6" x2="272.7" y2="175.7"/>
  <line x1="195.6" y1="82.6" x2="143.4" y2="171.3" stroke="#22C55E" stroke-width="5" opacity="0.6"/><line x1="244.4" y1="105.6" x2="249.4" y2="140.6" stroke="#22C55E" stroke-width="5" opacity="0.6"/><line x1="249.4" y1="140.6" x2="272.7" y2="175.7" stroke="#22C55E" stroke-width="5" opacity="0.6"/>
</g>
<line x1="143.42335390946502" y1="176.28223593964336" x2="178.42335390946502" y2="176.28223593964336" stroke="#22C55E" stroke-width="2" stroke-dasharray="4,3"/><polygon points="178.42335390946502,171.28223593964336 188.42335390946502,176.28223593964336 178.42335390946502,181.28223593964336" fill="#22C55E"/><text x="160.92335390946502" y="123" fill="#22C55E" font-size="10" text-anchor="middle" font-family="sans-serif">Reach fwd</text><line x1="272.71776406035667" y1="180.71167695473252" x2="307.71776406035667" y2="180.71167695473252" stroke="#22C55E" stroke-width="2" stroke-dasharray="4,3"/><polygon points="307.71776406035667,175.71167695473252 317.71776406035667,180.71167695473252 307.71776406035667,185.71167695473252" fill="#22C55E"/><text x="290.21776406035667" y="138" fill="#22C55E" font-size="10" text-anchor="middle" font-family="sans-serif">Reach fwd</text>
</svg>