<svg xmlns="http://www.w3.org/2000/svg" viewBox="0 0 400 300">
<rect width="400" height="300" fill="#0f0f1a"/>
<line x1="20" y1="190" x2="380" y2="190" stroke="#444" stroke-width="3" stroke-linecap="round"/>
<text x="200" y="38" fill="#888" font-size="13" font-family="sans-serif" text-anchor="middle">Bird Dogs</text>
<text x="200" y="58" fill="#666" font-size="10" font-family="sans-serif" text-anchor="middle">On all fours, simultaneously extend opposite arm forward and leg back, keep hips level and core braced, return and alternate.</text>
<g stroke="#555" stroke-width="2" fill="none" stroke-linecap="round" stroke-linejoin="round" opacity="0.25">
  <circle cx="175" cy="73" r="10" fill="#444" stroke="none"/>
  <line x1="175" y1="73" x2="186" y2="76"/><line x1="186" y1="76" x2="200" y2="87"/><line x1="200" y1="87" x2="240" y2="110"/><line x1="200" y1="87" x2="170" y2="189"/><line x1="240" y1="110" x2="245" y2="145"/><line x1="245" y1="145" x2="255" y2="189"/>
</g>
<g stroke="#FFF" stroke-width="4" fill="none" stroke-linecap="round" stroke-linejoin="round">
  <circle cx="175" cy="73" r="10" fill="#FFF" stroke="none"/>
  <line x1="175" y1="73" x2="186" y2="76"/><line x1="186" y1="76" x2="199.9" y2="86.9"/><line x1="199.9" y1="86.9" x2="240.1" y2="109.9"/><line x1="199.9" y1="86.9" x2="169.7" y2="188.8"/><line x1="240.1" y1="109.9" x2="245.1" y2="144.9"/><line x1="245.1" y1="144.9" x2="255.2" y2="188.8"/>
  <line x1="199.9" y1="86.9" x2="169.7" y2="188.8" stroke="#22C55E" stroke-width="5" opacity="0.6"/><line x1="240.1" y1="109.9" x2="245.1" y2="144.9" stroke="#22C55E" stroke-width="5" opacity="0.6"/><line x1="245.1" y1="144.9" x2="255.2" y2="188.8" stroke="#22C55E" stroke-width="5" opacity="0.6"/>
</g>
<line x1="169.67849794238683" y1="193.78566529492454" x2="204.67849794238683" y2="193.78566529492454" stroke="#22C55E" stroke-width="2" stroke-dasharray="4,3"/><polygon points="204.67849794238683,188.78566529492454 214.67849794238683,193.78566529492454 204.67849794238683,198.78566529492454" fill="#22C55E"/><text x="187.17849794238683" y="123" fill="#22C55E" font-size="10" text-anchor="middle" font-family="sans-serif">Reach fwd</text><line x1="255.21433470507546" y1="193.83924897119343" x2="290.21433470507543" y2="193.83924897119343" stroke="#22C55E" stroke-width="2" stroke-dasharray="4,3"/><polygon points="290.21433470507543,188.83924897119343 300.21433470507543,193.83924897119343 290.21433470507543,198.83924897119343" fill="#22C55E"/><text x="272.71433470507543" y="138" fill="#22C55E" font-size="10" text-anchor="middle" font-family="sans-serif">Extend back</text>
</svg>