<svg xmlns="http://www.w3.org/2000/svg" viewBox="0 0 400 300">
<rect width="400" height="300" fill="#0f0f1a"/>
<line x1="20" y1="190" x2="380" y2="190" stroke="#444" stroke-width="3" stroke-linecap="round"/>
<text x="200" y="38" fill="#888" font-size="13" font-family="sans-serif" text-anchor="middle">Bird Dogs</text>
<text x="200" y="58" fill="#666" font-size="10" font-family="sans-serif" text-anchor="middle">On all fours, simultaneously extend opposite arm forward and leg back, keep hips level and core braced, return and alternate.</text>
<g stroke="#555" stroke-width="2" fill="none" stroke-linecap="round" stroke-linejoin="round" opacity="0.25">
  <circle cx="175" cy="73" r="10" fill="#444" stroke="none"/>
  <line x1="175" y1="73" x2="186" y2="76"/><line x1="186" y1="76" x2="200" y2="87"/><line x1="200" y1="87" x2="240" y2="110"/><line x1="200" y1="87" x2="170" y2="189"/><line x1="240" y1="110" x2="245" y2="145"/><line x1="245" y1="145" x2="255" y2="189"/>
</g>
<g stroke="#FFF" stroke-width="4" fill="none" stroke-linecap="round" stroke-linejoin="round">
  <circle cx="175" cy="73" r="10" fill="#FFF" stroke="none"/>
  <line x1="175" y1="73" x2="186" y2="76"/><line x1="186" y1="76" x2="198.8" y2="85.8"/><line x1="198.8" y1="85.8" x2="241.2" y2="108.8"/><line x1="198.8" y1="85.8" x2="162.9" y2="184.3"/><line x1="241.2" y1="108.8" x2="246.2" y2="143.8"/><line x1="246.2" y1="143.8" x2="259.7" y2="185.5"/>
  <line x1="198.8" y1="85.8" x2="162.9" y2="184.3" stroke="#22C55E" stroke-width="5" opacity="0.6"/><line x1="241.2" y1="108.8" x2="246.2" y2="143.8" stroke="#22C55E" stroke-width="5" opacity="0.6"/><line x1="246.2" y1="143.8" x2="259.7" y2="185.5" stroke="#22C55E" stroke-width="5" opacity="0.6"/>
</g>
<line x1="162.9423868312757" y1="189.2949245541838" x2="197.9423868312757" y2="189.2949245541838" stroke="#22C55E" stroke-width="2" stroke-dasharray="4,3"/><polygon points="197.9423868312757,184.2949245541838 207.9423868312757,189.2949245541838 197.9423868312757,194.2949245541838" fill="#22C55E"/><text x="180.4423868312757" y="123" fill="#22C55E" font-size="10" text-anchor="middle" font-family="sans-serif">Reach</text><line x1="259.7050754458162" y1="190.47119341563786" x2="294.7050754458162" y2="190.47119341563786" stroke="#22C55E" stroke-width="2" stroke-dasharray="4,3"/><polygon points="294.7050754458162,185.47119341563786 304.7050754458162,190.47119341563786 294.7050754458162,195.47119341563786" fill="#22C55E"/><text x="277.2050754458162" y="138" fill="#22C55E" font-size="10" text-anchor="middle" font-family="sans-serif">Extend</text>
</svg>