<svg xmlns="http://www.w3.org/2000/svg" viewBox="0 0 400 300">
<rect width="400" height="300" fill="#0f0f1a"/>
<line x1="20" y1="190" x2="380" y2="190" stroke="#444" stroke-width="3" stroke-linecap="round"/>
<text x="200" y="38" fill="#888" font-size="13" font-family="sans-serif" text-anchor="middle">Bird Dogs</text>
<text x="200" y="58" fill="#666" font-size="10" font-family="sans-serif" text-anchor="middle">On all fours, simultaneously extend opposite arm forward and leg back, keep hips level and core braced, return and alternate.</text>
<g stroke="#555" stroke-width="2" fill="none" stroke-linecap="round" stroke-linejoin="round" opacity="0.25">
  <circle cx="175" cy="73" r="10" fill="#444" stroke="none"/>
  <line x1="175" y1="73" x2="186" y2="76"/><line x1="186" y1="76" x2="200" y2="87"/><line x1="200" y1="87" x2="240" y2="110"/><line x1="200" y1="87" x2="170" y2="189"/><line x1="240" y1="110" x2="245" y2="145"/><line x1="245" y1="145" x2="255" y2="189"/>
</g>
<g stroke="#FFF" stroke-width="4" fill="none" stroke-linecap="round" stroke-linejoin="round">
  <circle cx="175" cy="73" r="10" fill="#FFF" stroke="none"/>
  <line x1="175" y1="73" x2="186" y2="76"/><line x1="186" y1="76" x2="195.2" y2="82.2"/><line x1="195.2" y1="82.2" x2="244.8" y2="105.2"/><line x1="195.2" y1="82.2" x2="141.3" y2="169.9"/><line x1="244.8" y1="105.2" x2="249.8" y2="140.2"/><line x1="249.8" y1="140.2" x2="274.1" y2="174.7"/>
  <line x1="195.2" y1="82.2" x2="141.3" y2="169.9" stroke="#22C55E" stroke-width="5" opacity="0.6"/><line x1="244.8" y1="105.2" x2="249.8" y2="140.2" stroke="#22C55E" stroke-width="5" opacity="0.6"/><line x1="249.8" y1="140.2" x2="274.1" y2="174.7" stroke="#22C55E" stroke-width="5" opacity="0.6"/>
</g>
<line x1="141.31687242798353" y1="174.87791495198903" x2="176.31687242798353" y2="174.87791495198903" stroke="#22C55E" stroke-width="2" stroke-dasharray="4,3"/><polygon points="176.31687242798353,169.87791495198903 186.31687242798353,174.87791495198903 176.31687242798353,179.87791495198903" fill="#22C55E"/><text x="158.81687242798353" y="123" fill="#22C55E" font-size="10" text-anchor="middle" font-family="sans-serif">Reach fwd</text><line x1="274.12208504801094" y1="179.65843621399176" x2="309.12208504801094" y2="179.65843621399176" stroke="#22C55E" stroke-width="2" stroke-dasharray="4,3"/><polygon points="309.12208504801094,174.65843621399176 319.12208504801094,179.65843621399176 309.12208504801094,184.65843621399176" fill="#22C55E"/><text x="291.62208504801094" y="138" fill="#22C55E" font-size="10" text-anchor="middle" font-family="sans-serif">Extend back</text>
</svg>