<svg xmlns="http://www.w3.org/2000/svg" viewBox="0 0 400 300">
<rect width="400" height="300" fill="#0f0f1a"/>
<line x1="20" y1="190" x2="380" y2="190" stroke="#444" stroke-width="3" stroke-linecap="round"/>
<text x="200" y="38" fill="#888" font-size="13" font-family="sans-serif" text-anchor="middle">Bird Dogs</text>
<text x="200" y="58" fill="#666" font-size="10" font-family="sans-serif" text-anchor="middle">On all fours, simultaneously extend opposite arm forward and leg back, keep hips level and core braced, return and alternate.</text>
<g stroke="#555" stroke-width="2" fill="none" stroke-linecap="round" stroke-linejoin="round" opacity="0.25">
  <circle cx="175" cy="73" r="10" fill="#444" stroke="none"/>
  <line x1="175" y1="73" x2="186" y2="76"/><line x1="186" y1="76" x2="200" y2="87"/><line x1="200" y1="87" x2="240" y2="110"/><line x1="200" y1="87" x2="170" y2="189"/><line x1="240" y1="110" x2="245" y2="145"/><line x1="245" y1="145" x2="255" y2="189"/>
</g>
<g stroke="#FFF" stroke-width="4" fill="none" stroke-linecap="round" stroke-linejoin="round">
  <circle cx="175" cy="73" r="10" fill="#FFF" stroke="none"/>
  <line x1="175" y1="73" x2="186" y2="76"/><line x1="186" y1="76" x2="197.5" y2="84.5"/><line x1="197.5" y1="84.5" x2="242.5" y2="107.5"/><line x1="197.5" y1="84.5" x2="155" y2="179"/><line x1="242.5" y1="107.5" x2="247.5" y2="142.5"/><line x1="247.5" y1="142.5" x2="265" y2="181.5"/>
  <line x1="197.5" y1="84.5" x2="155" y2="179" stroke="#22C55E" stroke-width="5" opacity="0.6"/><line x1="242.5" y1="107.5" x2="247.5" y2="142.5" stroke="#22C55E" stroke-width="5" opacity="0.6"/><line x1="247.5" y1="142.5" x2="265" y2="181.5" stroke="#22C55E" stroke-width="5" opacity="0.6"/>
</g>
<line x1="155" y1="184" x2="190" y2="184" stroke="#22C55E" stroke-width="2" stroke-dasharray="4,3"/><polygon points="190,179 200,184 190,189" fill="#22C55E"/><text x="172.5" y="123" fill="#22C55E" font-size="10" text-anchor="middle" font-family="sans-serif">Reach</text><line x1="265" y1="186.5" x2="300" y2="186.5" stroke="#22C55E" stroke-width="2" stroke-dasharray="4,3"/><polygon points="300,181.5 310,186.5 300,191.5" fill="#22C55E"/><text x="282.5" y="138" fill="#22C55E" font-size="10" text-anchor="middle" font-family="sans-serif">Extend</text>
</svg>