<svg xmlns="http://www.w3.org/2000/svg" viewBox="0 0 400 300">
<rect width="400" height="300" fill="#0f0f1a"/>
<line x1="20" y1="190" x2="380" y2="190" stroke="#444" stroke-width="3" stroke-linecap="round"/>
<text x="200" y="38" fill="#888" font-size="13" font-family="sans-serif" text-anchor="middle">Bird Dogs</text>
<text x="200" y="58" fill="#666" font-size="10" font-family="sans-serif" text-anchor="middle">On all fours, simultaneously extend opposite arm forward and leg back, keep hips level and core braced, return and alternate.</text>
<g stroke="#555" stroke-width="2" fill="none" stroke-linecap="round" stroke-linejoin="round" opacity="0.25">
  <circle cx="175" cy="73" r="10" fill="#444" stroke="none"/>
  <line x1="175" y1="73" x2="186" y2="76"/><line x1="186" y1="76" x2="200" y2="87"/><line x1="200" y1="87" x2="240" y2="110"/><line x1="200" y1="87" x2="170" y2="189"/><line x1="240" y1="110" x2="245" y2="145"/><line x1="245" y1="145" x2="255" y2="189"/>
</g>
<g stroke="#FFF" stroke-width="4" fill="none" stroke-linecap="round" stroke-linejoin="round">
  <circle cx="175" cy="73" r="10" fill="#FFF" stroke="none"/>
  <line x1="175" y1="73" x2="186" y2="76"/><line x1="186" y1="76" x2="199.3" y2="86.3"/><line x1="199.3" y1="86.3" x2="240.7" y2="109.3"/><line x1="199.3" y1="86.3" x2="165.6" y2="186"/><line x1="240.7" y1="109.3" x2="245.7" y2="144.3"/><line x1="245.7" y1="144.3" x2="258" y2="186.8"/>
  <line x1="199.3" y1="86.3" x2="165.6" y2="186" stroke="#22C55E" stroke-width="5" opacity="0.6"/><line x1="240.7" y1="109.3" x2="245.7" y2="144.3" stroke="#22C55E" stroke-width="5" opacity="0.6"/><line x1="245.7" y1="144.3" x2="258" y2="186.8" stroke="#22C55E" stroke-width="5" opacity="0.6"/>
</g>
<line x1="165.55555555555554" y1="191.03703703703704" x2="200.55555555555554" y2="191.03703703703704" stroke="#22C55E" stroke-width="2" stroke-dasharray="4,3"/><polygon points="200.55555555555554,186.03703703703704 210.55555555555554,191.03703703703704 200.55555555555554,196.03703703703704" fill="#22C55E"/><text x="183.05555555555554" y="123" fill="#22C55E" font-size="10" text-anchor="middle" font-family="sans-serif">Reach</text><line x1="257.962962962963" y1="191.77777777777777" x2="292.962962962963" y2="191.77777777777777" stroke="#22C55E" stroke-width="2" stroke-dasharray="4,3"/><polygon points="292.962962962963,186.77777777777777 302.962962962963,191.77777777777777 292.962962962963,196.77777777777777" fill="#22C55E"/><text x="275.462962962963" y="138" fill="#22C55E" font-size="10" text-anchor="middle" font-family="sans-serif">Extend</text>
</svg>