<svg xmlns="http://www.w3.org/2000/svg" viewBox="0 0 400 300">
<rect width="400" height="300" fill="#0f0f1a"/>
<line x1="20" y1="248" x2="380" y2="248" stroke="#444" stroke-width="3" stroke-linecap="round"/>
<text x="200" y="23" fill="#888" font-size="12" font-family="sans-serif" text-anchor="middle">Hip Flexor Stretch</text>
<text x="200" y="38" fill="#666" font-size="10" font-family="sans-serif" text-anchor="middle">Kneeling lunge, shift weight forward, feel hip stretch, hold</text>
<g stroke="#555" stroke-width="2" fill="none" stroke-linecap="round" stroke-linejoin="round" opacity="0.25">
  <circle cx="60" cy="40" r="12" fill="#444" stroke="none"/>
  <line x1="60" y1="40" x2="60" y2="55"/><line x1="60" y1="55" x2="60" y2="70"/><line x1="60" y1="70" x2="60" y2="120"/><line x1="60" y1="70" x2="40" y2="85"/><line x1="40" y1="85" x2="30" y2="100"/><line x1="60" y1="70" x2="80" y2="85"/><line x1="80" y1="85" x2="90" y2="100"/><line x1="60" y1="120" x2="60" y2="245"/><line x1="60" y1="120" x2="60" y2="245"/>
</g>
<g stroke="#FFF" stroke-width="4" fill="none" stroke-linecap="round" stroke-linejoin="round">
  <circle cx="60.4" cy="39.4" r="12" fill="#FFF" stroke="none"/>
  <line x1="60.4" y1="39.4" x2="60.4" y2="54.4"/><line x1="60.4" y1="54.4" x2="60.6" y2="69.1"/><line x1="60.6" y1="69.1" x2="60.9" y2="118.5"/><line x1="60.6" y1="69.1" x2="40.2" y2="84.4"/><line x1="40.2" y1="84.4" x2="30.2" y2="99.4"/><line x1="60.6" y1="69.1" x2="80.2" y2="84.4"/><line x1="80.2" y1="84.4" x2="90.2" y2="99.4"/><line x1="60.9" y1="118.5" x2="60.6" y2="244.1"/><line x1="60.9" y1="118.5" x2="60.6" y2="244.1"/>
  <line x1="60.9" y1="118.5" x2="60.6" y2="69.1" stroke="#FF9500" stroke-width="5" opacity="0.6"/>
</g>

</svg>