<svg xmlns="http://www.w3.org/2000/svg" viewBox="0 0 400 300">
<rect width="400" height="300" fill="#0f0f1a"/>
<line x1="20" y1="225" x2="380" y2="225" stroke="#444" stroke-width="3" stroke-linecap="round"/>
<text x="200" y="38" fill="#888" font-size="13" font-family="sans-serif" text-anchor="middle">Hip Flexor Stretch</text>
<text x="200" y="58" fill="#666" font-size="10" font-family="sans-serif" text-anchor="middle"><tspan x="200" dy="0">Lunge forward, shift hips forward, feel hip stretch,</tspan><tspan x="200" dy="14">hold.</tspan></text>
<g stroke="#555" stroke-width="2" fill="none" stroke-linecap="round" stroke-linejoin="round" opacity="0.25">
  <circle cx="180" cy="78" r="10" fill="#444" stroke="none"/>
  <line x1="180" y1="78" x2="180" y2="86"/><line x1="180" y1="86" x2="180" y2="95"/><line x1="180" y1="95" x2="175" y2="118"/><line x1="180" y1="95" x2="177" y2="107"/><line x1="177" y1="107" x2="169" y2="119"/><line x1="180" y1="95" x2="223" y2="107"/><line x1="223" y1="107" x2="231" y2="119"/><line x1="175" y1="118" x2="150" y2="223"/><line x1="150" y1="223" x2="140" y2="222"/><line x1="175" y1="118" x2="240" y2="165"/><line x1="240" y1="165" x2="240" y2="222"/>
</g>
<g stroke="#FFF" stroke-width="4" fill="none" stroke-linecap="round" stroke-linejoin="round">
  <circle cx="182.3" cy="79.6" r="10" fill="#FFF" stroke="none"/>
  <line x1="182.3" y1="79.6" x2="182.9" y2="87.6"/><line x1="182.9" y1="87.6" x2="185.2" y2="96.9"/><line x1="185.2" y1="96.9" x2="182.2" y2="120.4"/><line x1="185.2" y1="96.9" x2="177" y2="108"/><line x1="177" y1="108" x2="169" y2="120"/><line x1="185.2" y1="96.9" x2="223" y2="108"/><line x1="223" y1="108" x2="231" y2="120"/><line x1="182.2" y1="120.4" x2="150" y2="224"/><line x1="150" y1="224" x2="140" y2="223"/><line x1="182.2" y1="120.4" x2="240" y2="166"/><line x1="240" y1="166" x2="240" y2="223"/>
  <line x1="182.2" y1="120.4" x2="185.2" y2="96.9" stroke="#FF9500" stroke-width="5" opacity="0.6"/>
</g>
<text x="202.2" y="110.4" fill="#FF9500" font-size="10" font-family="sans-serif">Shift hips</text>
</svg>