<svg xmlns="http://www.w3.org/2000/svg" viewBox="0 0 400 300">
<rect width="400" height="300" fill="#0f0f1a"/>
<line x1="20" y1="225" x2="380" y2="225" stroke="#444" stroke-width="3" stroke-linecap="round"/>
<text x="200" y="38" fill="#888" font-size="13" font-family="sans-serif" text-anchor="middle">Hip Flexor Stretch</text>
<text x="200" y="58" fill="#666" font-size="10" font-family="sans-serif" text-anchor="middle">Kneeling lunge, shift weight forward, feel hip stretch, hold</text>
<g stroke="#555" stroke-width="2" fill="none" stroke-linecap="round" stroke-linejoin="round" opacity="0.25">
  <circle cx="200" cy="73" r="10" fill="#444" stroke="none"/>
  <line x1="200" y1="73" x2="200" y2="81"/><line x1="200" y1="81" x2="200" y2="89"/><line x1="200" y1="89" x2="200" y2="113"/><line x1="200" y1="89" x2="182" y2="99"/><line x1="182" y1="99" x2="174" y2="111"/><line x1="200" y1="89" x2="218" y2="99"/><line x1="218" y1="99" x2="226" y2="111"/><line x1="200" y1="113" x2="195" y2="222"/><line x1="195" y1="222" x2="188" y2="222"/><line x1="200" y1="113" x2="205" y2="222"/><line x1="205" y1="222" x2="212" y2="222"/>
</g>
<g stroke="#FFF" stroke-width="4" fill="none" stroke-linecap="round" stroke-linejoin="round">
  <circle cx="207.1" cy="62.4" r="10" fill="#FFF" stroke="none"/>
  <line x1="207.1" y1="62.4" x2="207.1" y2="70.4"/><line x1="207.1" y1="70.4" x2="208.9" y2="75.7"/><line x1="208.9" y1="75.7" x2="213.3" y2="95.3"/><line x1="208.9" y1="75.7" x2="186.4" y2="94.6"/><line x1="186.4" y1="94.6" x2="178.4" y2="106.6"/><line x1="208.9" y1="75.7" x2="222.4" y2="94.6"/><line x1="222.4" y1="94.6" x2="230.4" y2="106.6"/><line x1="213.3" y1="95.3" x2="199.4" y2="217.6"/><line x1="199.4" y1="217.6" x2="192.4" y2="217.6"/><line x1="213.3" y1="95.3" x2="209.4" y2="217.6"/><line x1="209.4" y1="217.6" x2="216.4" y2="217.6"/>
  <line x1="213.3" y1="95.3" x2="208.9" y2="75.7" stroke="#FF9500" stroke-width="5" opacity="0.6"/>
</g>
<text x="233.3" y="85.3" fill="#FF9500" font-size="10" font-family="sans-serif">Shift</text>
</svg>