<svg xmlns="http://www.w3.org/2000/svg" viewBox="0 0 400 300">
<rect width="400" height="300" fill="#0f0f1a"/>
<line x1="20" y1="225" x2="380" y2="225" stroke="#444" stroke-width="3" stroke-linecap="round"/>
<text x="200" y="38" fill="#888" font-size="13" font-family="sans-serif" text-anchor="middle">Hip Flexor Stretch</text>
<text x="200" y="58" fill="#666" font-size="10" font-family="sans-serif" text-anchor="middle">Kneeling lunge, shift weight forward, feel hip stretch, hold</text>
<g stroke="#555" stroke-width="2" fill="none" stroke-linecap="round" stroke-linejoin="round" opacity="0.25">
  <circle cx="200" cy="73" r="10" fill="#444" stroke="none"/>
  <line x1="200" y1="73" x2="200" y2="81"/><line x1="200" y1="81" x2="200" y2="89"/><line x1="200" y1="89" x2="200" y2="113"/><line x1="200" y1="89" x2="182" y2="99"/><line x1="182" y1="99" x2="174" y2="111"/><line x1="200" y1="89" x2="218" y2="99"/><line x1="218" y1="99" x2="226" y2="111"/><line x1="200" y1="113" x2="195" y2="222"/><line x1="195" y1="222" x2="188" y2="222"/><line x1="200" y1="113" x2="205" y2="222"/><line x1="205" y1="222" x2="212" y2="222"/>
</g>
<g stroke="#FFF" stroke-width="4" fill="none" stroke-linecap="round" stroke-linejoin="round">
  <circle cx="201.9" cy="70.2" r="10" fill="#FFF" stroke="none"/>
  <line x1="201.9" y1="70.2" x2="201.9" y2="78.2"/><line x1="201.9" y1="78.2" x2="202.4" y2="85.5"/><line x1="202.4" y1="85.5" x2="203.5" y2="108.3"/><line x1="202.4" y1="85.5" x2="183.2" y2="97.8"/><line x1="183.2" y1="97.8" x2="175.2" y2="109.8"/><line x1="202.4" y1="85.5" x2="219.2" y2="97.8"/><line x1="219.2" y1="97.8" x2="227.2" y2="109.8"/><line x1="203.5" y1="108.3" x2="196.2" y2="220.8"/><line x1="196.2" y1="220.8" x2="189.2" y2="220.8"/><line x1="203.5" y1="108.3" x2="206.2" y2="220.8"/><line x1="206.2" y1="220.8" x2="213.2" y2="220.8"/>
  <line x1="203.5" y1="108.3" x2="202.4" y2="85.5" stroke="#FF9500" stroke-width="5" opacity="0.6"/>
</g>
<text x="223.5" y="98.3" fill="#FF9500" font-size="10" font-family="sans-serif">Shift</text>
</svg>