<svg xmlns="http://www.w3.org/2000/svg" viewBox="0 0 400 300">
<rect width="400" height="300" fill="#0f0f1a"/>
<line x1="20" y1="225" x2="380" y2="225" stroke="#444" stroke-width="3" stroke-linecap="round"/>
<text x="200" y="38" fill="#888" font-size="13" font-family="sans-serif" text-anchor="middle">Hip Flexor Stretch</text>
<text x="200" y="58" fill="#666" font-size="10" font-family="sans-serif" text-anchor="middle">Kneeling lunge, shift weight forward, feel hip stretch, hold</text>
<g stroke="#555" stroke-width="2" fill="none" stroke-linecap="round" stroke-linejoin="round" opacity="0.25">
  <circle cx="200" cy="73" r="10" fill="#444" stroke="none"/>
  <line x1="200" y1="73" x2="200" y2="81"/><line x1="200" y1="81" x2="200" y2="89"/><line x1="200" y1="89" x2="200" y2="113"/><line x1="200" y1="89" x2="182" y2="99"/><line x1="182" y1="99" x2="174" y2="111"/><line x1="200" y1="89" x2="218" y2="99"/><line x1="218" y1="99" x2="226" y2="111"/><line x1="200" y1="113" x2="195" y2="222"/><line x1="195" y1="222" x2="188" y2="222"/><line x1="200" y1="113" x2="205" y2="222"/><line x1="205" y1="222" x2="212" y2="222"/>
</g>
<g stroke="#FFF" stroke-width="4" fill="none" stroke-linecap="round" stroke-linejoin="round">
  <circle cx="207.6" cy="61.5" r="10" fill="#FFF" stroke="none"/>
  <line x1="207.6" y1="61.5" x2="207.6" y2="69.5"/><line x1="207.6" y1="69.5" x2="209.6" y2="74.7"/><line x1="209.6" y1="74.7" x2="214.3" y2="93.9"/><line x1="209.6" y1="74.7" x2="186.8" y2="94.2"/><line x1="186.8" y1="94.2" x2="178.8" y2="106.2"/><line x1="209.6" y1="74.7" x2="222.8" y2="94.2"/><line x1="222.8" y1="94.2" x2="230.8" y2="106.2"/><line x1="214.3" y1="93.9" x2="199.8" y2="217.2"/><line x1="199.8" y1="217.2" x2="192.8" y2="217.2"/><line x1="214.3" y1="93.9" x2="209.8" y2="217.2"/><line x1="209.8" y1="217.2" x2="216.8" y2="217.2"/>
  <line x1="214.3" y1="93.9" x2="209.6" y2="74.7" stroke="#FF9500" stroke-width="5" opacity="0.6"/>
</g>
<text x="234.3" y="83.9" fill="#FF9500" font-size="10" font-family="sans-serif">Shift</text>
</svg>