<svg xmlns="http://www.w3.org/2000/svg" viewBox="0 0 400 300">
<rect width="400" height="300" fill="#0f0f1a"/>
<line x1="20" y1="225" x2="380" y2="225" stroke="#444" stroke-width="3" stroke-linecap="round"/>
<text x="200" y="38" fill="#888" font-size="13" font-family="sans-serif" text-anchor="middle">Hip Flexor Stretch</text>
<text x="200" y="58" fill="#666" font-size="10" font-family="sans-serif" text-anchor="middle">Lunge forward, shift hips forward, feel hip stretch, hold</text>
<g stroke="#555" stroke-width="2" fill="none" stroke-linecap="round" stroke-linejoin="round" opacity="0.25">
  <circle cx="200" cy="73" r="10" fill="#444" stroke="none"/>
  <line x1="200" y1="73" x2="200" y2="81"/><line x1="200" y1="81" x2="200" y2="89"/><line x1="200" y1="89" x2="200" y2="113"/><line x1="200" y1="89" x2="182" y2="99"/><line x1="182" y1="99" x2="174" y2="111"/><line x1="200" y1="89" x2="218" y2="99"/><line x1="218" y1="99" x2="226" y2="111"/><line x1="200" y1="113" x2="195" y2="170"/><line x1="195" y1="170" x2="190" y2="222"/><line x1="200" y1="113" x2="205" y2="170"/><line x1="205" y1="170" x2="210" y2="222"/>
</g>
<g stroke="#FFF" stroke-width="4" fill="none" stroke-linecap="round" stroke-linejoin="round">
  <circle cx="198.2" cy="74.7" r="10" fill="#FFF" stroke="none"/>
  <line x1="198.2" y1="74.7" x2="198.2" y2="82.7"/><line x1="198.2" y1="82.7" x2="201.5" y2="92.1"/><line x1="201.5" y1="92.1" x2="199.7" y2="119.8"/><line x1="201.5" y1="92.1" x2="172" y2="104"/><line x1="172" y1="104" x2="159" y2="116"/><line x1="201.5" y1="92.1" x2="228" y2="104"/><line x1="228" y1="104" x2="241" y2="116"/><line x1="199.7" y1="119.8" x2="170" y2="145"/><line x1="170" y1="145" x2="150" y2="222"/><line x1="199.7" y1="119.8" x2="225" y2="190"/><line x1="225" y1="190" x2="240" y2="222"/>
  <line x1="199.7" y1="119.8" x2="201.5" y2="92.1" stroke="#FF9500" stroke-width="5" opacity="0.6"/>
</g>
<text x="219.7" y="109.8" fill="#FF9500" font-size="10" font-family="sans-serif">Shift</text>
</svg>