<svg xmlns="http://www.w3.org/2000/svg" viewBox="0 0 400 300">
<rect width="400" height="300" fill="#0f0f1a"/>
<line x1="20" y1="225" x2="380" y2="225" stroke="#444" stroke-width="3" stroke-linecap="round"/>
<text x="200" y="38" fill="#888" font-size="13" font-family="sans-serif" text-anchor="middle">Hip Flexor Stretch</text>
<text x="200" y="58" fill="#666" font-size="10" font-family="sans-serif" text-anchor="middle">Lunge forward, shift hips forward, feel hip stretch, hold.</text>
<g stroke="#555" stroke-width="2" fill="none" stroke-linecap="round" stroke-linejoin="round" opacity="0.25">
  <circle cx="180" cy="78" r="10" fill="#444" stroke="none"/>
  <line x1="180" y1="78" x2="180" y2="86"/><line x1="180" y1="86" x2="180" y2="95"/><line x1="180" y1="95" x2="175" y2="118"/><line x1="180" y1="95" x2="177" y2="107"/><line x1="177" y1="107" x2="169" y2="119"/><line x1="180" y1="95" x2="223" y2="107"/><line x1="223" y1="107" x2="231" y2="119"/><line x1="175" y1="118" x2="150" y2="223"/><line x1="150" y1="223" x2="140" y2="222"/><line x1="175" y1="118" x2="240" y2="165"/><line x1="240" y1="165" x2="240" y2="222"/>
</g>
<g stroke="#FFF" stroke-width="4" fill="none" stroke-linecap="round" stroke-linejoin="round">
  <circle cx="180.8" cy="79.1" r="10" fill="#FFF" stroke="none"/>
  <line x1="180.8" y1="79.1" x2="181" y2="87.1"/><line x1="181" y1="87.1" x2="181.8" y2="96.2"/><line x1="181.8" y1="96.2" x2="177.5" y2="119.4"/><line x1="181.8" y1="96.2" x2="177" y2="107.9"/><line x1="177" y1="107.9" x2="169" y2="119.9"/><line x1="181.8" y1="96.2" x2="223" y2="107.9"/><line x1="223" y1="107.9" x2="231" y2="119.9"/><line x1="177.5" y1="119.4" x2="150" y2="223.9"/><line x1="150" y1="223.9" x2="140" y2="222.9"/><line x1="177.5" y1="119.4" x2="240" y2="165.9"/><line x1="240" y1="165.9" x2="240" y2="222.9"/>
  <line x1="177.5" y1="119.4" x2="181.8" y2="96.2" stroke="#FF9500" stroke-width="5" opacity="0.6"/>
</g>
<text x="197.5" y="109.4" fill="#FF9500" font-size="10" font-family="sans-serif">Shift hips</text>
</svg>