<svg xmlns="http://www.w3.org/2000/svg" viewBox="0 0 400 300">
<rect width="400" height="300" fill="#0f0f1a"/>
<line x1="20" y1="225" x2="380" y2="225" stroke="#444" stroke-width="3" stroke-linecap="round"/>
<text x="200" y="38" fill="#888" font-size="13" font-family="sans-serif" text-anchor="middle">Hip Flexor Stretch</text>
<text x="200" y="58" fill="#666" font-size="10" font-family="sans-serif" text-anchor="middle">Lunge forward, shift hips forward, feel hip stretch, hold.</text>
<g stroke="#555" stroke-width="2" fill="none" stroke-linecap="round" stroke-linejoin="round" opacity="0.25">
  <circle cx="180" cy="78" r="10" fill="#444" stroke="none"/>
  <line x1="180" y1="78" x2="180" y2="86"/><line x1="180" y1="86" x2="180" y2="95"/><line x1="180" y1="95" x2="175" y2="118"/><line x1="180" y1="95" x2="177" y2="107"/><line x1="177" y1="107" x2="169" y2="119"/><line x1="180" y1="95" x2="223" y2="107"/><line x1="223" y1="107" x2="231" y2="119"/><line x1="175" y1="118" x2="150" y2="223"/><line x1="150" y1="223" x2="140" y2="222"/><line x1="175" y1="118" x2="240" y2="165"/><line x1="240" y1="165" x2="240" y2="222"/>
</g>
<g stroke="#FFF" stroke-width="4" fill="none" stroke-linecap="round" stroke-linejoin="round">
  <circle cx="186.8" cy="79.4" r="10" fill="#FFF" stroke="none"/>
  <line x1="186.8" y1="79.4" x2="188.5" y2="87.4"/><line x1="188.5" y1="87.4" x2="195.3" y2="97.2"/><line x1="195.3" y1="97.2" x2="196.3" y2="121.9"/><line x1="195.3" y1="97.2" x2="177" y2="106.7"/><line x1="177" y1="106.7" x2="169" y2="118.7"/><line x1="195.3" y1="97.2" x2="223" y2="106.7"/><line x1="223" y1="106.7" x2="231" y2="118.7"/><line x1="196.3" y1="121.9" x2="150" y2="222.7"/><line x1="150" y1="222.7" x2="140" y2="221.7"/><line x1="196.3" y1="121.9" x2="240" y2="164.7"/><line x1="240" y1="164.7" x2="240" y2="221.7"/>
  <line x1="196.3" y1="121.9" x2="195.3" y2="97.2" stroke="#FF9500" stroke-width="5" opacity="0.6"/>
</g>
<text x="216.3" y="111.9" fill="#FF9500" font-size="10" font-family="sans-serif">Shift hips</text>
</svg>