<svg xmlns="http://www.w3.org/2000/svg" viewBox="0 0 400 300">
<rect width="400" height="300" fill="#0f0f1a"/>
<line x1="20" y1="225" x2="380" y2="225" stroke="#444" stroke-width="3" stroke-linecap="round"/>
<text x="200" y="38" fill="#888" font-size="13" font-family="sans-serif" text-anchor="middle">Hip Flexor Stretch</text>
<text x="200" y="58" fill="#666" font-size="10" font-family="sans-serif" text-anchor="middle">Kneeling lunge, shift weight forward, feel hip stretch, hold</text>
<g stroke="#555" stroke-width="2" fill="none" stroke-linecap="round" stroke-linejoin="round" opacity="0.25">
  <circle cx="200" cy="73" r="10" fill="#444" stroke="none"/>
  <line x1="200" y1="73" x2="200" y2="81"/><line x1="200" y1="81" x2="200" y2="89"/><line x1="200" y1="89" x2="200" y2="113"/><line x1="200" y1="89" x2="182" y2="99"/><line x1="182" y1="99" x2="174" y2="111"/><line x1="200" y1="89" x2="218" y2="99"/><line x1="218" y1="99" x2="226" y2="111"/><line x1="200" y1="113" x2="195" y2="222"/><line x1="195" y1="222" x2="188" y2="222"/><line x1="200" y1="113" x2="205" y2="222"/><line x1="205" y1="222" x2="212" y2="222"/>
</g>
<g stroke="#FFF" stroke-width="4" fill="none" stroke-linecap="round" stroke-linejoin="round">
  <circle cx="202.9" cy="70.1" r="10" fill="#FFF" stroke="none"/>
  <line x1="202.9" y1="70.1" x2="202.9" y2="78.1"/><line x1="202.9" y1="78.1" x2="206.8" y2="84.1"/><line x1="206.8" y1="84.1" x2="209.6" y2="108.2"/><line x1="206.8" y1="84.1" x2="167" y2="99"/><line x1="167" y1="99" x2="154" y2="106"/><line x1="206.8" y1="84.1" x2="223" y2="99"/><line x1="223" y1="99" x2="231" y2="106"/><line x1="209.6" y1="108.2" x2="164.9" y2="177.1"/><line x1="164.9" y1="177.1" x2="137.9" y2="222"/><line x1="209.6" y1="108.2" x2="205" y2="222"/><line x1="205" y1="222" x2="212" y2="222"/>
  <line x1="209.6" y1="108.2" x2="206.8" y2="84.1" stroke="#FF9500" stroke-width="5" opacity="0.6"/>
</g>
<text x="229.6" y="98.2" fill="#FF9500" font-size="10" font-family="sans-serif">Shift</text>
</svg>