<svg xmlns="http://www.w3.org/2000/svg" viewBox="0 0 400 300">
<rect width="400" height="300" fill="#0f0f1a"/>
<line x1="20" y1="225" x2="380" y2="225" stroke="#444" stroke-width="3" stroke-linecap="round"/>
<text x="200" y="38" fill="#888" font-size="13" font-family="sans-serif" text-anchor="middle">Hip Flexor Stretch</text>
<text x="200" y="58" fill="#666" font-size="10" font-family="sans-serif" text-anchor="middle">Lunge forward, shift hips forward, feel hip stretch, hold</text>
<g stroke="#555" stroke-width="2" fill="none" stroke-linecap="round" stroke-linejoin="round" opacity="0.25">
  <circle cx="200" cy="73" r="10" fill="#444" stroke="none"/>
  <line x1="200" y1="73" x2="200" y2="81"/><line x1="200" y1="81" x2="200" y2="89"/><line x1="200" y1="89" x2="200" y2="113"/><line x1="200" y1="89" x2="182" y2="99"/><line x1="182" y1="99" x2="174" y2="111"/><line x1="200" y1="89" x2="218" y2="99"/><line x1="218" y1="99" x2="226" y2="111"/><line x1="200" y1="113" x2="195" y2="170"/><line x1="195" y1="170" x2="190" y2="222"/><line x1="200" y1="113" x2="205" y2="170"/><line x1="205" y1="170" x2="210" y2="222"/>
</g>
<g stroke="#FFF" stroke-width="4" fill="none" stroke-linecap="round" stroke-linejoin="round">
  <circle cx="196.4" cy="75.4" r="10" fill="#FFF" stroke="none"/>
  <line x1="196.4" y1="75.4" x2="196.4" y2="83.4"/><line x1="196.4" y1="83.4" x2="197.9" y2="93.1"/><line x1="197.9" y1="93.1" x2="194.3" y2="121.6"/><line x1="197.9" y1="93.1" x2="172" y2="104"/><line x1="172" y1="104" x2="159" y2="116"/><line x1="197.9" y1="93.1" x2="228" y2="104"/><line x1="228" y1="104" x2="241" y2="116"/><line x1="194.3" y1="121.6" x2="170" y2="145"/><line x1="170" y1="145" x2="150" y2="222"/><line x1="194.3" y1="121.6" x2="225" y2="190"/><line x1="225" y1="190" x2="240" y2="222"/>
  <line x1="194.3" y1="121.6" x2="197.9" y2="93.1" stroke="#FF9500" stroke-width="5" opacity="0.6"/>
</g>
<text x="214.3" y="111.6" fill="#FF9500" font-size="10" font-family="sans-serif">Shift</text>
</svg>