<svg xmlns="http://www.w3.org/2000/svg" viewBox="0 0 400 300">
<rect width="400" height="300" fill="#0f0f1a"/>
<line x1="20" y1="215" x2="380" y2="215" stroke="#444" stroke-width="3" stroke-linecap="round"/>
<text x="200" y="23" fill="#888" font-size="12" font-family="sans-serif" text-anchor="middle">Bridge</text>
<text x="200" y="38" fill="#666" font-size="10" font-family="sans-serif" text-anchor="middle">Lie on back, lift hips up, hold, lower</text>
<!-- Ghost -->
<g stroke="#555" stroke-width="2" fill="none" stroke-linecap="round" stroke-linejoin="round" opacity="0.25">
  <circle cx="65" cy="135" r="13" fill="#444" stroke="none"/>
  <line x1="78" y1="140" x2="95" y2="150"/>
  <line x1="95" y1="150" x2="160" y2="160"/>
  <line x1="95" y1="150" x2="85" y2="180"/><line x1="85" y1="180" x2="80" y2="200"/>
  <line x1="160" y1="160" x2="170" y2="212"/><line x1="170" y1="212" x2="190" y2="214"/>
  <line x1="160" y1="160" x2="145" y2="210"/><line x1="145" y1="210" x2="160" y2="214"/>
</g>
<!-- Active -->
<g stroke="#FFF" stroke-width="4" fill="none" stroke-linecap="round" stroke-linejoin="round">
  <circle cx="65" cy="134.14416152263374" r="13" fill="#FFF" stroke="none"/>
  <line x1="78" y1="138.85888203017834" x2="95" y2="148.00304355281207"/>
  <line x1="95" y1="148.00304355281207" x2="160" y2="154.29441015089162"/>
  <line x1="95" y1="148.00304355281207" x2="85" y2="179.14416152263374"/><line x1="85" y1="179.14416152263374" x2="80" y2="200"/>
  <line x1="160" y1="212" x2="170" y2="212"/><line x1="170" y1="212" x2="190" y2="214"/>
  <line x1="160" y1="210" x2="145" y2="210"/><line x1="145" y1="210" x2="160" y2="214"/>
  <!-- Highlight torso and hips -->
  <line x1="78" y1="138.85888203017834" x2="95" y2="148.00304355281207" stroke="#FF9500" stroke-width="5" opacity="0.5"/>
  <line x1="95" y1="148.00304355281207" x2="160" y2="154.29441015089162" stroke="#FF9500" stroke-width="5" opacity="0.5"/>
</g>
<line x1="120" y1="137.1472050754458" x2="120" y2="83.28832304526749" stroke="#FFD93D" stroke-width="2" stroke-dasharray="4,3"/>
<polygon points="115,83.28832304526749 120,74.28832304526749 125,83.28832304526749" fill="#FFD93D"/>
<text x="130" y="88.28832304526749" fill="#FFD93D" font-size="10" font-family="sans-serif">Lift</text>
</svg>