<svg xmlns="http://www.w3.org/2000/svg" viewBox="0 0 400 300">
<rect width="400" height="300" fill="#0f0f1a"/>
<line x1="20" y1="215" x2="380" y2="215" stroke="#444" stroke-width="3" stroke-linecap="round"/>
<text x="200" y="23" fill="#888" font-size="12" font-family="sans-serif" text-anchor="middle">Bridge</text>
<text x="200" y="38" fill="#666" font-size="10" font-family="sans-serif" text-anchor="middle">Lie on back, lift hips up, hold, lower</text>
<!-- Ghost -->
<g stroke="#555" stroke-width="2" fill="none" stroke-linecap="round" stroke-linejoin="round" opacity="0.25">
  <circle cx="65" cy="135" r="13" fill="#444" stroke="none"/>
  <line x1="78" y1="140" x2="95" y2="150"/>
  <line x1="95" y1="150" x2="160" y2="160"/>
  <line x1="95" y1="150" x2="85" y2="180"/><line x1="85" y1="180" x2="80" y2="200"/>
  <line x1="160" y1="160" x2="170" y2="212"/><line x1="170" y1="212" x2="190" y2="214"/>
  <line x1="160" y1="160" x2="145" y2="210"/><line x1="145" y1="210" x2="160" y2="214"/>
</g>
<!-- Active -->
<g stroke="#FFF" stroke-width="4" fill="none" stroke-linecap="round" stroke-linejoin="round">
  <circle cx="65" cy="133.88888888888889" r="13" fill="#FFF" stroke="none"/>
  <line x1="78" y1="138.51851851851853" x2="95" y2="147.40740740740742"/>
  <line x1="95" y1="147.40740740740742" x2="160" y2="152.5925925925926"/>
  <line x1="95" y1="147.40740740740742" x2="85" y2="178.88888888888889"/><line x1="85" y1="178.88888888888889" x2="80" y2="200"/>
  <line x1="160" y1="212" x2="170" y2="212"/><line x1="170" y1="212" x2="190" y2="214"/>
  <line x1="160" y1="210" x2="145" y2="210"/><line x1="145" y1="210" x2="160" y2="214"/>
  <!-- Highlight torso and hips -->
  <line x1="78" y1="138.51851851851853" x2="95" y2="147.40740740740742" stroke="#FF9500" stroke-width="5" opacity="0.5"/>
  <line x1="95" y1="147.40740740740742" x2="160" y2="152.5925925925926" stroke="#FF9500" stroke-width="5" opacity="0.5"/>
</g>

</svg>