<svg xmlns="http://www.w3.org/2000/svg" viewBox="0 0 400 300">
<rect width="400" height="300" fill="#0f0f1a"/>
<line x1="20" y1="225" x2="380" y2="225" stroke="#444" stroke-width="3" stroke-linecap="round"/>
<text x="200" y="38" fill="#888" font-size="13" font-family="sans-serif" text-anchor="middle">Romanian Deadlifts</text>
<text x="200" y="58" fill="#666" font-size="10" font-family="sans-serif" text-anchor="middle"><tspan x="200" dy="0">Hip hinge forward with slight knee bend, return.</tspan></text>
<g stroke="#555" stroke-width="2" fill="none" stroke-linecap="round" stroke-linejoin="round" opacity="0.25">
  <circle cx="200" cy="73" r="10" fill="#444" stroke="none"/>
  <line x1="200" y1="73" x2="200" y2="81"/><line x1="200" y1="81" x2="200" y2="89"/><line x1="200" y1="89" x2="200" y2="113"/><line x1="200" y1="89" x2="182" y2="99"/><line x1="182" y1="99" x2="174" y2="111"/><line x1="200" y1="89" x2="218" y2="99"/><line x1="218" y1="99" x2="226" y2="111"/><line x1="200" y1="113" x2="195" y2="170"/><line x1="195" y1="170" x2="190" y2="222"/><line x1="200" y1="113" x2="205" y2="170"/><line x1="205" y1="170" x2="210" y2="222"/>
</g>
<g stroke="#FFF" stroke-width="4" fill="none" stroke-linecap="round" stroke-linejoin="round">
  <circle cx="196.8" cy="86" r="10" fill="#FFF" stroke="none"/>
  <line x1="196.8" y1="86" x2="196.8" y2="94"/><line x1="196.8" y1="94" x2="196.8" y2="102"/><line x1="196.8" y1="102" x2="196.8" y2="119.5"/><line x1="196.8" y1="102" x2="178.8" y2="118.5"/><line x1="178.8" y1="118.5" x2="170.8" y2="137"/><line x1="196.8" y1="102" x2="214.8" y2="118.5"/><line x1="214.8" y1="118.5" x2="222.8" y2="137"/><line x1="196.8" y1="119.5" x2="195" y2="170"/><line x1="195" y1="170" x2="190" y2="222"/><line x1="196.8" y1="119.5" x2="205" y2="170"/><line x1="205" y1="170" x2="210" y2="222"/>
  <line x1="196.8" y1="119.5" x2="196.8" y2="102" stroke="#FF6B6B" stroke-width="5" opacity="0.6"/>
</g>
<text x="216.8" y="112" fill="#FF6B6B" font-size="10" font-family="sans-serif">Hinge hips</text>
</svg>