<svg xmlns="http://www.w3.org/2000/svg" viewBox="0 0 400 300">
<rect width="400" height="300" fill="#0f0f1a"/>
<line x1="20" y1="225" x2="380" y2="225" stroke="#444" stroke-width="3" stroke-linecap="round"/>
<text x="200" y="38" fill="#888" font-size="13" font-family="sans-serif" text-anchor="middle">Romanian Deadlifts</text>
<text x="200" y="58" fill="#666" font-size="10" font-family="sans-serif" text-anchor="middle">Hip hinge forward with slight knee bend, return.</text>
<g stroke="#555" stroke-width="2" fill="none" stroke-linecap="round" stroke-linejoin="round" opacity="0.25">
  <circle cx="200" cy="73" r="10" fill="#444" stroke="none"/>
  <line x1="200" y1="73" x2="200" y2="81"/><line x1="200" y1="81" x2="200" y2="89"/><line x1="200" y1="89" x2="200" y2="113"/><line x1="200" y1="89" x2="182" y2="99"/><line x1="182" y1="99" x2="174" y2="111"/><line x1="200" y1="89" x2="218" y2="99"/><line x1="218" y1="99" x2="226" y2="111"/><line x1="200" y1="113" x2="195" y2="170"/><line x1="195" y1="170" x2="190" y2="222"/><line x1="200" y1="113" x2="205" y2="170"/><line x1="205" y1="170" x2="210" y2="222"/>
</g>
<g stroke="#FFF" stroke-width="4" fill="none" stroke-linecap="round" stroke-linejoin="round">
  <circle cx="199.3" cy="76" r="10" fill="#FFF" stroke="none"/>
  <line x1="199.3" y1="76" x2="199.3" y2="84"/><line x1="199.3" y1="84" x2="199.3" y2="92"/><line x1="199.3" y1="92" x2="199.3" y2="114.5"/><line x1="199.3" y1="92" x2="181.3" y2="103.4"/><line x1="181.3" y1="103.4" x2="173.3" y2="116.9"/><line x1="199.3" y1="92" x2="217.3" y2="103.4"/><line x1="217.3" y1="103.4" x2="225.3" y2="116.9"/><line x1="199.3" y1="114.5" x2="195" y2="170"/><line x1="195" y1="170" x2="190" y2="222"/><line x1="199.3" y1="114.5" x2="205" y2="170"/><line x1="205" y1="170" x2="210" y2="222"/>
  <line x1="199.3" y1="114.5" x2="199.3" y2="92" stroke="#FF6B6B" stroke-width="5" opacity="0.6"/>
</g>
<text x="219.3" y="102" fill="#FF6B6B" font-size="10" font-family="sans-serif">Hinge hips</text>
</svg>