<svg xmlns="http://www.w3.org/2000/svg" viewBox="0 0 400 300">
<rect width="400" height="300" fill="#0f0f1a"/>
<line x1="20" y1="225" x2="380" y2="225" stroke="#444" stroke-width="3" stroke-linecap="round"/>
<text x="200" y="38" fill="#888" font-size="13" font-family="sans-serif" text-anchor="middle">Terminal Knee Extensions</text>
<text x="200" y="58" fill="#666" font-size="10" font-family="sans-serif" text-anchor="middle">Stand with band around ankle, extend knee, return slowly.</text>
<g stroke="#555" stroke-width="2" fill="none" stroke-linecap="round" stroke-linejoin="round" opacity="0.25">
  <circle cx="200" cy="73" r="10" fill="#444" stroke="none"/>
  <line x1="200" y1="73" x2="200" y2="81"/><line x1="200" y1="81" x2="200" y2="89"/><line x1="200" y1="89" x2="200" y2="113"/><line x1="200" y1="89" x2="182" y2="99"/><line x1="182" y1="99" x2="174" y2="111"/><line x1="200" y1="89" x2="218" y2="99"/><line x1="218" y1="99" x2="226" y2="111"/><line x1="200" y1="113" x2="195" y2="170"/><line x1="195" y1="170" x2="190" y2="222"/><line x1="200" y1="113" x2="205" y2="170"/><line x1="205" y1="170" x2="210" y2="222"/>
</g>
<g stroke="#FFF" stroke-width="4" fill="none" stroke-linecap="round" stroke-linejoin="round">
  <circle cx="200" cy="73" r="10" fill="#FFF" stroke="none"/>
  <line x1="200" y1="73" x2="200" y2="81"/><line x1="200" y1="81" x2="200" y2="89"/><line x1="200" y1="89" x2="200" y2="113"/><line x1="200" y1="89" x2="182" y2="99"/><line x1="182" y1="99" x2="174" y2="111"/><line x1="200" y1="89" x2="218" y2="99"/><line x1="218" y1="99" x2="226" y2="111"/><line x1="200" y1="113" x2="195" y2="170"/><line x1="195" y1="170" x2="190" y2="222"/><line x1="200" y1="113" x2="208.6" y2="162.9"/><line x1="208.6" y1="162.9" x2="217.1" y2="207.8"/>
  <line x1="200" y1="113" x2="208.6" y2="162.9" stroke="#FF6B6B" stroke-width="5" opacity="0.6"/><line x1="208.6" y1="162.9" x2="217.1" y2="207.8" stroke="#FF6B6B" stroke-width="5" opacity="0.6"/>
</g>
<line x1="217.1064814814815" y1="212.78703703703704" x2="232.1064814814815" y2="212.78703703703704" stroke="#FF6B6B" stroke-width="2" stroke-dasharray="4,3"/><polygon points="232.1064814814815,207.78703703703704 242.1064814814815,212.78703703703704 232.1064814814815,217.78703703703704" fill="#FF6B6B"/><text x="224.6064814814815" y="138" fill="#FF6B6B" font-size="10" text-anchor="middle" font-family="sans-serif">Extend</text>
</svg>