<svg xmlns="http://www.w3.org/2000/svg" viewBox="0 0 400 300">
<rect width="400" height="300" fill="#0f0f1a"/>
<line x1="20" y1="250" x2="380" y2="250" stroke="#444" stroke-width="3" stroke-linecap="round"/>
<text x="200" y="38" fill="#888" font-size="13" font-family="sans-serif" text-anchor="middle">90-90 Stretch</text>
<text x="200" y="58" fill="#666" font-size="10" font-family="sans-serif" text-anchor="middle">Seated with both legs bent 90 degrees, rotate torso, hold.</text>
<g stroke="#555" stroke-width="2" fill="none" stroke-linecap="round" stroke-linejoin="round" opacity="0.25">
  <circle cx="155" cy="138" r="10" fill="#444" stroke="none"/>
  <line x1="155" y1="138" x2="155" y2="158"/><line x1="155" y1="158" x2="155" y2="173"/><line x1="155" y1="173" x2="155" y2="248"/><line x1="155" y1="173" x2="135" y2="183"/><line x1="135" y1="183" x2="125" y2="198"/><line x1="155" y1="173" x2="175" y2="183"/><line x1="175" y1="183" x2="185" y2="198"/><line x1="155" y1="248" x2="225" y2="235"/><line x1="225" y1="235" x2="255" y2="248"/><line x1="155" y1="248" x2="205" y2="235"/><line x1="205" y1="235" x2="235" y2="248"/>
</g>
<g stroke="#FFF" stroke-width="4" fill="none" stroke-linecap="round" stroke-linejoin="round">
  <circle cx="182.4" cy="130.7" r="10" fill="#FFF" stroke="none"/>
  <line x1="182.4" y1="130.7" x2="182.4" y2="150.7"/><line x1="182.4" y1="150.7" x2="177.9" y2="168.4"/><line x1="177.9" y1="168.4" x2="155" y2="248"/><line x1="177.9" y1="168.4" x2="135" y2="183"/><line x1="135" y1="183" x2="125" y2="198"/><line x1="177.9" y1="168.4" x2="161.3" y2="183"/><line x1="161.3" y1="183" x2="166.7" y2="202.6"/><line x1="155" y1="248" x2="225" y2="235"/><line x1="225" y1="235" x2="255" y2="248"/><line x1="155" y1="248" x2="205" y2="235"/><line x1="205" y1="235" x2="235" y2="248"/>
  <line x1="182.4" y1="150.7" x2="177.9" y2="168.4" stroke="#FF9500" stroke-width="5" opacity="0.6"/><line x1="177.9" y1="168.4" x2="155" y2="248" stroke="#FF9500" stroke-width="5" opacity="0.6"/>
</g>
<text x="197.9" y="158.4" fill="#FF9500" font-size="10" font-family="sans-serif">Rotate</text>
</svg>