<svg xmlns="http://www.w3.org/2000/svg" viewBox="0 0 400 300">
<rect width="400" height="300" fill="#0f0f1a"/>
<line x1="20" y1="250" x2="380" y2="250" stroke="#444" stroke-width="3" stroke-linecap="round"/>
<text x="200" y="23" fill="#888" font-size="12" font-family="sans-serif" text-anchor="middle">Side Planks</text>
<text x="200" y="38" fill="#666" font-size="10" font-family="sans-serif" text-anchor="middle">Side body hold on forearm, hold</text>
<g stroke="#555" stroke-width="2" fill="none" stroke-linecap="round" stroke-linejoin="round" opacity="0.25">
  <circle cx="50" cy="232" r="12" fill="#444" stroke="none"/>
  <line x1="50" y1="232" x2="62" y2="235"/><line x1="62" y1="235" x2="75" y2="238"/><line x1="75" y1="238" x2="130" y2="245"/><line x1="75" y1="238" x2="100" y2="243"/><line x1="100" y1="243" x2="120" y2="247"/><line x1="130" y1="245" x2="178" y2="237"/><line x1="178" y1="237" x2="158" y2="245"/><line x1="130" y1="245" x2="175" y2="228"/><line x1="175" y1="228" x2="155" y2="243"/>
</g>
<g stroke="#FFF" stroke-width="4" fill="none" stroke-linecap="round" stroke-linejoin="round">
  <circle cx="50" cy="232" r="12" fill="#FFF" stroke="none"/>
  <line x1="50" y1="232" x2="62" y2="235"/><line x1="62" y1="235" x2="75" y2="238"/><line x1="75" y1="238" x2="130" y2="241"/><line x1="75" y1="238" x2="100" y2="243"/><line x1="100" y1="243" x2="120" y2="247"/><line x1="130" y1="241" x2="178" y2="237"/><line x1="178" y1="237" x2="158" y2="245"/><line x1="130" y1="241" x2="175" y2="228"/><line x1="175" y1="228" x2="155" y2="243"/>
  <line x1="62" y1="235" x2="75" y2="238" stroke="#22C55E" stroke-width="5" opacity="0.6"/><line x1="75" y1="238" x2="130" y2="241" stroke="#22C55E" stroke-width="5" opacity="0.6"/>
</g>

</svg>