<svg xmlns="http://www.w3.org/2000/svg" viewBox="0 0 400 300">
<rect width="400" height="300" fill="#0f0f1a"/>
<line x1="20" y1="190" x2="380" y2="190" stroke="#444" stroke-width="3" stroke-linecap="round"/>
<text x="200" y="23" fill="#888" font-size="12" font-family="sans-serif" text-anchor="middle">Cat-Cow</text>
<text x="200" y="38" fill="#666" font-size="10" font-family="sans-serif" text-anchor="middle">On hands and knees, alternate arching/rounding spine</text>
<g stroke="#555" stroke-width="2" fill="none" stroke-linecap="round" stroke-linejoin="round" opacity="0.25">
  <circle cx="65" cy="42" r="11" fill="#444" stroke="none"/>
  <line x1="65" y1="42" x2="76" y2="47"/><line x1="76" y1="47" x2="90" y2="65"/><line x1="90" y1="65" x2="130" y2="90"/><line x1="90" y1="65" x2="60" y2="189"/><line x1="130" y1="90" x2="148" y2="189"/>
</g>
<g stroke="#FFF" stroke-width="4" fill="none" stroke-linecap="round" stroke-linejoin="round">
  <circle cx="64.7" cy="41.3" r="11" fill="#FFF" stroke="none"/>
  <line x1="64.7" y1="41.3" x2="75.7" y2="46.6"/><line x1="75.7" y1="46.6" x2="90" y2="65.5"/><line x1="90" y1="65.5" x2="130" y2="89.4"/><line x1="90" y1="65.5" x2="60" y2="189"/><line x1="130" y1="89.4" x2="148" y2="189"/>
  <line x1="75.7" y1="46.6" x2="90" y2="65.5" stroke="#22C55E" stroke-width="5" opacity="0.6"/><line x1="90" y1="65.5" x2="130" y2="89.4" stroke="#22C55E" stroke-width="5" opacity="0.6"/>
</g>
<path d="M 179.73853277175704 46.302754058018735 Q 204.73853277175704 18.302754058018735 229.73853277175704 46.302754058018735" stroke="#FFD93D" stroke-width="2" fill="none" stroke-dasharray="4,3"/><text x="204.73853277175704" y="14.302754058018735" fill="#FFD93D" font-size="10" text-anchor="middle" font-family="sans-serif">Arch (Cow)</text><path d="M 179.73853277175704 21.302754058018735 Q 204.73853277175704 43.302754058018735 229.73853277175704 21.302754058018735" stroke="#FFD93D" stroke-width="2" fill="none" stroke-dasharray="4,3"/><text x="204.73853277175704" y="39.302754058018735" fill="#FFD93D" font-size="10" text-anchor="middle" font-family="sans-serif">Round (Cat)</text>
</svg>