<svg xmlns="http://www.w3.org/2000/svg" viewBox="0 0 400 300">
<rect width="400" height="300" fill="#0f0f1a"/>
<line x1="20" y1="190" x2="380" y2="190" stroke="#444" stroke-width="3" stroke-linecap="round"/>
<text x="200" y="38" fill="#888" font-size="13" font-family="sans-serif" text-anchor="middle">Cat-Cow</text>
<text x="200" y="58" fill="#666" font-size="10" font-family="sans-serif" text-anchor="middle">On hands and knees, alternate arching/rounding spine</text>
<g stroke="#555" stroke-width="2" fill="none" stroke-linecap="round" stroke-linejoin="round" opacity="0.25">
  <circle cx="175" cy="73" r="10" fill="#444" stroke="none"/>
  <line x1="175" y1="73" x2="186" y2="76"/><line x1="186" y1="76" x2="200" y2="87"/><line x1="200" y1="87" x2="240" y2="110"/><line x1="200" y1="87" x2="170" y2="189"/><line x1="240" y1="110" x2="245" y2="145"/><line x1="245" y1="145" x2="255" y2="189"/>
</g>
<g stroke="#FFF" stroke-width="4" fill="none" stroke-linecap="round" stroke-linejoin="round">
  <circle cx="178" cy="65.1" r="10" fill="#FFF" stroke="none"/>
  <line x1="178" y1="65.1" x2="189" y2="71.1"/><line x1="189" y1="71.1" x2="200" y2="92.9"/><line x1="200" y1="92.9" x2="240" y2="103.1"/><line x1="200" y1="92.9" x2="170" y2="189"/><line x1="240" y1="103.1" x2="245" y2="145"/><line x1="245" y1="145" x2="255" y2="189"/>
  <line x1="189" y1="71.1" x2="200" y2="92.9" stroke="#22C55E" stroke-width="5" opacity="0.6"/><line x1="200" y1="92.9" x2="240" y2="103.1" stroke="#22C55E" stroke-width="5" opacity="0.6"/>
</g>
<path d="M 292.9544232590366 70.12153797590233 Q 317.9544232590366 42.12153797590233 342.9544232590366 70.12153797590233" stroke="#FFD93D" stroke-width="2" fill="none" stroke-dasharray="4,3"/><text x="317.9544232590366" y="38.12153797590233" fill="#FFD93D" font-size="10" text-anchor="middle" font-family="sans-serif">Arch (Cow)</text><path d="M 292.9544232590366 45.12153797590233 Q 317.9544232590366 67.12153797590233 342.9544232590366 45.12153797590233" stroke="#FFD93D" stroke-width="2" fill="none" stroke-dasharray="4,3"/><text x="317.9544232590366" y="63.12153797590233" fill="#FFD93D" font-size="10" text-anchor="middle" font-family="sans-serif">Round (Cat)</text>
</svg>