<svg xmlns="http://www.w3.org/2000/svg" viewBox="0 0 400 300">
<rect width="400" height="300" fill="#0f0f1a"/>
<line x1="20" y1="190" x2="380" y2="190" stroke="#444" stroke-width="3" stroke-linecap="round"/>
<text x="200" y="23" fill="#888" font-size="12" font-family="sans-serif" text-anchor="middle">Cat-Cow</text>
<text x="200" y="38" fill="#666" font-size="10" font-family="sans-serif" text-anchor="middle">On hands and knees, alternate arching/rounding spine</text>
<g stroke="#555" stroke-width="2" fill="none" stroke-linecap="round" stroke-linejoin="round" opacity="0.25">
  <circle cx="65" cy="42" r="11" fill="#444" stroke="none"/>
  <line x1="65" y1="42" x2="76" y2="47"/><line x1="76" y1="47" x2="90" y2="65"/><line x1="90" y1="65" x2="130" y2="90"/><line x1="90" y1="65" x2="60" y2="189"/><line x1="130" y1="90" x2="148" y2="189"/>
</g>
<g stroke="#FFF" stroke-width="4" fill="none" stroke-linecap="round" stroke-linejoin="round">
  <circle cx="67.9" cy="61.3" r="11" fill="#FFF" stroke="none"/>
  <line x1="67.9" y1="61.3" x2="78.9" y2="61.5"/><line x1="78.9" y1="61.5" x2="90" y2="59.2"/><line x1="90" y1="59.2" x2="130" y2="96.8"/><line x1="90" y1="59.2" x2="60" y2="189"/><line x1="130" y1="96.8" x2="148" y2="189"/>
  <line x1="78.9" y1="61.5" x2="90" y2="59.2" stroke="#22C55E" stroke-width="5" opacity="0.6"/><line x1="90" y1="59.2" x2="130" y2="96.8" stroke="#22C55E" stroke-width="5" opacity="0.6"/>
</g>
<path d="M 182.8977774788672 66.31851652578136 Q 207.8977774788672 38.31851652578136 232.8977774788672 66.31851652578136" stroke="#FFD93D" stroke-width="2" fill="none" stroke-dasharray="4,3"/><text x="207.8977774788672" y="34.31851652578136" fill="#FFD93D" font-size="10" text-anchor="middle" font-family="sans-serif">Arch (Cow)</text><path d="M 182.8977774788672 41.31851652578136 Q 207.8977774788672 63.31851652578136 232.8977774788672 41.31851652578136" stroke="#FFD93D" stroke-width="2" fill="none" stroke-dasharray="4,3"/><text x="207.8977774788672" y="59.31851652578136" fill="#FFD93D" font-size="10" text-anchor="middle" font-family="sans-serif">Round (Cat)</text>
</svg>