<svg xmlns="http://www.w3.org/2000/svg" viewBox="0 0 400 300">
<rect width="400" height="300" fill="#0f0f1a"/>
<line x1="20" y1="190" x2="380" y2="190" stroke="#444" stroke-width="3" stroke-linecap="round"/>
<text x="200" y="38" fill="#888" font-size="13" font-family="sans-serif" text-anchor="middle">Cat-Cow</text>
<text x="200" y="58" fill="#666" font-size="10" font-family="sans-serif" text-anchor="middle">On hands and knees, inhale to arch/drop belly (Cow), exhale to round spine (Cat); move with breath.</text>
<g stroke="#555" stroke-width="2" fill="none" stroke-linecap="round" stroke-linejoin="round" opacity="0.25">
  <circle cx="175" cy="73" r="10" fill="#444" stroke="none"/>
  <line x1="175" y1="73" x2="186" y2="76"/><line x1="186" y1="76" x2="200" y2="87"/><line x1="200" y1="87" x2="240" y2="110"/><line x1="200" y1="87" x2="170" y2="189"/><line x1="240" y1="110" x2="245" y2="145"/><line x1="245" y1="145" x2="255" y2="189"/>
</g>
<g stroke="#FFF" stroke-width="4" fill="none" stroke-linecap="round" stroke-linejoin="round">
  <circle cx="174" cy="79.8" r="10" fill="#FFF" stroke="none"/>
  <line x1="174" y1="79.8" x2="185" y2="81.1"/><line x1="185" y1="81.1" x2="200" y2="84.9"/><line x1="200" y1="84.9" x2="240" y2="112.4"/><line x1="200" y1="84.9" x2="170" y2="189"/><line x1="240" y1="112.4" x2="245" y2="145"/><line x1="245" y1="145" x2="255" y2="189"/>
  <line x1="185" y1="81.1" x2="200" y2="84.9" stroke="#22C55E" stroke-width="5" opacity="0.6"/><line x1="200" y1="84.9" x2="240" y2="112.4" stroke="#22C55E" stroke-width="5" opacity="0.6"/>
</g>
<path d="M 288.973939570023 84.84040286651337 Q 313.973939570023 56.84040286651337 338.973939570023 84.84040286651337" stroke="#FFD93D" stroke-width="2" fill="none" stroke-dasharray="4,3"/><text x="313.973939570023" y="52.84040286651337" fill="#FFD93D" font-size="10" text-anchor="middle" font-family="sans-serif">Arch (Cow)</text><path d="M 288.973939570023 59.84040286651337 Q 313.973939570023 81.84040286651337 338.973939570023 59.84040286651337" stroke="#FFD93D" stroke-width="2" fill="none" stroke-dasharray="4,3"/><text x="313.973939570023" y="77.84040286651337" fill="#FFD93D" font-size="10" text-anchor="middle" font-family="sans-serif">Round (Cat)</text>
</svg>