<svg xmlns="http://www.w3.org/2000/svg" viewBox="0 0 400 300">
<rect width="400" height="300" fill="#0f0f1a"/>
<line x1="20" y1="190" x2="380" y2="190" stroke="#444" stroke-width="3" stroke-linecap="round"/>
<text x="200" y="38" fill="#888" font-size="13" font-family="sans-serif" text-anchor="middle">Cat-Cow</text>
<text x="200" y="58" fill="#666" font-size="10" font-family="sans-serif" text-anchor="middle"><tspan x="200" dy="0">On hands and knees, inhale to arch/drop belly (Cow),</tspan><tspan x="200" dy="14">exhale to round spine (Cat); move with breath.</tspan></text>
<g stroke="#555" stroke-width="2" fill="none" stroke-linecap="round" stroke-linejoin="round" opacity="0.25">
  <circle cx="175" cy="73" r="10" fill="#444" stroke="none"/>
  <line x1="175" y1="73" x2="186" y2="76"/><line x1="186" y1="76" x2="200" y2="87"/><line x1="200" y1="87" x2="240" y2="110"/><line x1="200" y1="87" x2="170" y2="189"/><line x1="240" y1="110" x2="245" y2="145"/><line x1="245" y1="145" x2="255" y2="189"/>
</g>
<g stroke="#FFF" stroke-width="4" fill="none" stroke-linecap="round" stroke-linejoin="round">
  <circle cx="172.5" cy="89.4" r="10" fill="#FFF" stroke="none"/>
  <line x1="172.5" y1="89.4" x2="183.5" y2="88.3"/><line x1="183.5" y1="88.3" x2="200" y2="82.1"/><line x1="200" y1="82.1" x2="240" y2="115.7"/><line x1="200" y1="82.1" x2="170" y2="189"/><line x1="240" y1="115.7" x2="245" y2="145"/><line x1="245" y1="145" x2="255" y2="189"/>
  <line x1="183.5" y1="88.3" x2="200" y2="82.1" stroke="#22C55E" stroke-width="5" opacity="0.6"/><line x1="200" y1="82.1" x2="240" y2="115.7" stroke="#22C55E" stroke-width="5" opacity="0.6"/>
</g>
<path d="M 287.542543867133 94.38304088577983 Q 312.542543867133 66.38304088577983 337.542543867133 94.38304088577983" stroke="#FFD93D" stroke-width="2" fill="none" stroke-dasharray="4,3"/><text x="312.542543867133" y="62.383040885779835" fill="#FFD93D" font-size="10" text-anchor="middle" font-family="sans-serif">Arch (Cow)</text>
</svg>