<svg xmlns="http://www.w3.org/2000/svg" viewBox="0 0 400 300">
<rect width="400" height="300" fill="#0f0f1a"/>
<line x1="20" y1="190" x2="380" y2="190" stroke="#444" stroke-width="3" stroke-linecap="round"/>
<text x="200" y="38" fill="#888" font-size="13" font-family="sans-serif" text-anchor="middle">Cat-Cow</text>
<text x="200" y="58" fill="#666" font-size="10" font-family="sans-serif" text-anchor="middle">On hands and knees, alternate arching/rounding spine</text>
<g stroke="#555" stroke-width="2" fill="none" stroke-linecap="round" stroke-linejoin="round" opacity="0.25">
  <circle cx="175" cy="73" r="10" fill="#444" stroke="none"/>
  <line x1="175" y1="73" x2="186" y2="76"/><line x1="186" y1="76" x2="200" y2="87"/><line x1="200" y1="87" x2="240" y2="110"/><line x1="200" y1="87" x2="170" y2="189"/><line x1="240" y1="110" x2="245" y2="145"/><line x1="245" y1="145" x2="255" y2="189"/>
</g>
<g stroke="#FFF" stroke-width="4" fill="none" stroke-linecap="round" stroke-linejoin="round">
  <circle cx="175.5" cy="71.6" r="10" fill="#FFF" stroke="none"/>
  <line x1="175.5" y1="71.6" x2="186.5" y2="75.1"/><line x1="186.5" y1="75.1" x2="200" y2="88"/><line x1="200" y1="88" x2="240" y2="108.8"/><line x1="200" y1="88" x2="170" y2="189"/><line x1="240" y1="108.8" x2="245" y2="145"/><line x1="245" y1="145" x2="255" y2="189"/>
  <line x1="186.5" y1="75.1" x2="200" y2="88" stroke="#22C55E" stroke-width="5" opacity="0.6"/><line x1="200" y1="88" x2="240" y2="108.8" stroke="#22C55E" stroke-width="5" opacity="0.6"/>
</g>
<path d="M 290.52094453300083 76.61081457866456 Q 315.52094453300083 48.61081457866456 340.52094453300083 76.61081457866456" stroke="#FFD93D" stroke-width="2" fill="none" stroke-dasharray="4,3"/><text x="315.52094453300083" y="44.61081457866456" fill="#FFD93D" font-size="10" text-anchor="middle" font-family="sans-serif">Arch (Cow)</text><path d="M 290.52094453300083 51.61081457866456 Q 315.52094453300083 73.61081457866456 340.52094453300083 51.61081457866456" stroke="#FFD93D" stroke-width="2" fill="none" stroke-dasharray="4,3"/><text x="315.52094453300083" y="69.61081457866456" fill="#FFD93D" font-size="10" text-anchor="middle" font-family="sans-serif">Round (Cat)</text>
</svg>