<svg xmlns="http://www.w3.org/2000/svg" viewBox="0 0 400 300">
<rect width="400" height="300" fill="#0f0f1a"/>
<line x1="20" y1="225" x2="380" y2="225" stroke="#444" stroke-width="3" stroke-linecap="round"/>
<text x="200" y="38" fill="#888" font-size="13" font-family="sans-serif" text-anchor="middle">Step-Ups</text>
<text x="200" y="58" fill="#666" font-size="10" font-family="sans-serif" text-anchor="middle"><tspan x="200" dy="0">Step one foot onto platform, drive up, step down,</tspan><tspan x="200" dy="14">repeat.</tspan></text>
<g stroke="#555" stroke-width="2" fill="none" stroke-linecap="round" stroke-linejoin="round" opacity="0.25">
  <circle cx="200" cy="73" r="10" fill="#444" stroke="none"/>
  <line x1="200" y1="73" x2="200" y2="81"/><line x1="200" y1="81" x2="200" y2="89"/><line x1="200" y1="89" x2="200" y2="113"/><line x1="200" y1="89" x2="182" y2="99"/><line x1="182" y1="99" x2="174" y2="111"/><line x1="200" y1="89" x2="218" y2="99"/><line x1="218" y1="99" x2="226" y2="111"/><line x1="200" y1="113" x2="195" y2="170"/><line x1="195" y1="170" x2="190" y2="222"/><line x1="200" y1="113" x2="205" y2="170"/><line x1="205" y1="170" x2="210" y2="222"/>
</g>
<g stroke="#FFF" stroke-width="4" fill="none" stroke-linecap="round" stroke-linejoin="round">
  <circle cx="201.9" cy="71.7" r="10" fill="#FFF" stroke="none"/>
  <line x1="201.9" y1="71.7" x2="201.9" y2="79.7"/><line x1="201.9" y1="79.7" x2="203.2" y2="87.1"/><line x1="203.2" y1="87.1" x2="203.2" y2="109.8"/><line x1="203.2" y1="87.1" x2="182" y2="99"/><line x1="182" y1="99" x2="174" y2="111"/><line x1="203.2" y1="87.1" x2="218" y2="99"/><line x1="218" y1="99" x2="226" y2="111"/><line x1="203.2" y1="109.8" x2="195" y2="170"/><line x1="195" y1="170" x2="190" y2="222"/><line x1="203.2" y1="109.8" x2="211.5" y2="153.8"/><line x1="211.5" y1="153.8" x2="219.7" y2="196"/>
  <line x1="203.2" y1="109.8" x2="211.5" y2="153.8" stroke="#FF6B6B" stroke-width="5" opacity="0.6"/><line x1="211.5" y1="153.8" x2="219.7" y2="196" stroke="#FF6B6B" stroke-width="5" opacity="0.6"/>
</g>
<line x1="219.73251028806584" y1="201.04663923182443" x2="219.73251028806584" y2="216.04663923182443" stroke="#FF6B6B" stroke-width="2" stroke-dasharray="4,3"/><polygon points="214.73251028806584,216.04663923182443 219.73251028806584,226.04663923182443 224.73251028806584,216.04663923182443" fill="#FF6B6B"/><text x="233.73251028806584" y="208.54663923182443" fill="#FF6B6B" font-size="10" text-anchor="middle" font-family="sans-serif">Step up</text>
</svg>