<svg xmlns="http://www.w3.org/2000/svg" viewBox="0 0 400 300">
<rect width="400" height="300" fill="#0f0f1a"/>
<line x1="20" y1="225" x2="380" y2="225" stroke="#444" stroke-width="3" stroke-linecap="round"/>
<text x="200" y="38" fill="#888" font-size="13" font-family="sans-serif" text-anchor="middle">Step-Ups</text>
<text x="200" y="58" fill="#666" font-size="10" font-family="sans-serif" text-anchor="middle">Step one foot onto platform, drive up, step down, repeat.</text>
<g stroke="#555" stroke-width="2" fill="none" stroke-linecap="round" stroke-linejoin="round" opacity="0.25">
  <circle cx="200" cy="73" r="10" fill="#444" stroke="none"/>
  <line x1="200" y1="73" x2="200" y2="81"/><line x1="200" y1="81" x2="200" y2="89"/><line x1="200" y1="89" x2="200" y2="113"/><line x1="200" y1="89" x2="182" y2="99"/><line x1="182" y1="99" x2="174" y2="111"/><line x1="200" y1="89" x2="218" y2="99"/><line x1="218" y1="99" x2="226" y2="111"/><line x1="200" y1="113" x2="195" y2="170"/><line x1="195" y1="170" x2="190" y2="222"/><line x1="200" y1="113" x2="205" y2="170"/><line x1="205" y1="170" x2="210" y2="222"/>
</g>
<g stroke="#FFF" stroke-width="4" fill="none" stroke-linecap="round" stroke-linejoin="round">
  <circle cx="201.7" cy="71.8" r="10" fill="#FFF" stroke="none"/>
  <line x1="201.7" y1="71.8" x2="201.7" y2="79.8"/><line x1="201.7" y1="79.8" x2="202.9" y2="87.3"/><line x1="202.9" y1="87.3" x2="202.9" y2="110.1"/><line x1="202.9" y1="87.3" x2="182" y2="99"/><line x1="182" y1="99" x2="174" y2="111"/><line x1="202.9" y1="87.3" x2="218" y2="99"/><line x1="218" y1="99" x2="226" y2="111"/><line x1="202.9" y1="110.1" x2="195" y2="170"/><line x1="195" y1="170" x2="190" y2="222"/><line x1="202.9" y1="110.1" x2="210.8" y2="155.5"/><line x1="210.8" y1="155.5" x2="218.7" y2="198.8"/>
  <line x1="202.9" y1="110.1" x2="210.8" y2="155.5" stroke="#FF6B6B" stroke-width="5" opacity="0.6"/><line x1="210.8" y1="155.5" x2="218.7" y2="198.8" stroke="#FF6B6B" stroke-width="5" opacity="0.6"/>
</g>
<line x1="218.681841563786" y1="203.84842249657066" x2="233.681841563786" y2="203.84842249657066" stroke="#FF6B6B" stroke-width="2" stroke-dasharray="4,3"/><polygon points="233.681841563786,198.84842249657066 243.681841563786,203.84842249657066 233.681841563786,208.84842249657066" fill="#FF6B6B"/><text x="226.181841563786" y="163" fill="#FF6B6B" font-size="10" text-anchor="middle" font-family="sans-serif">Step</text>
</svg>