<svg xmlns="http://www.w3.org/2000/svg" viewBox="0 0 400 300">
<rect width="400" height="300" fill="#0f0f1a"/>
<line x1="20" y1="225" x2="380" y2="225" stroke="#444" stroke-width="3" stroke-linecap="round"/>
<text x="200" y="38" fill="#888" font-size="13" font-family="sans-serif" text-anchor="middle">Step-Ups</text>
<text x="200" y="58" fill="#666" font-size="10" font-family="sans-serif" text-anchor="middle">Step one foot onto platform, drive up, step down, repeat.</text>
<g stroke="#555" stroke-width="2" fill="none" stroke-linecap="round" stroke-linejoin="round" opacity="0.25">
  <circle cx="200" cy="73" r="10" fill="#444" stroke="none"/>
  <line x1="200" y1="73" x2="200" y2="81"/><line x1="200" y1="81" x2="200" y2="89"/><line x1="200" y1="89" x2="200" y2="113"/><line x1="200" y1="89" x2="182" y2="99"/><line x1="182" y1="99" x2="174" y2="111"/><line x1="200" y1="89" x2="218" y2="99"/><line x1="218" y1="99" x2="226" y2="111"/><line x1="200" y1="113" x2="195" y2="170"/><line x1="195" y1="170" x2="190" y2="222"/><line x1="200" y1="113" x2="205" y2="170"/><line x1="205" y1="170" x2="210" y2="222"/>
</g>
<g stroke="#FFF" stroke-width="4" fill="none" stroke-linecap="round" stroke-linejoin="round">
  <circle cx="200.3" cy="72.8" r="10" fill="#FFF" stroke="none"/>
  <line x1="200.3" y1="72.8" x2="200.3" y2="80.8"/><line x1="200.3" y1="80.8" x2="200.6" y2="88.7"/><line x1="200.6" y1="88.7" x2="200.6" y2="112.4"/><line x1="200.6" y1="88.7" x2="182" y2="99"/><line x1="182" y1="99" x2="174" y2="111"/><line x1="200.6" y1="88.7" x2="218" y2="99"/><line x1="218" y1="99" x2="226" y2="111"/><line x1="200.6" y1="112.4" x2="195" y2="170"/><line x1="195" y1="170" x2="190" y2="222"/><line x1="200.6" y1="112.4" x2="206.1" y2="167.1"/><line x1="206.1" y1="167.1" x2="211.7" y2="217.4"/>
  <line x1="200.6" y1="112.4" x2="206.1" y2="167.1" stroke="#FF6B6B" stroke-width="5" opacity="0.6"/><line x1="206.1" y1="167.1" x2="211.7" y2="217.4" stroke="#FF6B6B" stroke-width="5" opacity="0.6"/>
</g>
<line x1="211.71167695473252" y1="222.43552812071331" x2="211.71167695473252" y2="237.43552812071331" stroke="#FF6B6B" stroke-width="2" stroke-dasharray="4,3"/><polygon points="206.71167695473252,237.43552812071331 211.71167695473252,247.43552812071331 216.71167695473252,237.43552812071331" fill="#FF6B6B"/><text x="225.71167695473252" y="229.93552812071331" fill="#FF6B6B" font-size="10" text-anchor="middle" font-family="sans-serif">Step up</text>
</svg>