<svg xmlns="http://www.w3.org/2000/svg" viewBox="0 0 400 300">
<rect width="400" height="300" fill="#0f0f1a"/>
<line x1="20" y1="225" x2="380" y2="225" stroke="#444" stroke-width="3" stroke-linecap="round"/>
<text x="200" y="38" fill="#888" font-size="13" font-family="sans-serif" text-anchor="middle">Step-Ups</text>
<text x="200" y="58" fill="#666" font-size="10" font-family="sans-serif" text-anchor="middle"><tspan x="200" dy="0">Step one foot onto platform, drive up, step down,</tspan><tspan x="200" dy="14">repeat.</tspan></text>
<g stroke="#555" stroke-width="2" fill="none" stroke-linecap="round" stroke-linejoin="round" opacity="0.25">
  <circle cx="200" cy="73" r="10" fill="#444" stroke="none"/>
  <line x1="200" y1="73" x2="200" y2="81"/><line x1="200" y1="81" x2="200" y2="89"/><line x1="200" y1="89" x2="200" y2="113"/><line x1="200" y1="89" x2="182" y2="99"/><line x1="182" y1="99" x2="174" y2="111"/><line x1="200" y1="89" x2="218" y2="99"/><line x1="218" y1="99" x2="226" y2="111"/><line x1="200" y1="113" x2="195" y2="170"/><line x1="195" y1="170" x2="190" y2="222"/><line x1="200" y1="113" x2="205" y2="170"/><line x1="205" y1="170" x2="210" y2="222"/>
</g>
<g stroke="#FFF" stroke-width="4" fill="none" stroke-linecap="round" stroke-linejoin="round">
  <circle cx="202.4" cy="71.4" r="10" fill="#FFF" stroke="none"/>
  <line x1="202.4" y1="71.4" x2="202.4" y2="79.4"/><line x1="202.4" y1="79.4" x2="204.1" y2="86.6"/><line x1="204.1" y1="86.6" x2="204.1" y2="108.9"/><line x1="204.1" y1="86.6" x2="182" y2="99"/><line x1="182" y1="99" x2="174" y2="111"/><line x1="204.1" y1="86.6" x2="218" y2="99"/><line x1="218" y1="99" x2="226" y2="111"/><line x1="204.1" y1="108.9" x2="195" y2="170"/><line x1="195" y1="170" x2="190" y2="222"/><line x1="204.1" y1="108.9" x2="213.1" y2="149.7"/><line x1="213.1" y1="149.7" x2="222.2" y2="189.5"/>
  <line x1="204.1" y1="108.9" x2="213.1" y2="149.7" stroke="#FF6B6B" stroke-width="5" opacity="0.6"/><line x1="213.1" y1="149.7" x2="222.2" y2="189.5" stroke="#FF6B6B" stroke-width="5" opacity="0.6"/>
</g>
<line x1="222.17463991769546" y1="194.53429355281207" x2="222.17463991769546" y2="209.53429355281207" stroke="#FF6B6B" stroke-width="2" stroke-dasharray="4,3"/><polygon points="217.17463991769546,209.53429355281207 222.17463991769546,219.53429355281207 227.17463991769546,209.53429355281207" fill="#FF6B6B"/><text x="236.17463991769546" y="202.03429355281207" fill="#FF6B6B" font-size="10" text-anchor="middle" font-family="sans-serif">Step up</text>
</svg>