<svg xmlns="http://www.w3.org/2000/svg" viewBox="0 0 400 300">
<rect width="400" height="300" fill="#0f0f1a"/>
<line x1="20" y1="225" x2="380" y2="225" stroke="#444" stroke-width="3" stroke-linecap="round"/>
<text x="200" y="38" fill="#888" font-size="13" font-family="sans-serif" text-anchor="middle">Step-Ups</text>
<text x="200" y="58" fill="#666" font-size="10" font-family="sans-serif" text-anchor="middle">Step one foot onto platform, drive up, step down, repeat.</text>
<g stroke="#555" stroke-width="2" fill="none" stroke-linecap="round" stroke-linejoin="round" opacity="0.25">
  <circle cx="200" cy="73" r="10" fill="#444" stroke="none"/>
  <line x1="200" y1="73" x2="200" y2="81"/><line x1="200" y1="81" x2="200" y2="89"/><line x1="200" y1="89" x2="200" y2="113"/><line x1="200" y1="89" x2="182" y2="99"/><line x1="182" y1="99" x2="174" y2="111"/><line x1="200" y1="89" x2="218" y2="99"/><line x1="218" y1="99" x2="226" y2="111"/><line x1="200" y1="113" x2="195" y2="170"/><line x1="195" y1="170" x2="190" y2="222"/><line x1="200" y1="113" x2="205" y2="170"/><line x1="205" y1="170" x2="210" y2="222"/>
</g>
<g stroke="#FFF" stroke-width="4" fill="none" stroke-linecap="round" stroke-linejoin="round">
  <circle cx="202.6" cy="71.3" r="10" fill="#FFF" stroke="none"/>
  <line x1="202.6" y1="71.3" x2="202.6" y2="79.3"/><line x1="202.6" y1="79.3" x2="204.3" y2="86.4"/><line x1="204.3" y1="86.4" x2="204.3" y2="108.7"/><line x1="204.3" y1="86.4" x2="182" y2="99"/><line x1="182" y1="99" x2="174" y2="111"/><line x1="204.3" y1="86.4" x2="218" y2="99"/><line x1="218" y1="99" x2="226" y2="111"/><line x1="204.3" y1="108.7" x2="195" y2="170"/><line x1="195" y1="170" x2="190" y2="222"/><line x1="204.3" y1="108.7" x2="213.5" y2="148.7"/><line x1="213.5" y1="148.7" x2="222.8" y2="187.9"/>
  <line x1="204.3" y1="108.7" x2="213.5" y2="148.7" stroke="#FF6B6B" stroke-width="5" opacity="0.6"/><line x1="213.5" y1="148.7" x2="222.8" y2="187.9" stroke="#FF6B6B" stroke-width="5" opacity="0.6"/>
</g>
<line x1="222.77777777777777" y1="192.92592592592592" x2="237.77777777777777" y2="192.92592592592592" stroke="#FF6B6B" stroke-width="2" stroke-dasharray="4,3"/><polygon points="237.77777777777777,187.92592592592592 247.77777777777777,192.92592592592592 237.77777777777777,197.92592592592592" fill="#FF6B6B"/><text x="230.27777777777777" y="163" fill="#FF6B6B" font-size="10" text-anchor="middle" font-family="sans-serif">Step</text>
</svg>