<svg xmlns="http://www.w3.org/2000/svg" viewBox="0 0 400 300">
<rect width="400" height="300" fill="#0f0f1a"/>
<line x1="20" y1="248" x2="380" y2="248" stroke="#444" stroke-width="3" stroke-linecap="round"/>
<text x="200" y="23" fill="#888" font-size="12" font-family="sans-serif" text-anchor="middle">Child's Pose</text>
<text x="200" y="38" fill="#666" font-size="10" font-family="sans-serif" text-anchor="middle">Kneeling, sit back on heels, reach arms forward on floor, hold</text>
<g stroke="#555" stroke-width="2" fill="none" stroke-linecap="round" stroke-linejoin="round" opacity="0.25">
  <circle cx="60" cy="40" r="12" fill="#444" stroke="none"/>
  <line x1="60" y1="40" x2="60" y2="55"/><line x1="60" y1="55" x2="60" y2="70"/><line x1="60" y1="70" x2="60" y2="120"/><line x1="60" y1="70" x2="40" y2="85"/><line x1="40" y1="85" x2="30" y2="100"/><line x1="60" y1="70" x2="80" y2="85"/><line x1="80" y1="85" x2="90" y2="100"/><line x1="60" y1="120" x2="60" y2="245"/><line x1="60" y1="120" x2="60" y2="245"/>
</g>
<g stroke="#FFF" stroke-width="4" fill="none" stroke-linecap="round" stroke-linejoin="round">
  <circle cx="47.5" cy="59" r="12" fill="#FFF" stroke="none"/>
  <line x1="47.5" y1="59" x2="47.5" y2="72.5"/><line x1="47.5" y1="72.5" x2="50" y2="85"/><line x1="50" y1="85" x2="55" y2="130"/><line x1="50" y1="85" x2="40" y2="85"/><line x1="40" y1="85" x2="12.5" y2="120"/><line x1="50" y1="85" x2="80" y2="85"/><line x1="80" y1="85" x2="72.5" y2="120"/><line x1="55" y1="130" x2="60" y2="245"/><line x1="55" y1="130" x2="60" y2="245"/>
  <line x1="47.5" y1="72.5" x2="50" y2="85" stroke="#22C55E" stroke-width="5" opacity="0.6"/><line x1="50" y1="85" x2="55" y2="130" stroke="#22C55E" stroke-width="5" opacity="0.6"/>
</g>

</svg>