<svg xmlns="http://www.w3.org/2000/svg" viewBox="0 0 400 300">
<rect width="400" height="300" fill="#0f0f1a"/>
<line x1="20" y1="190" x2="380" y2="190" stroke="#444" stroke-width="3" stroke-linecap="round"/>
<text x="200" y="38" fill="#888" font-size="13" font-family="sans-serif" text-anchor="middle">Child's Pose</text>
<text x="200" y="58" fill="#666" font-size="10" font-family="sans-serif" text-anchor="middle"><tspan x="200" dy="0">From hands and knees, sit back on heels, reach arms</tspan><tspan x="200" dy="14">forward on floor, hold.</tspan></text>
<g stroke="#555" stroke-width="2" fill="none" stroke-linecap="round" stroke-linejoin="round" opacity="0.25">
  <circle cx="175" cy="73" r="10" fill="#444" stroke="none"/>
  <line x1="175" y1="73" x2="186" y2="76"/><line x1="186" y1="76" x2="200" y2="87"/><line x1="200" y1="87" x2="240" y2="110"/><line x1="200" y1="87" x2="170" y2="189"/><line x1="240" y1="110" x2="245" y2="145"/><line x1="245" y1="145" x2="255" y2="189"/>
</g>
<g stroke="#FFF" stroke-width="4" fill="none" stroke-linecap="round" stroke-linejoin="round">
  <circle cx="174.3" cy="76.4" r="10" fill="#FFF" stroke="none"/>
  <line x1="174.3" y1="76.4" x2="185.4" y2="78.9"/><line x1="185.4" y1="78.9" x2="199.6" y2="89.2"/><line x1="199.6" y1="89.2" x2="240.6" y2="112.1"/><line x1="199.6" y1="89.2" x2="168.1" y2="189"/><line x1="240.6" y1="112.1" x2="245.1" y2="145.1"/><line x1="245.1" y1="145.1" x2="255.1" y2="189"/>
  <line x1="185.4" y1="78.9" x2="199.6" y2="89.2" stroke="#22C55E" stroke-width="5" opacity="0.6"/><line x1="199.6" y1="89.2" x2="240.6" y2="112.1" stroke="#22C55E" stroke-width="5" opacity="0.6"/>
</g>
<line x1="168.08856310013718" y1="189" x2="198.08856310013718" y2="189" stroke="#22C55E" stroke-width="2" stroke-dasharray="4,3"/><polygon points="198.08856310013718,184 208.08856310013718,189 198.08856310013718,194" fill="#22C55E"/><text x="183.08856310013718" y="93" fill="#22C55E" font-size="10" text-anchor="middle" font-family="sans-serif">Fold forward</text>
</svg>