<svg xmlns="http://www.w3.org/2000/svg" viewBox="0 0 400 300">
<rect width="400" height="300" fill="#0f0f1a"/>
<line x1="20" y1="225" x2="380" y2="225" stroke="#444" stroke-width="3" stroke-linecap="round"/>
<text x="200" y="38" fill="#888" font-size="13" font-family="sans-serif" text-anchor="middle">Child's Pose</text>
<text x="200" y="58" fill="#666" font-size="10" font-family="sans-serif" text-anchor="middle">Kneeling, sit back on heels, reach arms forward on floor, hold</text>
<g stroke="#555" stroke-width="2" fill="none" stroke-linecap="round" stroke-linejoin="round" opacity="0.25">
  <circle cx="200" cy="73" r="10" fill="#444" stroke="none"/>
  <line x1="200" y1="73" x2="200" y2="81"/><line x1="200" y1="81" x2="200" y2="89"/><line x1="200" y1="89" x2="200" y2="113"/><line x1="200" y1="89" x2="182" y2="99"/><line x1="182" y1="99" x2="174" y2="111"/><line x1="200" y1="89" x2="218" y2="99"/><line x1="218" y1="99" x2="226" y2="111"/><line x1="200" y1="113" x2="195" y2="222"/><line x1="195" y1="222" x2="188" y2="222"/><line x1="200" y1="113" x2="205" y2="222"/><line x1="205" y1="222" x2="212" y2="222"/>
</g>
<g stroke="#FFF" stroke-width="4" fill="none" stroke-linecap="round" stroke-linejoin="round">
  <circle cx="190" cy="107" r="10" fill="#FFF" stroke="none"/>
  <line x1="190" y1="107" x2="190" y2="115"/><line x1="190" y1="115" x2="192.5" y2="119"/><line x1="192.5" y1="119" x2="205" y2="135.5"/><line x1="192.5" y1="119" x2="167" y2="131.5"/><line x1="167" y1="131.5" x2="146.5" y2="168.5"/><line x1="192.5" y1="119" x2="203" y2="131.5"/><line x1="203" y1="131.5" x2="198.5" y2="168.5"/><line x1="205" y1="135.5" x2="195" y2="222"/><line x1="195" y1="222" x2="188" y2="222"/><line x1="205" y1="135.5" x2="205" y2="222"/><line x1="205" y1="222" x2="212" y2="222"/>
  <line x1="190" y1="115" x2="192.5" y2="119" stroke="#22C55E" stroke-width="5" opacity="0.6"/><line x1="192.5" y1="119" x2="205" y2="135.5" stroke="#22C55E" stroke-width="5" opacity="0.6"/>
</g>
<line x1="170" y1="100" x2="140" y2="100" stroke="#22C55E" stroke-width="2" stroke-dasharray="4,3"/><polygon points="140,95 150,100 140,105" fill="#22C55E"/><text x="155" y="93" fill="#22C55E" font-size="10" text-anchor="middle" font-family="sans-serif">Fold</text>
</svg>