<svg xmlns="http://www.w3.org/2000/svg" viewBox="0 0 400 300">
<rect width="400" height="300" fill="#0f0f1a"/>
<line x1="20" y1="190" x2="380" y2="190" stroke="#444" stroke-width="3" stroke-linecap="round"/>
<text x="200" y="38" fill="#888" font-size="13" font-family="sans-serif" text-anchor="middle">Child's Pose</text>
<text x="200" y="58" fill="#666" font-size="10" font-family="sans-serif" text-anchor="middle">From hands and knees, sit back on heels, reach arms forward on floor, hold.</text>
<g stroke="#555" stroke-width="2" fill="none" stroke-linecap="round" stroke-linejoin="round" opacity="0.25">
  <circle cx="175" cy="73" r="10" fill="#444" stroke="none"/>
  <line x1="175" y1="73" x2="186" y2="76"/><line x1="186" y1="76" x2="200" y2="87"/><line x1="200" y1="87" x2="240" y2="110"/><line x1="200" y1="87" x2="170" y2="189"/><line x1="240" y1="110" x2="245" y2="145"/><line x1="245" y1="145" x2="255" y2="189"/>
</g>
<g stroke="#FFF" stroke-width="4" fill="none" stroke-linecap="round" stroke-linejoin="round">
  <circle cx="167.8" cy="106.3" r="10" fill="#FFF" stroke="none"/>
  <line x1="167.8" y1="106.3" x2="180.2" y2="104.9"/><line x1="180.2" y1="104.9" x2="195.7" y2="108.7"/><line x1="195.7" y1="108.7" x2="246.4" y2="130.3"/><line x1="195.7" y1="108.7" x2="151.2" y2="189"/><line x1="246.4" y1="130.3" x2="246.4" y2="146.4"/><line x1="246.4" y1="146.4" x2="256.4" y2="189"/>
  <line x1="180.2" y1="104.9" x2="195.7" y2="108.7" stroke="#22C55E" stroke-width="5" opacity="0.6"/><line x1="195.7" y1="108.7" x2="246.4" y2="130.3" stroke="#22C55E" stroke-width="5" opacity="0.6"/>
</g>
<line x1="151.19212962962962" y1="189" x2="181.19212962962962" y2="189" stroke="#22C55E" stroke-width="2" stroke-dasharray="4,3"/><polygon points="181.19212962962962,184 191.19212962962962,189 181.19212962962962,194" fill="#22C55E"/><text x="166.19212962962962" y="93" fill="#22C55E" font-size="10" text-anchor="middle" font-family="sans-serif">Fold forward</text>
</svg>