<svg xmlns="http://www.w3.org/2000/svg" viewBox="0 0 400 300">
<rect width="400" height="300" fill="#0f0f1a"/>
<line x1="20" y1="190" x2="380" y2="190" stroke="#444" stroke-width="3" stroke-linecap="round"/>
<text x="200" y="38" fill="#888" font-size="13" font-family="sans-serif" text-anchor="middle">Child's Pose</text>
<text x="200" y="58" fill="#666" font-size="10" font-family="sans-serif" text-anchor="middle">From hands and knees, sit back on heels, reach arms forward on floor, hold</text>
<g stroke="#555" stroke-width="2" fill="none" stroke-linecap="round" stroke-linejoin="round" opacity="0.25">
  <circle cx="175" cy="73" r="10" fill="#444" stroke="none"/>
  <line x1="175" y1="73" x2="186" y2="76"/><line x1="186" y1="76" x2="200" y2="87"/><line x1="200" y1="87" x2="240" y2="110"/><line x1="200" y1="87" x2="170" y2="189"/><line x1="240" y1="110" x2="245" y2="145"/><line x1="245" y1="145" x2="255" y2="189"/>
</g>
<g stroke="#FFF" stroke-width="4" fill="none" stroke-linecap="round" stroke-linejoin="round">
  <circle cx="174.7" cy="75.1" r="10" fill="#FFF" stroke="none"/>
  <line x1="174.7" y1="75.1" x2="185.8" y2="77.9"/><line x1="185.8" y1="77.9" x2="199.8" y2="88.3"/><line x1="199.8" y1="88.3" x2="240.3" y2="111.2"/><line x1="199.8" y1="88.3" x2="169.3" y2="189"/><line x1="240.3" y1="111.2" x2="245.1" y2="145.1"/><line x1="245.1" y1="145.1" x2="255.1" y2="189"/>
  <line x1="185.8" y1="77.9" x2="199.8" y2="88.3" stroke="#22C55E" stroke-width="5" opacity="0.6"/><line x1="199.8" y1="88.3" x2="240.3" y2="111.2" stroke="#22C55E" stroke-width="5" opacity="0.6"/>
</g>
<line x1="170" y1="100" x2="140" y2="100" stroke="#22C55E" stroke-width="2" stroke-dasharray="4,3"/><polygon points="140,95 150,100 140,105" fill="#22C55E"/><text x="155" y="93" fill="#22C55E" font-size="10" text-anchor="middle" font-family="sans-serif">Fold</text>
</svg>