<svg xmlns="http://www.w3.org/2000/svg" viewBox="0 0 400 300">
<rect width="400" height="300" fill="#0f0f1a"/>
<line x1="20" y1="190" x2="380" y2="190" stroke="#444" stroke-width="3" stroke-linecap="round"/>
<text x="200" y="38" fill="#888" font-size="13" font-family="sans-serif" text-anchor="middle">Child's Pose</text>
<text x="200" y="58" fill="#666" font-size="10" font-family="sans-serif" text-anchor="middle">From hands and knees, sit back on heels, reach arms forward on floor, hold.</text>
<g stroke="#555" stroke-width="2" fill="none" stroke-linecap="round" stroke-linejoin="round" opacity="0.25">
  <circle cx="175" cy="73" r="10" fill="#444" stroke="none"/>
  <line x1="175" y1="73" x2="186" y2="76"/><line x1="186" y1="76" x2="200" y2="87"/><line x1="200" y1="87" x2="240" y2="110"/><line x1="200" y1="87" x2="170" y2="189"/><line x1="240" y1="110" x2="245" y2="145"/><line x1="245" y1="145" x2="255" y2="189"/>
</g>
<g stroke="#FFF" stroke-width="4" fill="none" stroke-linecap="round" stroke-linejoin="round">
  <circle cx="173.4" cy="80.2" r="10" fill="#FFF" stroke="none"/>
  <line x1="173.4" y1="80.2" x2="184.8" y2="82.3"/><line x1="184.8" y1="82.3" x2="199.1" y2="91.7"/><line x1="199.1" y1="91.7" x2="241.4" y2="114.4"/><line x1="199.1" y1="91.7" x2="165.9" y2="189"/><line x1="241.4" y1="114.4" x2="245.3" y2="145.3"/><line x1="245.3" y1="145.3" x2="255.3" y2="189"/>
  <line x1="184.8" y1="82.3" x2="199.1" y2="91.7" stroke="#22C55E" stroke-width="5" opacity="0.6"/><line x1="199.1" y1="91.7" x2="241.4" y2="114.4" stroke="#22C55E" stroke-width="5" opacity="0.6"/>
</g>
<line x1="165.9375" y1="189" x2="195.9375" y2="189" stroke="#22C55E" stroke-width="2" stroke-dasharray="4,3"/><polygon points="195.9375,184 205.9375,189 195.9375,194" fill="#22C55E"/><text x="180.9375" y="93" fill="#22C55E" font-size="10" text-anchor="middle" font-family="sans-serif">Fold forward</text>
</svg>