<svg xmlns="http://www.w3.org/2000/svg" viewBox="0 0 400 300">
<rect width="400" height="300" fill="#0f0f1a"/>
<line x1="20" y1="248" x2="380" y2="248" stroke="#444" stroke-width="3" stroke-linecap="round"/>
<text x="200" y="23" fill="#888" font-size="12" font-family="sans-serif" text-anchor="middle">Child's Pose</text>
<text x="200" y="38" fill="#666" font-size="10" font-family="sans-serif" text-anchor="middle">Kneeling, sit back on heels, reach arms forward on floor, hold</text>
<g stroke="#555" stroke-width="2" fill="none" stroke-linecap="round" stroke-linejoin="round" opacity="0.25">
  <circle cx="60" cy="40" r="12" fill="#444" stroke="none"/>
  <line x1="60" y1="40" x2="60" y2="55"/><line x1="60" y1="55" x2="60" y2="70"/><line x1="60" y1="70" x2="60" y2="120"/><line x1="60" y1="70" x2="40" y2="85"/><line x1="40" y1="85" x2="30" y2="100"/><line x1="60" y1="70" x2="80" y2="85"/><line x1="80" y1="85" x2="90" y2="100"/><line x1="60" y1="120" x2="60" y2="245"/><line x1="60" y1="120" x2="60" y2="245"/>
</g>
<g stroke="#FFF" stroke-width="4" fill="none" stroke-linecap="round" stroke-linejoin="round">
  <circle cx="36.6" cy="75.6" r="12" fill="#FFF" stroke="none"/>
  <line x1="36.6" y1="75.6" x2="36.6" y2="87.8"/><line x1="36.6" y1="87.8" x2="41.3" y2="98.1"/><line x1="41.3" y1="98.1" x2="50.6" y2="138.8"/><line x1="41.3" y1="98.1" x2="40" y2="85"/><line x1="40" y1="85" x2="-2.8" y2="137.5"/><line x1="41.3" y1="98.1" x2="80" y2="85"/><line x1="80" y1="85" x2="57.2" y2="137.5"/><line x1="50.6" y1="138.8" x2="60" y2="245"/><line x1="50.6" y1="138.8" x2="60" y2="245"/>
  <line x1="36.6" y1="87.8" x2="41.3" y2="98.1" stroke="#22C55E" stroke-width="5" opacity="0.6"/><line x1="41.3" y1="98.1" x2="50.6" y2="138.8" stroke="#22C55E" stroke-width="5" opacity="0.6"/>
</g>

</svg>