<svg xmlns="http://www.w3.org/2000/svg" viewBox="0 0 400 300">
<rect width="400" height="300" fill="#0f0f1a"/>
<line x1="20" y1="225" x2="380" y2="225" stroke="#444" stroke-width="3" stroke-linecap="round"/>
<text x="200" y="38" fill="#888" font-size="13" font-family="sans-serif" text-anchor="middle">Child's Pose</text>
<text x="200" y="58" fill="#666" font-size="10" font-family="sans-serif" text-anchor="middle">Kneeling, sit back on heels, reach arms forward on floor, hold</text>
<g stroke="#555" stroke-width="2" fill="none" stroke-linecap="round" stroke-linejoin="round" opacity="0.25">
  <circle cx="200" cy="73" r="10" fill="#444" stroke="none"/>
  <line x1="200" y1="73" x2="200" y2="81"/><line x1="200" y1="81" x2="200" y2="89"/><line x1="200" y1="89" x2="200" y2="113"/><line x1="200" y1="89" x2="182" y2="99"/><line x1="182" y1="99" x2="174" y2="111"/><line x1="200" y1="89" x2="218" y2="99"/><line x1="218" y1="99" x2="226" y2="111"/><line x1="200" y1="113" x2="195" y2="222"/><line x1="195" y1="222" x2="188" y2="222"/><line x1="200" y1="113" x2="205" y2="222"/><line x1="205" y1="222" x2="212" y2="222"/>
</g>
<g stroke="#FFF" stroke-width="4" fill="none" stroke-linecap="round" stroke-linejoin="round">
  <circle cx="185.8" cy="121.3" r="10" fill="#FFF" stroke="none"/>
  <line x1="185.8" y1="121.3" x2="185.8" y2="129.3"/><line x1="185.8" y1="129.3" x2="189.3" y2="131.6"/><line x1="189.3" y1="131.6" x2="207.1" y2="145"/><line x1="189.3" y1="131.6" x2="160.7" y2="145.2"/><line x1="160.7" y1="145.2" x2="134.9" y2="192.7"/><line x1="189.3" y1="131.6" x2="196.7" y2="145.2"/><line x1="196.7" y1="145.2" x2="186.9" y2="192.7"/><line x1="207.1" y1="145" x2="195" y2="222"/><line x1="195" y1="222" x2="188" y2="222"/><line x1="207.1" y1="145" x2="205" y2="222"/><line x1="205" y1="222" x2="212" y2="222"/>
  <line x1="185.8" y1="129.3" x2="189.3" y2="131.6" stroke="#22C55E" stroke-width="5" opacity="0.6"/><line x1="189.3" y1="131.6" x2="207.1" y2="145" stroke="#22C55E" stroke-width="5" opacity="0.6"/>
</g>
<line x1="170" y1="100" x2="140" y2="100" stroke="#22C55E" stroke-width="2" stroke-dasharray="4,3"/><polygon points="140,95 150,100 140,105" fill="#22C55E"/><text x="155" y="93" fill="#22C55E" font-size="10" text-anchor="middle" font-family="sans-serif">Fold</text>
</svg>