<svg xmlns="http://www.w3.org/2000/svg" viewBox="0 0 400 300">
<defs>
  <filter id="glow" x="-20%" y="-20%" width="140%" height="140%">
    <feGaussianBlur stdDeviation="2.5" result="blur"/>
    <feMerge>
      <feMergeNode in="blur"/>
      <feMergeNode in="SourceGraphic"/>
    </feMerge>
  </filter>
</defs>
<rect width="400" height="300" fill="#0f0f1a"/>
<line x1="20" y1="190" x2="380" y2="190" stroke="#444" stroke-width="3" stroke-linecap="round"/>
<polygon points="50,196 43,190 50,184" fill="#444" opacity="0.5"/>
<text x="200" y="38" fill="#888" font-size="13" font-family="sans-serif" text-anchor="middle">Child's Pose</text>
<text x="200" y="58" fill="#666" font-size="10" font-family="sans-serif" text-anchor="middle"><tspan x="200" dy="0">From hands and knees, sit back on heels, reach arms</tspan><tspan x="200" dy="14">forward on floor, hold.</tspan></text>
<g stroke="#555" stroke-width="3" fill="none" stroke-linecap="round" stroke-linejoin="round" opacity="0.3">
  <circle cx="175" cy="73" r="10" fill="#555" stroke="none"/>
  <line x1="175" y1="73" x2="186" y2="76"/><line x1="186" y1="76" x2="200" y2="87"/><line x1="200" y1="87" x2="240" y2="110"/><line x1="200" y1="87" x2="170" y2="189"/><line x1="240" y1="110" x2="245" y2="145"/><line x1="245" y1="145" x2="255" y2="189"/><circle cx="175" cy="73" r="2" fill="none"/><circle cx="186" cy="76" r="2" fill="none"/><circle cx="200" cy="87" r="2" fill="none"/><circle cx="240" cy="110" r="2" fill="none"/><circle cx="170" cy="189" r="2" fill="none"/><circle cx="245" cy="145" r="2" fill="none"/><circle cx="255" cy="189" r="2" fill="none"/>
</g>
<g stroke="#FFF" stroke-width="5" fill="none" stroke-linecap="round" stroke-linejoin="round">
  <circle cx="166.2" cy="113.4" r="10" fill="#FFF" stroke="none"/>
  <polygon points="160.2,111.4 152.2,113.4 160.2,115.4" fill="#FFF" stroke="none"/>
  <line x1="166.2" y1="113.4" x2="179" y2="111.1"/><line x1="179" y1="111.1" x2="194.7" y2="113.3"/><line x1="194.7" y1="113.3" x2="247.7" y2="134.6"/><line x1="194.7" y1="113.3" x2="147.2" y2="189"/><line x1="247.7" y1="134.6" x2="246.8" y2="146.8"/><line x1="246.8" y1="146.8" x2="256.8" y2="189"/>
  <g filter="url(#glow)"><line x1="179" y1="111.1" x2="194.7" y2="113.3" stroke="#22C55E" stroke-width="6" opacity="0.75"/><line x1="194.7" y1="113.3" x2="247.7" y2="134.6" stroke="#22C55E" stroke-width="6" opacity="0.75"/></g>
  <circle cx="166.2" cy="113.4" r="2.5" fill="#FFF" stroke="none"/><circle cx="179" cy="111.1" r="3" fill="#22C55E" stroke="none"/><circle cx="194.7" cy="113.3" r="3" fill="#22C55E" stroke="none"/><circle cx="247.7" cy="134.6" r="3" fill="#22C55E" stroke="none"/><circle cx="147.2" cy="189" r="2.5" fill="#FFF" stroke="none"/><circle cx="246.8" cy="146.8" r="2.5" fill="#FFF" stroke="none"/><circle cx="256.8" cy="189" r="2.5" fill="#FFF" stroke="none"/>
</g>
<line x1="147.17421124828533" y1="189" x2="177.17421124828533" y2="189" stroke="#22C55E" stroke-width="2" stroke-dasharray="4,3"/><polygon points="177.17421124828533,184 187.17421124828533,189 177.17421124828533,194" fill="#22C55E"/><text x="162.17421124828533" y="93" fill="#22C55E" font-size="10" text-anchor="middle" font-family="sans-serif" paint-order="stroke" stroke="#0f0f1a" stroke-width="2" stroke-linecap="round" stroke-linejoin="round">Fold forward</text>
</svg>