<svg xmlns="http://www.w3.org/2000/svg" viewBox="0 0 400 300">
<rect width="400" height="300" fill="#0f0f1a"/>
<line x1="20" y1="190" x2="380" y2="190" stroke="#444" stroke-width="3" stroke-linecap="round"/>
<text x="200" y="38" fill="#888" font-size="13" font-family="sans-serif" text-anchor="middle">Child's Pose</text>
<text x="200" y="58" fill="#666" font-size="10" font-family="sans-serif" text-anchor="middle"><tspan x="200" dy="0">From hands and knees, sit back on heels, reach arms</tspan><tspan x="200" dy="14">forward on floor, hold.</tspan></text>
<g stroke="#555" stroke-width="2" fill="none" stroke-linecap="round" stroke-linejoin="round" opacity="0.25">
  <circle cx="175" cy="73" r="10" fill="#444" stroke="none"/>
  <line x1="175" y1="73" x2="186" y2="76"/><line x1="186" y1="76" x2="200" y2="87"/><line x1="200" y1="87" x2="240" y2="110"/><line x1="200" y1="87" x2="170" y2="189"/><line x1="240" y1="110" x2="245" y2="145"/><line x1="245" y1="145" x2="255" y2="189"/>
</g>
<g stroke="#FFF" stroke-width="4" fill="none" stroke-linecap="round" stroke-linejoin="round">
  <circle cx="162.5" cy="130.5" r="10" fill="#FFF" stroke="none"/>
  <line x1="162.5" y1="130.5" x2="176" y2="126"/><line x1="176" y1="126" x2="192.5" y2="124.5"/><line x1="192.5" y1="124.5" x2="251" y2="145"/><line x1="192.5" y1="124.5" x2="137.5" y2="189"/><line x1="251" y1="145" x2="247.5" y2="147.5"/><line x1="247.5" y1="147.5" x2="257.5" y2="189"/>
  <line x1="176" y1="126" x2="192.5" y2="124.5" stroke="#22C55E" stroke-width="5" opacity="0.6"/><line x1="192.5" y1="124.5" x2="251" y2="145" stroke="#22C55E" stroke-width="5" opacity="0.6"/>
</g>
<line x1="137.5" y1="189" x2="167.5" y2="189" stroke="#22C55E" stroke-width="2" stroke-dasharray="4,3"/><polygon points="167.5,184 177.5,189 167.5,194" fill="#22C55E"/><text x="152.5" y="93" fill="#22C55E" font-size="10" text-anchor="middle" font-family="sans-serif">Fold forward</text>
</svg>