<svg xmlns="http://www.w3.org/2000/svg" viewBox="0 0 400 300">
<rect width="400" height="300" fill="#0f0f1a"/>
<line x1="20" y1="225" x2="380" y2="225" stroke="#444" stroke-width="3" stroke-linecap="round"/>
<text x="200" y="38" fill="#888" font-size="13" font-family="sans-serif" text-anchor="middle">Child's Pose</text>
<text x="200" y="58" fill="#666" font-size="10" font-family="sans-serif" text-anchor="middle">Kneeling, sit back on heels, reach arms forward on floor, hold</text>
<g stroke="#555" stroke-width="2" fill="none" stroke-linecap="round" stroke-linejoin="round" opacity="0.25">
  <circle cx="200" cy="73" r="10" fill="#444" stroke="none"/>
  <line x1="200" y1="73" x2="200" y2="81"/><line x1="200" y1="81" x2="200" y2="89"/><line x1="200" y1="89" x2="200" y2="113"/><line x1="200" y1="89" x2="182" y2="99"/><line x1="182" y1="99" x2="174" y2="111"/><line x1="200" y1="89" x2="218" y2="99"/><line x1="218" y1="99" x2="226" y2="111"/><line x1="200" y1="113" x2="195" y2="222"/><line x1="195" y1="222" x2="188" y2="222"/><line x1="200" y1="113" x2="205" y2="222"/><line x1="205" y1="222" x2="212" y2="222"/>
</g>
<g stroke="#FFF" stroke-width="4" fill="none" stroke-linecap="round" stroke-linejoin="round">
  <circle cx="181.7" cy="135.2" r="10" fill="#FFF" stroke="none"/>
  <line x1="181.7" y1="135.2" x2="181.7" y2="143.2"/><line x1="181.7" y1="143.2" x2="186.3" y2="143.9"/><line x1="186.3" y1="143.9" x2="209.1" y2="154.1"/><line x1="186.3" y1="143.9" x2="154.6" y2="158.4"/><line x1="154.6" y1="158.4" x2="123.7" y2="216.1"/><line x1="186.3" y1="143.9" x2="190.6" y2="158.4"/><line x1="190.6" y1="158.4" x2="175.7" y2="216.1"/><line x1="209.1" y1="154.1" x2="195" y2="222"/><line x1="195" y1="222" x2="188" y2="222"/><line x1="209.1" y1="154.1" x2="205" y2="222"/><line x1="205" y1="222" x2="212" y2="222"/>
  <line x1="181.7" y1="143.2" x2="186.3" y2="143.9" stroke="#22C55E" stroke-width="5" opacity="0.6"/><line x1="186.3" y1="143.9" x2="209.1" y2="154.1" stroke="#22C55E" stroke-width="5" opacity="0.6"/>
</g>
<line x1="170" y1="100" x2="140" y2="100" stroke="#22C55E" stroke-width="2" stroke-dasharray="4,3"/><polygon points="140,95 150,100 140,105" fill="#22C55E"/><text x="155" y="93" fill="#22C55E" font-size="10" text-anchor="middle" font-family="sans-serif">Fold</text>
</svg>