<svg xmlns="http://www.w3.org/2000/svg" viewBox="0 0 400 300">
<rect width="400" height="300" fill="#0f0f1a"/>
<line x1="20" y1="190" x2="380" y2="190" stroke="#444" stroke-width="3" stroke-linecap="round"/>
<text x="200" y="38" fill="#888" font-size="13" font-family="sans-serif" text-anchor="middle">Child's Pose</text>
<text x="200" y="58" fill="#666" font-size="10" font-family="sans-serif" text-anchor="middle">From hands and knees, sit back on heels, reach arms forward on floor, hold.</text>
<g stroke="#555" stroke-width="2" fill="none" stroke-linecap="round" stroke-linejoin="round" opacity="0.25">
  <circle cx="175" cy="73" r="10" fill="#444" stroke="none"/>
  <line x1="175" y1="73" x2="186" y2="76"/><line x1="186" y1="76" x2="200" y2="87"/><line x1="200" y1="87" x2="240" y2="110"/><line x1="200" y1="87" x2="170" y2="189"/><line x1="240" y1="110" x2="245" y2="145"/><line x1="245" y1="145" x2="255" y2="189"/>
</g>
<g stroke="#FFF" stroke-width="4" fill="none" stroke-linecap="round" stroke-linejoin="round">
  <circle cx="170.3" cy="94.7" r="10" fill="#FFF" stroke="none"/>
  <line x1="170.3" y1="94.7" x2="182.2" y2="94.8"/><line x1="182.2" y1="94.8" x2="197.2" y2="101.1"/><line x1="197.2" y1="101.1" x2="244.1" y2="123.2"/><line x1="197.2" y1="101.1" x2="157.8" y2="189"/><line x1="244.1" y1="123.2" x2="245.9" y2="145.9"/><line x1="245.9" y1="145.9" x2="255.9" y2="189"/>
  <line x1="182.2" y1="94.8" x2="197.2" y2="101.1" stroke="#22C55E" stroke-width="5" opacity="0.6"/><line x1="197.2" y1="101.1" x2="244.1" y2="123.2" stroke="#22C55E" stroke-width="5" opacity="0.6"/>
</g>
<line x1="157.7567729766804" y1="189" x2="187.7567729766804" y2="189" stroke="#22C55E" stroke-width="2" stroke-dasharray="4,3"/><polygon points="187.7567729766804,184 197.7567729766804,189 187.7567729766804,194" fill="#22C55E"/><text x="172.7567729766804" y="93" fill="#22C55E" font-size="10" text-anchor="middle" font-family="sans-serif">Fold</text>
</svg>