<svg xmlns="http://www.w3.org/2000/svg" viewBox="0 0 400 300">
<rect width="400" height="300" fill="#0f0f1a"/>
<line x1="20" y1="225" x2="380" y2="225" stroke="#444" stroke-width="3" stroke-linecap="round"/>
<text x="200" y="38" fill="#888" font-size="13" font-family="sans-serif" text-anchor="middle">Straight-Leg Deadlifts</text>
<text x="200" y="58" fill="#666" font-size="10" font-family="sans-serif" text-anchor="middle">Hip hinge with straight legs, reach toward floor, return.</text>
<g stroke="#555" stroke-width="2" fill="none" stroke-linecap="round" stroke-linejoin="round" opacity="0.25">
  <circle cx="200" cy="73" r="10" fill="#444" stroke="none"/>
  <line x1="200" y1="73" x2="200" y2="81"/><line x1="200" y1="81" x2="200" y2="89"/><line x1="200" y1="89" x2="200" y2="113"/><line x1="200" y1="89" x2="182" y2="99"/><line x1="182" y1="99" x2="174" y2="111"/><line x1="200" y1="89" x2="218" y2="99"/><line x1="218" y1="99" x2="226" y2="111"/><line x1="200" y1="113" x2="195" y2="170"/><line x1="195" y1="170" x2="190" y2="222"/><line x1="200" y1="113" x2="205" y2="170"/><line x1="205" y1="170" x2="210" y2="222"/>
</g>
<g stroke="#FFF" stroke-width="4" fill="none" stroke-linecap="round" stroke-linejoin="round">
  <circle cx="199.4" cy="75.9" r="10" fill="#FFF" stroke="none"/>
  <line x1="199.4" y1="75.9" x2="199.4" y2="84.4"/><line x1="199.4" y1="84.4" x2="199.4" y2="92.4"/><line x1="199.4" y1="92.4" x2="199.4" y2="114.1"/><line x1="199.4" y1="92.4" x2="181.4" y2="104.7"/><line x1="181.4" y1="104.7" x2="173.4" y2="118.4"/><line x1="199.4" y1="92.4" x2="217.4" y2="104.7"/><line x1="217.4" y1="104.7" x2="225.4" y2="118.4"/><line x1="199.4" y1="114.1" x2="195" y2="170"/><line x1="195" y1="170" x2="190" y2="222"/><line x1="199.4" y1="114.1" x2="205" y2="170"/><line x1="205" y1="170" x2="210" y2="222"/>
  <line x1="199.4" y1="114.1" x2="199.4" y2="92.4" stroke="#FF6B6B" stroke-width="5" opacity="0.6"/>
</g>
<text x="219.4" y="107.4" fill="#FF6B6B" font-size="10" font-family="sans-serif">Reach</text>
</svg>