<svg xmlns="http://www.w3.org/2000/svg" viewBox="0 0 400 300">
<rect width="400" height="300" fill="#0f0f1a"/>
<line x1="20" y1="190" x2="380" y2="190" stroke="#444" stroke-width="3" stroke-linecap="round"/>
<text x="200" y="38" fill="#888" font-size="13" font-family="sans-serif" text-anchor="middle">Fire Hydrants</text>
<text x="200" y="58" fill="#666" font-size="10" font-family="sans-serif" text-anchor="middle"><tspan x="200" dy="0">On all fours, lift one bent knee out to the side,</tspan><tspan x="200" dy="14">return.</tspan></text>
<g stroke="#555" stroke-width="2" fill="none" stroke-linecap="round" stroke-linejoin="round" opacity="0.25">
  <circle cx="175" cy="73" r="10" fill="#444" stroke="none"/>
  <line x1="175" y1="73" x2="186" y2="76"/><line x1="186" y1="76" x2="200" y2="87"/><line x1="200" y1="87" x2="240" y2="110"/><line x1="200" y1="87" x2="170" y2="189"/><line x1="240" y1="110" x2="245" y2="145"/><line x1="245" y1="145" x2="255" y2="189"/>
</g>
<g stroke="#FFF" stroke-width="4" fill="none" stroke-linecap="round" stroke-linejoin="round">
  <circle cx="175" cy="73" r="10" fill="#FFF" stroke="none"/>
  <line x1="175" y1="73" x2="186" y2="76"/><line x1="186" y1="76" x2="200" y2="87"/><line x1="200" y1="87" x2="240" y2="108.6"/><line x1="200" y1="87" x2="170" y2="189"/><line x1="240" y1="108.6" x2="250.8" y2="140.7"/><line x1="250.8" y1="140.7" x2="257.9" y2="186.1"/>
  <line x1="240" y1="108.6" x2="250.8" y2="140.7" stroke="#FFD93D" stroke-width="5" opacity="0.6"/><line x1="250.8" y1="140.7" x2="257.9" y2="186.1" stroke="#FFD93D" stroke-width="5" opacity="0.6"/>
</g>
<path d="M 225.78703703703704 110.65972222222223 Q 250.78703703703704 152.65972222222223 275.78703703703707 110.65972222222223" stroke="#FFD93D" stroke-width="2" fill="none" stroke-dasharray="4,3"/><text x="250.78703703703704" y="148.65972222222223" fill="#FFD93D" font-size="10" text-anchor="middle" font-family="sans-serif">Rotate out</text>
</svg>