<svg xmlns="http://www.w3.org/2000/svg" viewBox="0 0 400 300">
<rect width="400" height="300" fill="#0f0f1a"/>
<line x1="20" y1="190" x2="380" y2="190" stroke="#444" stroke-width="3" stroke-linecap="round"/>
<text x="200" y="38" fill="#888" font-size="13" font-family="sans-serif" text-anchor="middle">Fire Hydrants</text>
<text x="200" y="58" fill="#666" font-size="10" font-family="sans-serif" text-anchor="middle">On all fours, lift one bent knee out to the side, return.</text>
<g stroke="#555" stroke-width="2" fill="none" stroke-linecap="round" stroke-linejoin="round" opacity="0.25">
  <circle cx="175" cy="73" r="10" fill="#444" stroke="none"/>
  <line x1="175" y1="73" x2="186" y2="76"/><line x1="186" y1="76" x2="200" y2="87"/><line x1="200" y1="87" x2="240" y2="110"/><line x1="200" y1="87" x2="170" y2="189"/><line x1="240" y1="110" x2="245" y2="145"/><line x1="245" y1="145" x2="255" y2="189"/>
</g>
<g stroke="#FFF" stroke-width="4" fill="none" stroke-linecap="round" stroke-linejoin="round">
  <circle cx="175" cy="73" r="10" fill="#FFF" stroke="none"/>
  <line x1="175" y1="73" x2="186" y2="76"/><line x1="186" y1="76" x2="200" y2="87"/><line x1="200" y1="87" x2="240" y2="105.9"/><line x1="200" y1="87" x2="170" y2="189"/><line x1="240" y1="105.9" x2="261.2" y2="132.8"/><line x1="261.2" y1="132.8" x2="263.1" y2="180.9"/>
  <line x1="240" y1="105.9" x2="261.2" y2="132.8" stroke="#FFD93D" stroke-width="5" opacity="0.6"/><line x1="261.2" y1="132.8" x2="263.1" y2="180.9" stroke="#FFD93D" stroke-width="5" opacity="0.6"/>
</g>
<path d="M 236.23285322359396 102.82536008230454 Q 261.23285322359396 144.82536008230454 286.23285322359396 102.82536008230454" stroke="#FFD93D" stroke-width="2" fill="none" stroke-dasharray="4,3"/><text x="261.23285322359396" y="140.82536008230454" fill="#FFD93D" font-size="10" text-anchor="middle" font-family="sans-serif">Rotate out</text>
</svg>